NotoSerifKhmer.ufo
<glyph name="uni1781" format="1">
  <advance width="1450"/>
  <unicode hex="1781"/>
  <outline>
    <contour>
      <point x="438" y="1025" type="qcurve"/>
      <point x="438" y="950" type="line"/>
      <point x="486" y="950"/>
      <point x="486" y="1000" type="qcurve" smooth="yes"/>
      <point x="486" y="1012"/>
      <point x="473" y="1019" type="qcurve" smooth="yes"/>
      <point x="461" y="1025"/>
    </contour>
    <contour>
      <point x="1012" y="1050" type="qcurve" smooth="yes"/>
      <point x="1012" y="1200" type="line" smooth="yes"/>
      <point x="1012" y="1258"/>
      <point x="934" y="1307" type="qcurve" smooth="yes"/>
      <point x="856" y="1356"/>
      <point x="750" y="1356" type="qcurve" smooth="yes"/>
      <point x="700" y="1356" type="line" smooth="yes"/>
      <point x="594" y="1356"/>
      <point x="516" y="1307" type="qcurve" smooth="yes"/>
      <point x="438" y="1258"/>
      <point x="438" y="1200" type="qcurve" smooth="yes"/>
      <point x="438" y="1125" type="line"/>
      <point x="512" y="1125"/>
      <point x="549" y="1094" type="qcurve" smooth="yes"/>
      <point x="586" y="1062"/>
      <point x="586" y="1000" type="qcurve" smooth="yes"/>
      <point x="586" y="850"/>
      <point x="438" y="850" type="qcurve" smooth="yes"/>
      <point x="250" y="850"/>
      <point x="250" y="950" type="qcurve" smooth="yes"/>
      <point x="250" y="1200" type="line" smooth="yes"/>
      <point x="250" y="1300"/>
      <point x="375" y="1400" type="qcurve" smooth="yes"/>
      <point x="500" y="1500"/>
      <point x="700" y="1500" type="qcurve" smooth="yes"/>
      <point x="750" y="1500" type="line" smooth="yes"/>
      <point x="950" y="1500"/>
      <point x="1075" y="1400" type="qcurve" smooth="yes"/>
      <point x="1200" y="1300"/>
      <point x="1200" y="1200" type="qcurve" smooth="yes"/>
      <point x="1200" y="1050" type="line" smooth="yes"/>
      <point x="1200" y="878"/>
      <point x="819" y="681" type="qcurve" smooth="yes"/>
      <point x="438" y="485" type="line"/>
      <point x="438" y="300" type="line" smooth="yes"/>
      <point x="438" y="242"/>
      <point x="516" y="193" type="qcurve" smooth="yes"/>
      <point x="594" y="144"/>
      <point x="700" y="144" type="qcurve" smooth="yes"/>
      <point x="750" y="144" type="line" smooth="yes"/>
      <point x="856" y="144"/>
      <point x="934" y="193" type="qcurve" smooth="yes"/>
      <point x="1012" y="242"/>
      <point x="1012" y="300" type="qcurve" smooth="yes"/>
      <point x="1012" y="600" type="line"/>
      <point x="1200" y="700" type="line"/>
      <point x="1200" y="300" type="line" smooth="yes"/>
      <point x="1200" y="200"/>
      <point x="1075" y="100" type="qcurve" smooth="yes"/>
      <point x="950" y="0"/>
      <point x="750" y="0" type="qcurve" smooth="yes"/>
      <point x="700" y="0" type="line" smooth="yes"/>
      <point x="500" y="0"/>
      <point x="375" y="100" type="qcurve" smooth="yes"/>
      <point x="250" y="200"/>
      <point x="250" y="300" type="qcurve" smooth="yes"/>
      <point x="250" y="550" type="line"/>
      <point x="726" y="795" type="line" smooth="yes"/>
      <point x="1012" y="943"/>
    </contour>
  </outline>
</glyph>
<glyph name="uni1782" format="1">
  <advance width="1450"/>
  <unicode hex="1782"/>
  <outline>
    <contour>
      <point x="180" y="1127" type="qcurve" smooth="yes"/>
      <point x="180" y="1202" type="line" smooth="yes"/>
      <point x="180" y="1254"/>
      <point x="245" y="1315" type="qcurve" smooth="yes"/>
      <point x="311" y="1376" type="line" smooth="yes"/>
      <point x="442" y="1500"/>
      <point x="474" y="1500" type="qcurve" smooth="yes"/>
      <point x="511" y="1500"/>
      <point x="619" y="1388" type="qcurve" smooth="yes"/>
      <point x="673" y="1332" type="line" smooth="yes"/>
      <point x="700" y="1303"/>
      <point x="730" y="1303" type="qcurve" smooth="yes"/>
      <point x="755" y="1303"/>
      <point x="781" y="1332" type="qcurve" smooth="yes"/>
      <point x="831" y="1388" type="line" smooth="yes"/>
      <point x="932" y="1500"/>
      <point x="968" y="1500" type="qcurve" smooth="yes"/>
      <point x="1003" y="1500"/>
      <point x="1060" y="1438" type="qcurve" smooth="yes"/>
      <point x="1178" y="1313" type="line" smooth="yes"/>
      <point x="1213" y="1276"/>
      <point x="1249" y="1276" type="qcurve" smooth="yes"/>
      <point x="1275" y="1276"/>
      <point x="1300" y="1294" type="qcurve"/>
      <point x="1230" y="1127"/>
      <point x="1165" y="1127" type="qcurve" smooth="yes"/>
      <point x="1097" y="1127"/>
      <point x="1061" y="1166" type="qcurve" smooth="yes"/>
      <point x="983" y="1247" type="line" smooth="yes"/>
      <point x="943" y="1288"/>
      <point x="910" y="1288" type="qcurve" smooth="yes"/>
      <point x="867" y="1288"/>
      <point x="809" y="1208" type="qcurve" smooth="yes"/>
      <point x="750" y="1127"/>
      <point x="700" y="1127" type="qcurve" smooth="yes"/>
      <point x="628" y="1127"/>
      <point x="542" y="1208" type="qcurve" smooth="yes"/>
      <point x="498" y="1248" type="line" smooth="yes"/>
      <point x="455" y="1288"/>
      <point x="417" y="1288" type="qcurve" smooth="yes"/>
      <point x="374" y="1288"/>
      <point x="352" y="1251" type="qcurve" smooth="yes"/>
      <point x="330" y="1214"/>
      <point x="330" y="1178" type="qcurve" smooth="yes"/>
      <point x="330" y="1128"/>
      <point x="467" y="1058" type="qcurve"/>
      <point x="338" y="967" type="line"/>
      <point x="180" y="1028"/>
    </contour>
    <contour>
      <point x="438" y="67" type="line"/>
      <point x="418" y="0" type="line"/>
      <point x="250" y="0" type="line"/>
      <point x="250" y="750" type="line" smooth="yes"/>
      <point x="250" y="850"/>
      <point x="375" y="950" type="qcurve" smooth="yes"/>
      <point x="500" y="1050"/>
      <point x="700" y="1050" type="qcurve" smooth="yes"/>
      <point x="750" y="1050" type="line" smooth="yes"/>
      <point x="950" y="1050"/>
      <point x="1075" y="950" type="qcurve" smooth="yes"/>
      <point x="1200" y="850"/>
      <point x="1200" y="750" type="qcurve" smooth="yes"/>
      <point x="1200" y="0" type="line"/>
      <point x="1012" y="0" type="line"/>
      <point x="1012" y="750" type="line" smooth="yes"/>
      <point x="1012" y="808"/>
      <point x="934" y="857" type="qcurve" smooth="yes"/>
      <point x="856" y="906"/>
      <point x="750" y="906" type="qcurve" smooth="yes"/>
      <point x="700" y="906" type="line" smooth="yes"/>
      <point x="594" y="906"/>
      <point x="516" y="857" type="qcurve" smooth="yes"/>
      <point x="438" y="808"/>
      <point x="438" y="750" type="qcurve" smooth="yes"/>
      <point x="438" y="300" type="line"/>
      <point x="483" y="372" type="line" smooth="yes"/>
      <point x="562" y="500"/>
      <point x="662" y="500" type="qcurve" smooth="yes"/>
      <point x="800" y="500"/>
      <point x="800" y="380" type="qcurve" smooth="yes"/>
      <point x="800" y="300"/>
      <point x="723" y="300" type="qcurve" smooth="yes"/>
      <point x="666" y="300"/>
      <point x="666" y="333" type="qcurve" smooth="yes"/>
      <point x="666" y="366"/>
      <point x="642" y="366" type="qcurve" smooth="yes"/>
      <point x="618" y="366"/>
      <point x="568" y="283" type="qcurve" smooth="yes"/>
      <point x="519" y="201" type="line"/>
    </contour>
  </outline>
</glyph>
<glyph name="uni1783" format="1">
  <advance width="2137"/>
  <unicode hex="1783"/>
  <outline>
    <contour>
      <point x="275" y="1266" type="line"/>
      <point x="225" y="1216"/>
      <point x="225" y="1185" type="qcurve" smooth="yes"/>
      <point x="225" y="1160"/>
      <point x="240" y="1149" type="qcurve" smooth="yes"/>
      <point x="255" y="1139"/>
      <point x="275" y="1139" type="qcurve"/>
    </contour>
    <contour>
      <point x="275" y="1000" type="line"/>
      <point x="175" y="1000"/>
      <point x="138" y="1050" type="qcurve" smooth="yes"/>
      <point x="100" y="1100"/>
      <point x="100" y="1155" type="qcurve" smooth="yes"/>
      <point x="100" y="1212"/>
      <point x="122" y="1261" type="qcurve" smooth="yes"/>
      <point x="144" y="1311"/>
      <point x="210" y="1406" type="qcurve" smooth="yes"/>
      <point x="275" y="1500"/>
      <point x="339" y="1500" type="qcurve" smooth="yes"/>
      <point x="463" y="1500"/>
      <point x="463" y="1400" type="qcurve" smooth="yes"/>
      <point x="463" y="300" type="line" smooth="yes"/>
      <point x="463" y="242"/>
      <point x="541" y="193" type="qcurve" smooth="yes"/>
      <point x="619" y="144"/>
      <point x="725" y="144" type="qcurve" smooth="yes"/>
      <point x="831" y="144"/>
      <point x="909" y="193" type="qcurve" smooth="yes"/>
      <point x="987" y="242"/>
      <point x="987" y="300" type="qcurve" smooth="yes"/>
      <point x="987" y="993" type="line"/>
      <point x="900" y="1046" type="line" smooth="yes"/>
      <point x="812" y="1099"/>
      <point x="812" y="1131" type="qcurve" smooth="yes"/>
      <point x="812" y="1162"/>
      <point x="868" y="1247" type="qcurve" smooth="yes"/>
      <point x="1036" y="1500" type="line"/>
      <point x="1144" y="1438" type="line"/>
      <point x="1198" y="1406" type="line" smooth="yes"/>
      <point x="1245" y="1379"/>
      <point x="1278" y="1379" type="qcurve" smooth="yes"/>
      <point x="1284" y="1379"/>
      <point x="1289" y="1380" type="qcurve" smooth="yes"/>
      <point x="1325" y="1385" type="line"/>
      <point x="1325" y="1350"/>
      <point x="1243" y="1222"/>
      <point x="1202" y="1216" type="qcurve" smooth="yes"/>
      <point x="1196" y="1215"/>
      <point x="1189" y="1215" type="qcurve" smooth="yes"/>
      <point x="1151" y="1215"/>
      <point x="1094" y="1249" type="qcurve" smooth="yes"/>
      <point x="1026" y="1288" type="line"/>
      <point x="983" y="1213" type="line"/>
      <point x="1175" y="1100" type="line"/>
      <point x="1175" y="300" type="line" smooth="yes"/>
      <point x="1175" y="242"/>
      <point x="1253" y="193" type="qcurve" smooth="yes"/>
      <point x="1331" y="144"/>
      <point x="1437" y="144" type="qcurve" smooth="yes"/>
      <point x="1543" y="144"/>
      <point x="1621" y="193" type="qcurve" smooth="yes"/>
      <point x="1699" y="242"/>
      <point x="1699" y="300" type="qcurve" smooth="yes"/>
      <point x="1699" y="993" type="line"/>
      <point x="1612" y="1046" type="line" smooth="yes"/>
      <point x="1524" y="1099"/>
      <point x="1524" y="1131" type="qcurve" smooth="yes"/>
      <point x="1524" y="1162"/>
      <point x="1580" y="1247" type="qcurve" smooth="yes"/>
      <point x="1748" y="1500" type="line"/>
      <point x="1856" y="1438" type="line"/>
      <point x="1910" y="1406" type="line" smooth="yes"/>
      <point x="1957" y="1379"/>
      <point x="1990" y="1379" type="qcurve" smooth="yes"/>
      <point x="1996" y="1379"/>
      <point x="2001" y="1380" type="qcurve" smooth="yes"/>
      <point x="2037" y="1385" type="line"/>
      <point x="2037" y="1350"/>
      <point x="1955" y="1222"/>
      <point x="1914" y="1216" type="qcurve" smooth="yes"/>
      <point x="1908" y="1215"/>
      <point x="1901" y="1215" type="qcurve" smooth="yes"/>
      <point x="1863" y="1215"/>
      <point x="1806" y="1249" type="qcurve" smooth="yes"/>
      <point x="1738" y="1288" type="line"/>
      <point x="1695" y="1213" type="line"/>
      <point x="1887" y="1100" type="line"/>
      <point x="1887" y="300" type="line" smooth="yes"/>
      <point x="1887" y="200"/>
      <point x="1762" y="100" type="qcurve" smooth="yes"/>
      <point x="1637" y="0"/>
      <point x="1437" y="0" type="qcurve" smooth="yes"/>
      <point x="1237" y="0"/>
      <point x="1112" y="100" type="qcurve" smooth="yes"/>
      <point x="1095" y="113"/>
      <point x="1081" y="127" type="qcurve"/>
      <point x="1067" y="113"/>
      <point x="1050" y="100" type="qcurve" smooth="yes"/>
      <point x="925" y="0"/>
      <point x="725" y="0" type="qcurve" smooth="yes"/>
      <point x="525" y="0"/>
      <point x="400" y="100" type="qcurve" smooth="yes"/>
      <point x="275" y="200"/>
      <point x="275" y="300" type="qcurve" smooth="yes"/>
    </contour>
  </outline>
</glyph>
<glyph name="uni1786" format="1">
  <advance width="1450"/>
  <unicode hex="1786"/>
  <outline>
    <contour>
      <point x="1012" y="739" type="qcurve"/>
      <point x="1012" y="836" type="line"/>
      <point x="972" y="816"/>
      <point x="972" y="785" type="qcurve" smooth="yes"/>
      <point x="972" y="760"/>
      <point x="982" y="750" type="qcurve" smooth="yes"/>
      <point x="992" y="739"/>
    </contour>
    <contour>
      <point x="250" y="366" type="line"/>
      <point x="230" y="366"/>
      <point x="210" y="345"/>
      <point x="210" y="315" type="qcurve" smooth="yes"/>
      <point x="210" y="284"/>
      <point x="250" y="234" type="qcurve"/>
    </contour>
    <contour>
      <point x="438" y="500" type="line"/>
      <point x="744" y="500"/>
      <point x="744" y="250" type="qcurve" smooth="yes"/>
      <point x="744" y="144"/>
      <point x="900" y="144" type="qcurve" smooth="yes"/>
      <point x="1012" y="144"/>
      <point x="1012" y="250" type="qcurve" smooth="yes"/>
      <point x="1012" y="600" type="line"/>
      <point x="932" y="600"/>
      <point x="862" y="700"/>
      <point x="862" y="755" type="qcurve" smooth="yes"/>
      <point x="862" y="812"/>
      <point x="901" y="901"/>
      <point x="1012" y="1000"/>
      <point x="1106" y="1000" type="qcurve" smooth="yes"/>
      <point x="1200" y="1000"/>
      <point x="1200" y="900" type="qcurve" smooth="yes"/>
      <point x="1200" y="250" type="line" smooth="yes"/>
      <point x="1200" y="0"/>
      <point x="900" y="0" type="qcurve" smooth="yes"/>
      <point x="600" y="0"/>
      <point x="600" y="250" type="qcurve" smooth="yes"/>
      <point x="600" y="366"/>
      <point x="438" y="366" type="qcurve"/>
      <point x="438" y="0" type="line"/>
      <point x="250" y="0" type="line"/>
      <point x="175" y="124" type="line" smooth="yes"/>
      <point x="100" y="248"/>
      <point x="100" y="345" type="qcurve" smooth="yes"/>
      <point x="100" y="410"/>
      <point x="180" y="500"/>
      <point x="250" y="500" type="qcurve"/>
      <point x="250" y="1010" type="line"/>
      <point x="180" y="1076"/>
      <point x="150" y="1127"/>
      <point x="150" y="1165" type="qcurve" smooth="yes"/>
      <point x="150" y="1202"/>
      <point x="180" y="1254"/>
      <point x="246" y="1316" type="qcurve" smooth="yes"/>
      <point x="311" y="1377" type="line" smooth="yes"/>
      <point x="442" y="1500"/>
      <point x="474" y="1500" type="qcurve" smooth="yes"/>
      <point x="511" y="1500"/>
      <point x="619" y="1388" type="qcurve" smooth="yes"/>
      <point x="673" y="1332" type="line" smooth="yes"/>
      <point x="700" y="1303"/>
      <point x="730" y="1303" type="qcurve" smooth="yes"/>
      <point x="755" y="1303"/>
      <point x="781" y="1332" type="qcurve" smooth="yes"/>
      <point x="831" y="1388" type="line" smooth="yes"/>
      <point x="932" y="1500"/>
      <point x="968" y="1500" type="qcurve" smooth="yes"/>
      <point x="1003" y="1500"/>
      <point x="1060" y="1438" type="qcurve" smooth="yes"/>
      <point x="1178" y="1313" type="line" smooth="yes"/>
      <point x="1213" y="1276"/>
      <point x="1249" y="1276" type="qcurve" smooth="yes"/>
      <point x="1275" y="1276"/>
      <point x="1300" y="1294" type="qcurve"/>
      <point x="1230" y="1127"/>
      <point x="1165" y="1127" type="qcurve" smooth="yes"/>
      <point x="1097" y="1127"/>
      <point x="1061" y="1166" type="qcurve" smooth="yes"/>
      <point x="983" y="1247" type="line" smooth="yes"/>
      <point x="943" y="1288"/>
      <point x="910" y="1288" type="qcurve" smooth="yes"/>
      <point x="867" y="1288"/>
      <point x="809" y="1208" type="qcurve" smooth="yes"/>
      <point x="750" y="1127"/>
      <point x="700" y="1127" type="qcurve" smooth="yes"/>
      <point x="628" y="1127"/>
      <point x="542" y="1208" type="qcurve" smooth="yes"/>
      <point x="498" y="1248" type="line" smooth="yes"/>
      <point x="455" y="1288"/>
      <point x="417" y="1288" type="qcurve" smooth="yes"/>
      <point x="394" y="1288"/>
      <point x="375" y="1266" type="qcurve" smooth="yes"/>
      <point x="336" y="1222" type="line" smooth="yes"/>
      <point x="328" y="1213"/>
      <point x="328" y="1203" type="qcurve" smooth="yes"/>
      <point x="328" y="1187"/>
      <point x="347" y="1167" type="qcurve" smooth="yes"/>
      <point x="377" y="1134" type="line"/>
      <point x="438" y="1068" type="line"/>
    </contour>
  </outline>
</glyph>
<glyph name="uni178A" format="1">
  <advance width="1450"/>
  <unicode hex="178A"/>
  <outline>
    <contour>
      <point x="438" y="950" type="line"/>
      <point x="438" y="186" type="line"/>
      <point x="725" y="423" type="line"/>
      <point x="1012" y="186" type="line"/>
      <point x="1012" y="1000" type="line"/>
      <point x="1200" y="1000" type="line"/>
      <point x="1200" y="0" type="line"/>
      <point x="1012" y="0" type="line"/>
      <point x="725" y="236" type="line"/>
      <point x="438" y="0" type="line"/>
      <point x="250" y="0" type="line"/>
      <point x="250" y="1020" type="line"/>
    </contour>
    <contour>
      <point x="408" y="1314" type="qcurve" smooth="yes"/>
      <point x="408" y="1285"/>
      <point x="437" y="1264" type="qcurve"/>
      <point x="461" y="1264" type="line" smooth="yes"/>
      <point x="514" y="1264"/>
      <point x="514" y="1314" type="qcurve" smooth="yes"/>
      <point x="514" y="1338"/>
      <point x="502" y="1350" type="qcurve" smooth="yes"/>
      <point x="488" y="1364"/>
      <point x="461" y="1364" type="qcurve" smooth="yes"/>
      <point x="435" y="1364"/>
      <point x="421" y="1351" type="qcurve" smooth="yes"/>
      <point x="408" y="1339"/>
    </contour>
    <contour>
      <point x="585" y="1221" type="qcurve"/>
      <point x="614" y="1218"/>
      <point x="646" y="1216" type="qcurve" smooth="yes"/>
      <point x="688" y="1214"/>
      <point x="735" y="1214" type="qcurve" smooth="yes"/>
      <point x="878" y="1214"/>
      <point x="1012" y="1300"/>
      <point x="1012" y="1376" type="qcurve" smooth="yes"/>
      <point x="1012" y="1522"/>
      <point x="900" y="1522" type="qcurve" smooth="yes"/>
      <point x="800" y="1522"/>
      <point x="800" y="1620" type="qcurve" smooth="yes"/>
      <point x="800" y="1700"/>
      <point x="900" y="1700" type="qcurve" smooth="yes"/>
      <point x="1200" y="1700"/>
      <point x="1200" y="1376" type="qcurve" smooth="yes"/>
      <point x="1200" y="1268"/>
      <point x="967" y="1070"/>
      <point x="735" y="1070" type="qcurve" smooth="yes"/>
      <point x="681" y="1070"/>
      <point x="634" y="1072" type="qcurve" smooth="yes"/>
      <point x="538" y="1077" type="line" smooth="yes"/>
      <point x="442" y="1082"/>
      <point x="250" y="1201"/>
      <point x="250" y="1310" type="qcurve" smooth="yes"/>
      <point x="250" y="1393"/>
      <point x="302" y="1447" type="qcurve" smooth="yes"/>
      <point x="355" y="1500"/>
      <point x="445" y="1500" type="qcurve" smooth="yes"/>
      <point x="536" y="1500"/>
      <point x="587" y="1457" type="qcurve" smooth="yes"/>
      <point x="639" y="1414"/>
      <point x="639" y="1339" type="qcurve" smooth="yes"/>
      <point x="639" y="1264"/>
    </contour>
  </outline>
</glyph>
<glyph name="uni178E" format="1">
  <advance width="2824"/>
  <unicode hex="178E"/>
  <outline>
    <contour>
      <point x="438" y="222" type="line"/>
      <point x="536" y="312"/>
      <point x="536" y="389" type="qcurve" smooth="yes"/>
      <point x="536" y="429"/>
      <point x="509" y="448" type="qcurve" smooth="yes"/>
      <point x="482" y="466"/>
      <point x="438" y="466" type="qcurve"/>
    </contour>
    <contour>
      <point x="962" y="1149" type="line"/>
      <point x="813" y="1217" type="line"/>
      <point x="784" y="1230" type="line"/>
      <point x="763" y="1240" type="line"/>
      <point x="642" y="1296" type="line" smooth="yes"/>
      <point x="585" y="1322"/>
      <point x="554" y="1322" type="qcurve" smooth="yes"/>
      <point x="498" y="1322"/>
      <point x="424" y="1266" type="qcurve" smooth="yes"/>
      <point x="350" y="1210"/>
      <point x="326" y="1182" type="qcurve"/>
      <point x="377" y="1148" type="line" smooth="yes"/>
      <point x="438" y="1110"/>
      <point x="438" y="1050" type="qcurve" smooth="yes"/>
      <point x="438" y="600" type="line"/>
      <point x="583" y="600"/>
      <point x="627" y="541" type="qcurve" smooth="yes"/>
      <point x="670" y="481"/>
      <point x="670" y="415" type="qcurve" smooth="yes"/>
      <point x="670" y="337"/>
      <point x="630" y="250" type="qcurve" smooth="yes"/>
      <point x="590" y="162"/>
      <point x="514" y="81" type="qcurve" smooth="yes"/>
      <point x="438" y="0" type="line"/>
      <point x="250" y="0" type="line"/>
      <point x="250" y="1008" type="line"/>
      <point x="188" y="1046" type="line" smooth="yes"/>
      <point x="140" y="1075"/>
      <point x="140" y="1140" type="qcurve" smooth="yes"/>
      <point x="140" y="1205"/>
      <point x="223" y="1279" type="qcurve" smooth="yes"/>
      <point x="348" y="1389" type="line" smooth="yes"/>
      <point x="472" y="1500"/>
      <point x="565" y="1500" type="qcurve" smooth="yes"/>
      <point x="648" y="1500"/>
      <point x="720" y="1467" type="qcurve" smooth="yes"/>
      <point x="841" y="1412" type="line"/>
      <point x="1042" y="1320" type="line" smooth="yes"/>
      <point x="1150" y="1270"/>
      <point x="1150" y="1149" type="qcurve" smooth="yes"/>
      <point x="1150" y="186" type="line"/>
      <point x="1412" y="402" type="line"/>
      <point x="1674" y="186" type="line"/>
      <point x="1674" y="1008" type="line"/>
      <point x="1612" y="1046" type="line" smooth="yes"/>
      <point x="1564" y="1075"/>
      <point x="1564" y="1140" type="qcurve" smooth="yes"/>
      <point x="1564" y="1205"/>
      <point x="1647" y="1279" type="qcurve" smooth="yes"/>
      <point x="1772" y="1389" type="line" smooth="yes"/>
      <point x="1896" y="1500"/>
      <point x="1989" y="1500" type="qcurve" smooth="yes"/>
      <point x="2072" y="1500"/>
      <point x="2144" y="1467" type="qcurve" smooth="yes"/>
      <point x="2265" y="1412" type="line"/>
      <point x="2466" y="1320" type="line" smooth="yes"/>
      <point x="2574" y="1270"/>
      <point x="2574" y="1149" type="qcurve" smooth="yes"/>
      <point x="2574" y="0" type="line"/>
      <point x="2386" y="0" type="line"/>
      <point x="2386" y="1149" type="line"/>
      <point x="2237" y="1217" type="line"/>
      <point x="2208" y="1230" type="line"/>
      <point x="2187" y="1240" type="line"/>
      <point x="2066" y="1296" type="line" smooth="yes"/>
      <point x="2009" y="1322"/>
      <point x="1978" y="1322" type="qcurve" smooth="yes"/>
      <point x="1922" y="1322"/>
      <point x="1848" y="1266" type="qcurve" smooth="yes"/>
      <point x="1774" y="1210"/>
      <point x="1750" y="1182" type="qcurve"/>
      <point x="1801" y="1148" type="line" smooth="yes"/>
      <point x="1862" y="1110"/>
      <point x="1862" y="1050" type="qcurve" smooth="yes"/>
      <point x="1862" y="0" type="line"/>
      <point x="1674" y="0" type="line"/>
      <point x="1412" y="215" type="line"/>
      <point x="1150" y="0" type="line"/>
      <point x="962" y="0" type="line"/>
    </contour>
  </outline>
</glyph>
<glyph name="uni1791" format="1">
  <advance width="1450"/>
  <unicode hex="1791"/>
  <outline>
    <contour>
      <point x="1042" y="710" type="qcurve" smooth="yes"/>
      <point x="1008" y="710"/>
      <point x="1008" y="671" type="qcurve"/>
      <point x="1070" y="671"/>
      <point x="1070" y="691" type="qcurve" smooth="yes"/>
      <point x="1070" y="710"/>
    </contour>
    <contour>
      <point x="987" y="1094" type="qcurve" smooth="yes"/>
      <point x="974" y="1087"/>
      <point x="974" y="1075" type="qcurve" smooth="yes"/>
      <point x="974" y="1045"/>
      <point x="1012" y="1045" type="qcurve"/>
      <point x="1012" y="1100" type="line"/>
      <point x="999" y="1100"/>
    </contour>
    <contour>
      <point x="250" y="1200" type="line" smooth="yes"/>
      <point x="250" y="1300"/>
      <point x="375" y="1400" type="qcurve" smooth="yes"/>
      <point x="500" y="1500"/>
      <point x="700" y="1500" type="qcurve" smooth="yes"/>
      <point x="750" y="1500" type="line" smooth="yes"/>
      <point x="950" y="1500"/>
      <point x="1075" y="1400" type="qcurve" smooth="yes"/>
      <point x="1200" y="1300"/>
      <point x="1200" y="1200" type="qcurve" smooth="yes"/>
      <point x="1200" y="1045" type="line" smooth="yes"/>
      <point x="1200" y="945"/>
      <point x="1012" y="945" type="qcurve" smooth="yes"/>
      <point x="874" y="945"/>
      <point x="874" y="1075" type="qcurve" smooth="yes"/>
      <point x="874" y="1137"/>
      <point x="948" y="1200"/>
      <point x="1012" y="1200" type="qcurve"/>
      <point x="1012" y="1258"/>
      <point x="934" y="1307" type="qcurve" smooth="yes"/>
      <point x="856" y="1356"/>
      <point x="750" y="1356" type="qcurve" smooth="yes"/>
      <point x="700" y="1356" type="line" smooth="yes"/>
      <point x="594" y="1356"/>
      <point x="516" y="1307" type="qcurve" smooth="yes"/>
      <point x="438" y="1258"/>
      <point x="438" y="1200" type="qcurve" smooth="yes"/>
      <point x="438" y="945" type="line" smooth="yes"/>
      <point x="438" y="818"/>
      <point x="517" y="745" type="qcurve" smooth="yes"/>
      <point x="596" y="671"/>
      <point x="726" y="671" type="qcurve" smooth="yes"/>
      <point x="820" y="671" type="line"/>
      <point x="820" y="721"/>
      <point x="925" y="831"/>
      <point x="1042" y="831" type="qcurve" smooth="yes"/>
      <point x="1111" y="831"/>
      <point x="1200" y="766"/>
      <point x="1200" y="692" type="qcurve" smooth="yes"/>
      <point x="1200" y="606"/>
      <point x="1155" y="574" type="qcurve" smooth="yes"/>
      <point x="1111" y="541"/>
      <point x="1008" y="541" type="qcurve"/>
      <point x="1008" y="302" type="line" smooth="yes"/>
      <point x="1008" y="151"/>
      <point x="851" y="0"/>
      <point x="700" y="0" type="qcurve" smooth="yes"/>
      <point x="563" y="0"/>
      <point x="392" y="127"/>
      <point x="392" y="250" type="qcurve" smooth="yes"/>
      <point x="392" y="450" type="line"/>
      <point x="570" y="450" type="line"/>
      <point x="570" y="250" type="line" smooth="yes"/>
      <point x="570" y="208"/>
      <point x="640" y="144"/>
      <point x="700" y="144" type="qcurve" smooth="yes"/>
      <point x="744" y="144"/>
      <point x="820" y="221"/>
      <point x="820" y="301" type="qcurve" smooth="yes"/>
      <point x="820" y="541" type="line"/>
      <point x="726" y="541" type="line" smooth="yes"/>
      <point x="508" y="541"/>
      <point x="379" y="655" type="qcurve" smooth="yes"/>
      <point x="250" y="768"/>
      <point x="250" y="945" type="qcurve" smooth="yes"/>
    </contour>
  </outline>
</glyph>
<glyph name="uni1796" format="1">
  <advance width="1450"/>
  <unicode hex="1796"/>
  <outline>
    <contour>
      <point x="438" y="222" type="line"/>
      <point x="536" y="312"/>
      <point x="536" y="389" type="qcurve" smooth="yes"/>
      <point x="536" y="429"/>
      <point x="509" y="448" type="qcurve" smooth="yes"/>
      <point x="482" y="466"/>
      <point x="438" y="466" type="qcurve"/>
    </contour>
    <contour>
      <point x="438" y="600" type="line"/>
      <point x="583" y="600"/>
      <point x="627" y="541" type="qcurve" smooth="yes"/>
      <point x="670" y="481"/>
      <point x="670" y="415" type="qcurve" smooth="yes"/>
      <point x="670" y="337"/>
      <point x="630" y="250" type="qcurve" smooth="yes"/>
      <point x="590" y="162"/>
      <point x="514" y="81" type="qcurve" smooth="yes"/>
      <point x="438" y="0" type="line"/>
      <point x="250" y="0" type="line"/>
      <point x="250" y="1062" type="line"/>
      <point x="150" y="1169"/>
      <point x="150" y="1212" type="qcurve" smooth="yes"/>
      <point x="150" y="1255"/>
      <point x="283" y="1378" type="qcurve" smooth="yes"/>
      <point x="415" y="1500"/>
      <point x="461" y="1500" type="qcurve" smooth="yes"/>
      <point x="509" y="1500"/>
      <point x="604" y="1412" type="qcurve" smooth="yes"/>
      <point x="678" y="1340" type="line" smooth="yes"/>
      <point x="684" y="1335"/>
      <point x="692" y="1335" type="qcurve" smooth="yes"/>
      <point x="712" y="1335"/>
      <point x="742" y="1367" type="qcurve" smooth="yes"/>
      <point x="783" y="1412" type="line" smooth="yes"/>
      <point x="866" y="1500"/>
      <point x="918" y="1500" type="qcurve" smooth="yes"/>
      <point x="955" y="1500"/>
      <point x="1016" y="1462" type="qcurve" smooth="yes"/>
      <point x="1078" y="1423" type="line" smooth="yes"/>
      <point x="1200" y="1346"/>
      <point x="1200" y="1169" type="qcurve" smooth="yes"/>
      <point x="1200" y="0" type="line"/>
      <point x="1012" y="0" type="line"/>
      <point x="1012" y="1169" type="line" smooth="yes"/>
      <point x="1012" y="1245"/>
      <point x="978" y="1266" type="qcurve" smooth="yes"/>
      <point x="910" y="1307" type="line" smooth="yes"/>
      <point x="899" y="1313"/>
      <point x="888" y="1313" type="qcurve" smooth="yes"/>
      <point x="864" y="1313"/>
      <point x="840" y="1285" type="qcurve" smooth="yes"/>
      <point x="785" y="1225" type="line" smooth="yes"/>
      <point x="729" y="1165"/>
      <point x="671" y="1165" type="qcurve" smooth="yes"/>
      <point x="592" y="1166"/>
      <point x="537" y="1215" type="qcurve" smooth="yes"/>
      <point x="464" y="1283" type="line" smooth="yes"/>
      <point x="439" y="1307"/>
      <point x="419" y="1307" type="qcurve" smooth="yes"/>
      <point x="406" y="1307"/>
      <point x="395" y="1298" type="qcurve" smooth="yes"/>
      <point x="351" y="1260" type="line" smooth="yes"/>
      <point x="345" y="1254"/>
      <point x="345" y="1245" type="qcurve" smooth="yes"/>
      <point x="345" y="1211"/>
      <point x="438" y="1134" type="qcurve"/>
    </contour>
  </outline>
</glyph>
<glyph name="uni1797" format="1">
  <advance width="1475"/>
  <unicode hex="1797"/>
  <outline>
    <contour>
      <point x="205" y="1127" type="qcurve" smooth="yes"/>
      <point x="205" y="1202" type="line" smooth="yes"/>
      <point x="205" y="1254"/>
      <point x="270" y="1315" type="qcurve" smooth="yes"/>
      <point x="336" y="1376" type="line" smooth="yes"/>
      <point x="467" y="1500"/>
      <point x="499" y="1500" type="qcurve" smooth="yes"/>
      <point x="536" y="1500"/>
      <point x="644" y="1388" type="qcurve" smooth="yes"/>
      <point x="698" y="1332" type="line" smooth="yes"/>
      <point x="725" y="1303"/>
      <point x="755" y="1303" type="qcurve" smooth="yes"/>
      <point x="780" y="1303"/>
      <point x="806" y="1332" type="qcurve" smooth="yes"/>
      <point x="856" y="1388" type="line" smooth="yes"/>
      <point x="957" y="1500"/>
      <point x="993" y="1500" type="qcurve" smooth="yes"/>
      <point x="1028" y="1500"/>
      <point x="1085" y="1438" type="qcurve" smooth="yes"/>
      <point x="1203" y="1313" type="line" smooth="yes"/>
      <point x="1238" y="1276"/>
      <point x="1274" y="1276" type="qcurve" smooth="yes"/>
      <point x="1300" y="1276"/>
      <point x="1325" y="1294" type="qcurve"/>
      <point x="1255" y="1127"/>
      <point x="1190" y="1127" type="qcurve" smooth="yes"/>
      <point x="1122" y="1127"/>
      <point x="1086" y="1166" type="qcurve" smooth="yes"/>
      <point x="1008" y="1247" type="line" smooth="yes"/>
      <point x="968" y="1288"/>
      <point x="935" y="1288" type="qcurve" smooth="yes"/>
      <point x="892" y="1288"/>
      <point x="834" y="1208" type="qcurve" smooth="yes"/>
      <point x="775" y="1127"/>
      <point x="725" y="1127" type="qcurve" smooth="yes"/>
      <point x="653" y="1127"/>
      <point x="567" y="1208" type="qcurve" smooth="yes"/>
      <point x="523" y="1248" type="line" smooth="yes"/>
      <point x="480" y="1288"/>
      <point x="442" y="1288" type="qcurve" smooth="yes"/>
      <point x="399" y="1288"/>
      <point x="377" y="1251" type="qcurve" smooth="yes"/>
      <point x="355" y="1214"/>
      <point x="355" y="1178" type="qcurve" smooth="yes"/>
      <point x="355" y="1128"/>
      <point x="492" y="1058" type="qcurve"/>
      <point x="363" y="967" type="line"/>
      <point x="205" y="1028"/>
    </contour>
    <contour>
      <point x="275" y="361" type="line"/>
      <point x="255" y="361"/>
      <point x="240" y="351" type="qcurve" smooth="yes"/>
      <point x="225" y="340"/>
      <point x="225" y="315" type="qcurve" smooth="yes"/>
      <point x="225" y="284"/>
      <point x="275" y="234" type="qcurve"/>
    </contour>
    <contour>
      <point x="463" y="0" type="line"/>
      <point x="275" y="0" type="line"/>
      <point x="209" y="95" type="line" smooth="yes"/>
      <point x="144" y="189"/>
      <point x="122" y="239" type="qcurve" smooth="yes"/>
      <point x="100" y="288"/>
      <point x="100" y="345" type="qcurve" smooth="yes"/>
      <point x="100" y="400"/>
      <point x="138" y="450" type="qcurve" smooth="yes"/>
      <point x="175" y="500"/>
      <point x="275" y="500" type="qcurve"/>
      <point x="275" y="750" type="line" smooth="yes"/>
      <point x="275" y="850"/>
      <point x="400" y="950" type="qcurve" smooth="yes"/>
      <point x="525" y="1050"/>
      <point x="725" y="1050" type="qcurve" smooth="yes"/>
      <point x="775" y="1050" type="line" smooth="yes"/>
      <point x="975" y="1050"/>
      <point x="1100" y="950" type="qcurve" smooth="yes"/>
      <point x="1225" y="850"/>
      <point x="1225" y="750" type="qcurve" smooth="yes"/>
      <point x="1225" y="0" type="line"/>
      <point x="1037" y="0" type="line"/>
      <point x="1037" y="750" type="line" smooth="yes"/>
      <point x="1037" y="808"/>
      <point x="959" y="857" type="qcurve" smooth="yes"/>
      <point x="881" y="906"/>
      <point x="775" y="906" type="qcurve" smooth="yes"/>
      <point x="725" y="906" type="line" smooth="yes"/>
      <point x="619" y="906"/>
      <point x="541" y="857" type="qcurve" smooth="yes"/>
      <point x="463" y="808"/>
      <point x="463" y="750" type="qcurve" smooth="yes"/>
    </contour>
  </outline>
</glyph>
<glyph name="uni179C" format="1">
  <advance width="713"/>
  <unicode hex="179C"/>
  <outline>
    <contour>
      <point x="275" y="361" type="line"/>
      <point x="255" y="361"/>
      <point x="240" y="351" type="qcurve" smooth="yes"/>
      <point x="225" y="340"/>
      <point x="225" y="315" type="qcurve" smooth="yes"/>
      <point x="225" y="284"/>
      <point x="275" y="234" type="qcurve"/>
    </contour>
    <contour>
      <point x="463" y="0" type="line"/>
      <point x="275" y="0" type="line"/>
      <point x="210" y="95" type="line" smooth="yes"/>
      <point x="144" y="189"/>
      <point x="122" y="239" type="qcurve" smooth="yes"/>
      <point x="100" y="288"/>
      <point x="100" y="345" type="qcurve" smooth="yes"/>
      <point x="100" y="400"/>
      <point x="138" y="450" type="qcurve" smooth="yes"/>
      <point x="175" y="500"/>
      <point x="275" y="500" type="qcurve"/>
      <point x="275" y="993" type="line"/>
      <point x="188" y="1046" type="line" smooth="yes"/>
      <point x="100" y="1099"/>
      <point x="100" y="1131" type="qcurve" smooth="yes"/>
      <point x="100" y="1162"/>
      <point x="254" y="1500" type="qcurve"/>
      <point x="389" y="1368"/>
      <point x="420" y="1368" type="qcurve" smooth="yes"/>
      <point x="423" y="1368" type="line"/>
      <point x="450" y="1376"/>
      <point x="450" y="1440" type="qcurve" smooth="yes"/>
      <point x="450" y="1502"/>
      <point x="354" y="1542" type="qcurve" smooth="yes"/>
      <point x="271" y="1577"/>
      <point x="271" y="1625" type="qcurve" smooth="yes"/>
      <point x="271" y="1633"/>
      <point x="273" y="1641" type="qcurve" smooth="yes"/>
      <point x="288" y="1700"/>
      <point x="356" y="1700" type="qcurve" smooth="yes"/>
      <point x="423" y="1700"/>
      <point x="506" y="1640" type="qcurve" smooth="yes"/>
      <point x="588" y="1580"/>
      <point x="588" y="1440" type="qcurve" smooth="yes"/>
      <point x="588" y="1308"/>
      <point x="538" y="1257" type="qcurve" smooth="yes"/>
      <point x="487" y="1206"/>
      <point x="443" y="1206" type="qcurve" smooth="yes"/>
      <point x="398" y="1206"/>
      <point x="284" y="1275" type="qcurve"/>
      <point x="260" y="1215" type="line"/>
      <point x="463" y="1100" type="line"/>
    </contour>
  </outline>
</glyph>
<glyph name="uni179E" format="1">
  <advance width="1475"/>
  <unicode hex="179E"/>
  <outline>
    <contour>
      <point x="1037" y="744" type="line"/>
      <point x="1037" y="993" type="line"/>
      <point x="950" y="1046" type="line" smooth="yes"/>
      <point x="862" y="1099"/>
      <point x="862" y="1131" type="qcurve" smooth="yes"/>
      <point x="862" y="1162"/>
      <point x="918" y="1247" type="qcurve" smooth="yes"/>
      <point x="1086" y="1500" type="line"/>
      <point x="1194" y="1438" type="line"/>
      <point x="1248" y="1406" type="line" smooth="yes"/>
      <point x="1295" y="1379"/>
      <point x="1328" y="1379" type="qcurve" smooth="yes"/>
      <point x="1334" y="1379"/>
      <point x="1339" y="1380" type="qcurve" smooth="yes"/>
      <point x="1375" y="1385" type="line"/>
      <point x="1375" y="1350"/>
      <point x="1293" y="1222"/>
      <point x="1252" y="1216" type="qcurve" smooth="yes"/>
      <point x="1246" y="1215"/>
      <point x="1239" y="1215" type="qcurve" smooth="yes"/>
      <point x="1201" y="1215"/>
      <point x="1144" y="1249" type="qcurve" smooth="yes"/>
      <point x="1076" y="1288" type="line"/>
      <point x="1033" y="1213" type="line"/>
      <point x="1225" y="1100" type="line"/>
      <point x="1225" y="744" type="line"/>
      <point x="1350" y="744" type="line"/>
      <point x="1350" y="600" type="line"/>
      <point x="1225" y="600" type="line"/>
      <point x="1225" y="300" type="line" smooth="yes"/>
      <point x="1225" y="200"/>
      <point x="1100" y="100" type="qcurve" smooth="yes"/>
      <point x="975" y="0"/>
      <point x="775" y="0" type="qcurve" smooth="yes"/>
      <point x="725" y="0" type="line" smooth="yes"/>
      <point x="525" y="0"/>
      <point x="400" y="100" type="qcurve" smooth="yes"/>
      <point x="275" y="200"/>
      <point x="275" y="300" type="qcurve" smooth="yes"/>
      <point x="275" y="993" type="line"/>
      <point x="188" y="1046" type="line" smooth="yes"/>
      <point x="100" y="1099"/>
      <point x="100" y="1131" type="qcurve" smooth="yes"/>
      <point x="100" y="1162"/>
      <point x="156" y="1247" type="qcurve" smooth="yes"/>
      <point x="324" y="1500" type="line"/>
      <point x="432" y="1438" type="line"/>
      <point x="486" y="1406" type="line" smooth="yes"/>
      <point x="533" y="1379"/>
      <point x="566" y="1379" type="qcurve" smooth="yes"/>
      <point x="572" y="1379"/>
      <point x="577" y="1380" type="qcurve" smooth="yes"/>
      <point x="613" y="1385" type="line"/>
      <point x="613" y="1350"/>
      <point x="531" y="1222"/>
      <point x="490" y="1216" type="qcurve" smooth="yes"/>
      <point x="484" y="1215"/>
      <point x="477" y="1215" type="qcurve" smooth="yes"/>
      <point x="439" y="1215"/>
      <point x="382" y="1249" type="qcurve" smooth="yes"/>
      <point x="314" y="1288" type="line"/>
      <point x="271" y="1213" type="line"/>
      <point x="463" y="1100" type="line"/>
      <point x="463" y="300" type="line" smooth="yes"/>
      <point x="463" y="242"/>
      <point x="541" y="193" type="qcurve" smooth="yes"/>
      <point x="619" y="144"/>
      <point x="725" y="144" type="qcurve" smooth="yes"/>
      <point x="775" y="144" type="line" smooth="yes"/>
      <point x="881" y="144"/>
      <point x="959" y="193" type="qcurve" smooth="yes"/>
      <point x="1037" y="242"/>
      <point x="1037" y="300" type="qcurve" smooth="yes"/>
      <point x="1037" y="600" type="line"/>
      <point x="850" y="600" type="line"/>
      <point x="850" y="744" type="line"/>
    </contour>
  </outline>
</glyph>
<glyph name="uni179F" format="1">
  <advance width="2162"/>
  <unicode hex="179F"/>
  <outline>
    <contour>
      <point x="438" y="234" type="line"/>
      <point x="488" y="284"/>
      <point x="488" y="315" type="qcurve" smooth="yes"/>
      <point x="488" y="340"/>
      <point x="473" y="351" type="qcurve" smooth="yes"/>
      <point x="458" y="361"/>
      <point x="438" y="361" type="qcurve"/>
    </contour>
    <contour>
      <point x="492" y="1016" type="qcurve"/>
      <point x="420" y="1049" type="line" smooth="yes"/>
      <point x="300" y="1104"/>
      <point x="300" y="1131" type="qcurve" smooth="yes"/>
      <point x="300" y="1162"/>
      <point x="376" y="1247" type="qcurve" smooth="yes"/>
      <point x="605" y="1500" type="line"/>
      <point x="826" y="1400" type="line" smooth="yes"/>
      <point x="884" y="1373"/>
      <point x="927" y="1373" type="qcurve" smooth="yes"/>
      <point x="939" y="1373"/>
      <point x="950" y="1375" type="qcurve" smooth="yes"/>
      <point x="1000" y="1385" type="line"/>
      <point x="1000" y="1350"/>
      <point x="967" y="1289" type="qcurve" smooth="yes"/>
      <point x="933" y="1228"/>
      <point x="878" y="1211" type="qcurve" smooth="yes"/>
      <point x="859" y="1205"/>
      <point x="838" y="1205" type="qcurve" smooth="yes"/>
      <point x="797" y="1205"/>
      <point x="747" y="1228" type="qcurve" smooth="yes"/>
      <point x="592" y="1299" type="line"/>
      <point x="523" y="1210" type="line"/>
      <point x="727" y="1115" type="line" smooth="yes"/>
      <point x="781" y="1090"/>
      <point x="792" y="1049" type="qcurve"/>
      <point x="963" y="1039"/>
      <point x="1075" y="950" type="qcurve" smooth="yes"/>
      <point x="1200" y="850"/>
      <point x="1200" y="750" type="qcurve" smooth="yes"/>
      <point x="1200" y="300" type="line" smooth="yes"/>
      <point x="1200" y="242"/>
      <point x="1278" y="193" type="qcurve" smooth="yes"/>
      <point x="1356" y="144"/>
      <point x="1462" y="144" type="qcurve" smooth="yes"/>
      <point x="1568" y="144"/>
      <point x="1646" y="193" type="qcurve" smooth="yes"/>
      <point x="1724" y="242"/>
      <point x="1724" y="300" type="qcurve" smooth="yes"/>
      <point x="1724" y="993" type="line"/>
      <point x="1637" y="1046" type="line" smooth="yes"/>
      <point x="1549" y="1099"/>
      <point x="1549" y="1131" type="qcurve" smooth="yes"/>
      <point x="1549" y="1162"/>
      <point x="1605" y="1247" type="qcurve" smooth="yes"/>
      <point x="1773" y="1500" type="line"/>
      <point x="1881" y="1438" type="line"/>
      <point x="1935" y="1406" type="line" smooth="yes"/>
      <point x="1982" y="1379"/>
      <point x="2015" y="1379" type="qcurve" smooth="yes"/>
      <point x="2021" y="1379"/>
      <point x="2026" y="1380" type="qcurve" smooth="yes"/>
      <point x="2062" y="1385" type="line"/>
      <point x="2062" y="1350"/>
      <point x="1980" y="1222"/>
      <point x="1939" y="1216" type="qcurve" smooth="yes"/>
      <point x="1933" y="1215"/>
      <point x="1926" y="1215" type="qcurve" smooth="yes"/>
      <point x="1888" y="1215"/>
      <point x="1831" y="1249" type="qcurve" smooth="yes"/>
      <point x="1763" y="1288" type="line"/>
      <point x="1720" y="1213" type="line"/>
      <point x="1912" y="1100" type="line"/>
      <point x="1912" y="300" type="line" smooth="yes"/>
      <point x="1912" y="200"/>
      <point x="1787" y="100" type="qcurve" smooth="yes"/>
      <point x="1662" y="0"/>
      <point x="1462" y="0" type="qcurve" smooth="yes"/>
      <point x="1262" y="0"/>
      <point x="1137" y="100" type="qcurve" smooth="yes"/>
      <point x="1012" y="200"/>
      <point x="1012" y="300" type="qcurve" smooth="yes"/>
      <point x="1012" y="750" type="line" smooth="yes"/>
      <point x="1012" y="808"/>
      <point x="934" y="857" type="qcurve" smooth="yes"/>
      <point x="856" y="906"/>
      <point x="750" y="906" type="qcurve" smooth="yes"/>
      <point x="700" y="906" type="line" smooth="yes"/>
      <point x="594" y="906"/>
      <point x="516" y="857" type="qcurve" smooth="yes"/>
      <point x="438" y="808"/>
      <point x="438" y="750" type="qcurve" smooth="yes"/>
      <point x="438" y="500" type="line"/>
      <point x="538" y="500"/>
      <point x="575" y="450" type="qcurve" smooth="yes"/>
      <point x="613" y="400"/>
      <point x="613" y="345" type="qcurve" smooth="yes"/>
      <point x="613" y="288"/>
      <point x="591" y="239" type="qcurve" smooth="yes"/>
      <point x="569" y="189"/>
      <point x="504" y="95" type="qcurve" smooth="yes"/>
      <point x="438" y="0" type="line"/>
      <point x="250" y="0" type="line"/>
      <point x="250" y="750" type="line" smooth="yes"/>
      <point x="250" y="850"/>
      <point x="375" y="950" type="qcurve" smooth="yes"/>
      <point x="427" y="992"/>
    </contour>
  </outline>
</glyph>
<glyph name="uni17A0" format="1">
  <advance width="2137"/>
  <unicode hex="17A0"/>
  <outline>
    <contour>
      <point x="1887" y="1114" type="qcurve" smooth="yes"/>
      <point x="1887" y="0" type="line"/>
      <point x="1699" y="0" type="line"/>
      <point x="1699" y="1114" type="line"/>
      <point x="1304" y="1296" type="line" smooth="yes"/>
      <point x="1247" y="1322"/>
      <point x="1216" y="1322" type="qcurve" smooth="yes"/>
      <point x="1145" y="1322"/>
      <point x="1028" y="1186" type="qcurve"/>
      <point x="1175" y="1100" type="line"/>
      <point x="1175" y="300" type="line" smooth="yes"/>
      <point x="1175" y="200"/>
      <point x="1050" y="100" type="qcurve" smooth="yes"/>
      <point x="925" y="0"/>
      <point x="725" y="0" type="qcurve" smooth="yes"/>
      <point x="525" y="0"/>
      <point x="400" y="100" type="qcurve" smooth="yes"/>
      <point x="275" y="200"/>
      <point x="275" y="300" type="qcurve" smooth="yes"/>
      <point x="275" y="993" type="line"/>
      <point x="188" y="1046" type="line" smooth="yes"/>
      <point x="100" y="1099"/>
      <point x="100" y="1131" type="qcurve" smooth="yes"/>
      <point x="100" y="1162"/>
      <point x="156" y="1247" type="qcurve" smooth="yes"/>
      <point x="324" y="1500" type="line"/>
      <point x="432" y="1438" type="line"/>
      <point x="486" y="1406" type="line" smooth="yes"/>
      <point x="533" y="1379"/>
      <point x="566" y="1379" type="qcurve" smooth="yes"/>
      <point x="572" y="1379"/>
      <point x="577" y="1380" type="qcurve" smooth="yes"/>
      <point x="613" y="1385" type="line"/>
      <point x="613" y="1350"/>
      <point x="531" y="1222"/>
      <point x="490" y="1216" type="qcurve" smooth="yes"/>
      <point x="484" y="1215"/>
      <point x="477" y="1215" type="qcurve" smooth="yes"/>
      <point x="439" y="1215"/>
      <point x="382" y="1249" type="qcurve" smooth="yes"/>
      <point x="314" y="1288" type="line"/>
      <point x="271" y="1213" type="line"/>
      <point x="463" y="1100" type="line"/>
      <point x="463" y="300" type="line" smooth="yes"/>
      <point x="463" y="242"/>
      <point x="541" y="193" type="qcurve" smooth="yes"/>
      <point x="619" y="144"/>
      <point x="725" y="144" type="qcurve" smooth="yes"/>
      <point x="831" y="144"/>
      <point x="909" y="193" type="qcurve" smooth="yes"/>
      <point x="987" y="242"/>
      <point x="987" y="300" type="qcurve" smooth="yes"/>
      <point x="987" y="993" type="line"/>
      <point x="900" y="1046" type="line" smooth="yes"/>
      <point x="812" y="1099"/>
      <point x="812" y="1131" type="qcurve" smooth="yes"/>
      <point x="812" y="1162"/>
      <point x="893" y="1247" type="qcurve" smooth="yes"/>
      <point x="1013" y="1373" type="line" smooth="yes"/>
      <point x="1134" y="1500"/>
      <point x="1227" y="1500" type="qcurve" smooth="yes"/>
      <point x="1310" y="1500"/>
      <point x="1382" y="1467" type="qcurve" smooth="yes"/>
      <point x="1779" y="1285" type="line" smooth="yes"/>
      <point x="1887" y="1235"/>
    </contour>
  </outline>
</glyph>
<glyph name="uni17A5" format="1">
  <advance width="1450"/>
  <unicode hex="17A5"/>
  <outline>
    <contour>
      <point x="438" y="234" type="line"/>
      <point x="488" y="284"/>
      <point x="488" y="315" type="qcurve" smooth="yes"/>
      <point x="488" y="340"/>
      <point x="473" y="351" type="qcurve" smooth="yes"/>
      <point x="458" y="361"/>
      <point x="438" y="361" type="qcurve"/>
    </contour>
    <contour>
      <point x="250" y="750" type="line" smooth="yes"/>
      <point x="250" y="850"/>
      <point x="375" y="950" type="qcurve" smooth="yes"/>
      <point x="500" y="1050"/>
      <point x="700" y="1050" type="qcurve" smooth="yes"/>
      <point x="750" y="1050" type="line" smooth="yes"/>
      <point x="950" y="1050"/>
      <point x="1075" y="950" type="qcurve" smooth="yes"/>
      <point x="1200" y="850"/>
      <point x="1200" y="750" type="qcurve" smooth="yes"/>
      <point x="1200" y="0" type="line"/>
      <point x="1012" y="0" type="line"/>
      <point x="1012" y="750" type="line" smooth="yes"/>
      <point x="1012" y="808"/>
      <point x="934" y="857" type="qcurve" smooth="yes"/>
      <point x="856" y="906"/>
      <point x="750" y="906" type="qcurve" smooth="yes"/>
      <point x="700" y="906" type="line" smooth="yes"/>
      <point x="594" y="906"/>
      <point x="516" y="857" type="qcurve" smooth="yes"/>
      <point x="438" y="808"/>
      <point x="438" y="750" type="qcurve" smooth="yes"/>
      <point x="438" y="500" type="line"/>
      <point x="538" y="500"/>
      <point x="575" y="450" type="qcurve" smooth="yes"/>
      <point x="613" y="400"/>
      <point x="613" y="345" type="qcurve" smooth="yes"/>
      <point x="613" y="288"/>
      <point x="591" y="239" type="qcurve" smooth="yes"/>
      <point x="569" y="189"/>
      <point x="504" y="95" type="qcurve" smooth="yes"/>
      <point x="438" y="0" type="line"/>
      <point x="250" y="0" type="line"/>
    </contour>
    <contour>
      <point x="180" y="1127" type="qcurve" smooth="yes"/>
      <point x="180" y="1202" type="line" smooth="yes"/>
      <point x="180" y="1254"/>
      <point x="311" y="1376" type="qcurve" smooth="yes"/>
      <point x="442" y="1500"/>
      <point x="474" y="1500" type="qcurve" smooth="yes"/>
      <point x="511" y="1500"/>
      <point x="619" y="1388" type="qcurve"/>
      <point x="730" y="1280"/>
      <point x="860" y="1280" type="qcurve" smooth="yes"/>
      <point x="962" y="1280"/>
      <point x="1066" y="1350"/>
      <point x="1066" y="1420" type="qcurve" smooth="yes"/>
      <point x="1066" y="1522"/>
      <point x="920" y="1522" type="qcurve" smooth="yes"/>
      <point x="820" y="1522"/>
      <point x="820" y="1615" type="qcurve" smooth="yes"/>
      <point x="820" y="1700"/>
      <point x="920" y="1700" type="qcurve" smooth="yes"/>
      <point x="1050" y="1700"/>
      <point x="1125" y="1619" type="qcurve" smooth="yes"/>
      <point x="1200" y="1538"/>
      <point x="1200" y="1420" type="qcurve" smooth="yes"/>
      <point x="1200" y="1278"/>
      <point x="1115" y="1202" type="qcurve" smooth="yes"/>
      <point x="1029" y="1126"/>
      <point x="860" y="1126" type="qcurve" smooth="yes"/>
      <point x="628" y="1126"/>
      <point x="542" y="1208" type="qcurve" smooth="yes"/>
      <point x="498" y="1248" type="line" smooth="yes"/>
      <point x="455" y="1288"/>
      <point x="427" y="1288" type="qcurve" smooth="yes"/>
      <point x="384" y="1288"/>
      <point x="330" y="1224"/>
      <point x="330" y="1178" type="qcurve" smooth="yes"/>
      <point x="330" y="1128"/>
      <point x="467" y="1058" type="qcurve"/>
      <point x="338" y="967" type="line"/>
      <point x="180" y="1028"/>
    </contour>
  </outline>
</glyph>
<glyph name="uni17A6" format="1">
  <advance width="2137"/>
  <unicode hex="17A6"/>
  <outline>
    <contour>
      <point x="438" y="234" type="line"/>
      <point x="488" y="284"/>
      <point x="488" y="315" type="qcurve" smooth="yes"/>
      <point x="488" y="340"/>
      <point x="473" y="351" type="qcurve" smooth="yes"/>
      <point x="458" y="361"/>
      <point x="438" y="361" type="qcurve"/>
    </contour>
    <contour>
      <point x="1200" y="0" type="line"/>
      <point x="1012" y="0" type="line"/>
      <point x="1012" y="1200" type="line" smooth="yes"/>
      <point x="1012" y="1258"/>
      <point x="934" y="1307" type="qcurve" smooth="yes"/>
      <point x="856" y="1356"/>
      <point x="750" y="1356" type="qcurve" smooth="yes"/>
      <point x="700" y="1356" type="line" smooth="yes"/>
      <point x="594" y="1356"/>
      <point x="516" y="1307" type="qcurve" smooth="yes"/>
      <point x="438" y="1258"/>
      <point x="438" y="1200" type="qcurve" smooth="yes"/>
      <point x="438" y="500" type="line"/>
      <point x="538" y="500"/>
      <point x="575" y="450" type="qcurve" smooth="yes"/>
      <point x="613" y="400"/>
      <point x="613" y="345" type="qcurve" smooth="yes"/>
      <point x="613" y="288"/>
      <point x="591" y="239" type="qcurve" smooth="yes"/>
      <point x="569" y="189"/>
      <point x="504" y="95" type="qcurve" smooth="yes"/>
      <point x="438" y="0" type="line"/>
      <point x="250" y="0" type="line"/>
      <point x="250" y="1200" type="line" smooth="yes"/>
      <point x="250" y="1300"/>
      <point x="375" y="1400" type="qcurve" smooth="yes"/>
      <point x="500" y="1500"/>
      <point x="700" y="1500" type="qcurve" smooth="yes"/>
      <point x="750" y="1500" type="line" smooth="yes"/>
      <point x="950" y="1500"/>
      <point x="1075" y="1400" type="qcurve" smooth="yes"/>
      <point x="1200" y="1300"/>
      <point x="1200" y="1200" type="qcurve" smooth="yes"/>
    </contour>
    <contour>
      <point x="1724" y="993" type="line"/>
      <point x="1637" y="1046" type="line" smooth="yes"/>
      <point x="1549" y="1099"/>
      <point x="1549" y="1131" type="qcurve" smooth="yes"/>
      <point x="1549" y="1162"/>
      <point x="1703" y="1500" type="qcurve"/>
      <point x="1838" y="1368"/>
      <point x="1869" y="1368" type="qcurve" smooth="yes"/>
      <point x="1872" y="1368" type="line"/>
      <point x="1899" y="1376"/>
      <point x="1899" y="1440" type="qcurve" smooth="yes"/>
      <point x="1899" y="1502"/>
      <point x="1803" y="1542" type="qcurve" smooth="yes"/>
      <point x="1720" y="1577"/>
      <point x="1720" y="1625" type="qcurve" smooth="yes"/>
      <point x="1720" y="1633"/>
      <point x="1722" y="1641" type="qcurve" smooth="yes"/>
      <point x="1737" y="1700"/>
      <point x="1805" y="1700" type="qcurve" smooth="yes"/>
      <point x="1872" y="1700"/>
      <point x="1955" y="1640" type="qcurve" smooth="yes"/>
      <point x="2037" y="1580"/>
      <point x="2037" y="1440" type="qcurve" smooth="yes"/>
      <point x="2037" y="1308"/>
      <point x="1987" y="1257" type="qcurve" smooth="yes"/>
      <point x="1936" y="1206"/>
      <point x="1892" y="1206" type="qcurve" smooth="yes"/>
      <point x="1847" y="1206"/>
      <point x="1733" y="1275" type="qcurve"/>
      <point x="1709" y="1215" type="line"/>
      <point x="1912" y="1100" type="line"/>
      <point x="1912" y="-450" type="line" smooth="yes"/>
      <point x="1912" y="-650"/>
      <point x="1675" y="-650" type="qcurve" smooth="yes"/>
      <point x="1200" y="-650" type="line" smooth="yes"/>
      <point x="962" y="-650"/>
      <point x="962" y="-450" type="qcurve" smooth="yes"/>
      <point x="962" y="-350" type="line" smooth="yes"/>
      <point x="962" y="-292"/>
      <point x="884" y="-243" type="qcurve" smooth="yes"/>
      <point x="806" y="-194"/>
      <point x="725" y="-194" type="qcurve" smooth="yes"/>
      <point x="644" y="-194"/>
      <point x="566" y="-243" type="qcurve" smooth="yes"/>
      <point x="488" y="-292"/>
      <point x="488" y="-350" type="qcurve" smooth="yes"/>
      <point x="488" y="-400" type="line"/>
      <point x="578" y="-400"/>
      <point x="606" y="-425" type="qcurve" smooth="yes"/>
      <point x="633" y="-450"/>
      <point x="633" y="-486" type="qcurve" smooth="yes"/>
      <point x="633" y="-562"/>
      <point x="561" y="-606" type="qcurve" smooth="yes"/>
      <point x="488" y="-650"/>
      <point x="424" y="-650" type="qcurve" smooth="yes"/>
      <point x="300" y="-650"/>
      <point x="300" y="-550" type="qcurve" smooth="yes"/>
      <point x="300" y="-350" type="line" smooth="yes"/>
      <point x="300" y="-250"/>
      <point x="425" y="-150" type="qcurve" smooth="yes"/>
      <point x="550" y="-50"/>
      <point x="725" y="-50" type="qcurve" smooth="yes"/>
      <point x="900" y="-50"/>
      <point x="1025" y="-150" type="qcurve" smooth="yes"/>
      <point x="1150" y="-250"/>
      <point x="1150" y="-350" type="qcurve" smooth="yes"/>
      <point x="1150" y="-450" type="line" smooth="yes"/>
      <point x="1150" y="-516"/>
      <point x="1294" y="-516" type="qcurve" smooth="yes"/>
      <point x="1581" y="-516" type="line" smooth="yes"/>
      <point x="1724" y="-516"/>
      <point x="1724" y="-450" type="qcurve" smooth="yes"/>
    </contour>
  </outline>
</glyph>
<glyph name="uni17A7" format="1">
  <advance width="1450"/>
  <unicode hex="17A7"/>
  <outline>
    <contour>
      <point x="438" y="1025" type="qcurve"/>
      <point x="438" y="950" type="line"/>
      <point x="486" y="950"/>
      <point x="486" y="1000" type="qcurve" smooth="yes"/>
      <point x="486" y="1012"/>
      <point x="473" y="1019" type="qcurve" smooth="yes"/>
      <point x="461" y="1025"/>
    </contour>
    <contour>
      <point x="1012" y="1200" type="line" smooth="yes"/>
      <point x="1012" y="1258"/>
      <point x="934" y="1307" type="qcurve" smooth="yes"/>
      <point x="856" y="1356"/>
      <point x="750" y="1356" type="qcurve" smooth="yes"/>
      <point x="700" y="1356" type="line" smooth="yes"/>
      <point x="594" y="1356"/>
      <point x="516" y="1307" type="qcurve" smooth="yes"/>
      <point x="438" y="1258"/>
      <point x="438" y="1200" type="qcurve" smooth="yes"/>
      <point x="438" y="1125" type="line"/>
      <point x="512" y="1125"/>
      <point x="549" y="1094" type="qcurve" smooth="yes"/>
      <point x="586" y="1062"/>
      <point x="586" y="1000" type="qcurve" smooth="yes"/>
      <point x="586" y="850"/>
      <point x="438" y="850" type="qcurve" smooth="yes"/>
      <point x="250" y="850"/>
      <point x="250" y="950" type="qcurve" smooth="yes"/>
      <point x="250" y="1200" type="line" smooth="yes"/>
      <point x="250" y="1300"/>
      <point x="375" y="1400" type="qcurve" smooth="yes"/>
      <point x="500" y="1500"/>
      <point x="700" y="1500" type="qcurve" smooth="yes"/>
      <point x="750" y="1500" type="line" smooth="yes"/>
      <point x="950" y="1500"/>
      <point x="1075" y="1400" type="qcurve" smooth="yes"/>
      <point x="1200" y="1300"/>
      <point x="1200" y="1200" type="qcurve" smooth="yes"/>
      <point x="1200" y="1050" type="line" smooth="yes"/>
      <point x="1200" y="878"/>
      <point x="819" y="681" type="qcurve" smooth="yes"/>
      <point x="438" y="485" type="line"/>
      <point x="438" y="250" type="line" smooth="yes"/>
      <point x="438" y="197"/>
      <point x="462" y="171" type="qcurve" smooth="yes"/>
      <point x="486" y="144"/>
      <point x="527" y="144" type="qcurve" smooth="yes"/>
      <point x="586" y="144"/>
      <point x="637" y="186" type="qcurve" smooth="yes"/>
      <point x="788" y="312"/>
      <point x="861" y="356" type="qcurve" smooth="yes"/>
      <point x="935" y="400"/>
      <point x="1012" y="400" type="qcurve"/>
      <point x="1012" y="583" type="line"/>
      <point x="1200" y="673" type="line"/>
      <point x="1200" y="50" type="line" smooth="yes"/>
      <point x="1200" y="-100"/>
      <point x="1046" y="-100" type="qcurve" smooth="yes"/>
      <point x="942" y="-100"/>
      <point x="942" y="-28" type="qcurve"/>
      <point x="1012" y="4"/>
      <point x="1012" y="60" type="qcurve" smooth="yes"/>
      <point x="1012" y="266" type="line"/>
      <point x="964" y="266"/>
      <point x="917" y="235" type="qcurve" smooth="yes"/>
      <point x="870" y="203"/>
      <point x="743" y="102" type="qcurve" smooth="yes"/>
      <point x="616" y="0"/>
      <point x="527" y="0" type="qcurve" smooth="yes"/>
      <point x="398" y="0"/>
      <point x="324" y="58" type="qcurve" smooth="yes"/>
      <point x="250" y="117"/>
      <point x="250" y="250" type="qcurve" smooth="yes"/>
      <point x="250" y="550" type="line"/>
      <point x="726" y="795" type="line" smooth="yes"/>
      <point x="1012" y="943"/>
      <point x="1012" y="1050" type="qcurve" smooth="yes"/>
    </contour>
  </outline>
</glyph>
<glyph name="uni17A8" format="1">
  <advance width="1450"/>
  <unicode hex="17A8"/>
  <outline>
    <contour>
      <point x="438" y="1025" type="qcurve"/>
      <point x="438" y="950" type="line"/>
      <point x="486" y="950"/>
      <point x="486" y="1000" type="qcurve" smooth="yes"/>
      <point x="486" y="1012"/>
      <point x="473" y="1019" type="qcurve" smooth="yes"/>
      <point x="461" y="1025"/>
    </contour>
    <contour>
      <point x="1012" y="1200" type="line" smooth="yes"/>
      <point x="1012" y="1258"/>
      <point x="934" y="1307" type="qcurve" smooth="yes"/>
      <point x="856" y="1356"/>
      <point x="750" y="1356" type="qcurve" smooth="yes"/>
      <point x="700" y="1356" type="line" smooth="yes"/>
      <point x="594" y="1356"/>
      <point x="516" y="1307" type="qcurve" smooth="yes"/>
      <point x="438" y="1258"/>
      <point x="438" y="1200" type="qcurve" smooth="yes"/>
      <point x="438" y="1125" type="line"/>
      <point x="512" y="1125"/>
      <point x="549" y="1094" type="qcurve" smooth="yes"/>
      <point x="586" y="1062"/>
      <point x="586" y="1000" type="qcurve" smooth="yes"/>
      <point x="586" y="850"/>
      <point x="438" y="850" type="qcurve" smooth="yes"/>
      <point x="250" y="850"/>
      <point x="250" y="950" type="qcurve" smooth="yes"/>
      <point x="250" y="1200" type="line" smooth="yes"/>
      <point x="250" y="1300"/>
      <point x="375" y="1400" type="qcurve" smooth="yes"/>
      <point x="500" y="1500"/>
      <point x="700" y="1500" type="qcurve" smooth="yes"/>
      <point x="750" y="1500" type="line" smooth="yes"/>
      <point x="950" y="1500"/>
      <point x="1075" y="1400" type="qcurve" smooth="yes"/>
      <point x="1200" y="1300"/>
      <point x="1200" y="1200" type="qcurve" smooth="yes"/>
      <point x="1200" y="1050" type="line" smooth="yes"/>
      <point x="1200" y="878"/>
      <point x="819" y="681" type="qcurve" smooth="yes"/>
      <point x="438" y="485" type="line"/>
      <point x="438" y="250" type="line" smooth="yes"/>
      <point x="438" y="197"/>
      <point x="462" y="171" type="qcurve" smooth="yes"/>
      <point x="486" y="144"/>
      <point x="527" y="144" type="qcurve" smooth="yes"/>
      <point x="586" y="144"/>
      <point x="637" y="186" type="qcurve" smooth="yes"/>
      <point x="788" y="312"/>
      <point x="861" y="356" type="qcurve" smooth="yes"/>
      <point x="935" y="400"/>
      <point x="1012" y="400" type="qcurve"/>
      <point x="1012" y="583" type="line"/>
      <point x="1200" y="673" type="line"/>
      <point x="1200" y="50" type="line" smooth="yes"/>
      <point x="1200" y="-100"/>
      <point x="1046" y="-100" type="qcurve" smooth="yes"/>
      <point x="942" y="-100"/>
      <point x="942" y="-28" type="qcurve"/>
      <point x="1012" y="4"/>
      <point x="1012" y="60" type="qcurve" smooth="yes"/>
      <point x="1012" y="266" type="line"/>
      <point x="964" y="266"/>
      <point x="917" y="235" type="qcurve" smooth="yes"/>
      <point x="870" y="203"/>
      <point x="743" y="102" type="qcurve" smooth="yes"/>
      <point x="616" y="0"/>
      <point x="527" y="0" type="qcurve" smooth="yes"/>
      <point x="398" y="0"/>
      <point x="324" y="58" type="qcurve" smooth="yes"/>
      <point x="250" y="117"/>
      <point x="250" y="250" type="qcurve" smooth="yes"/>
      <point x="250" y="550" type="line"/>
      <point x="726" y="795" type="line" smooth="yes"/>
      <point x="1012" y="943"/>
      <point x="1012" y="1050" type="qcurve" smooth="yes"/>
    </contour>
    <contour>
      <point x="180" y="1577" type="qcurve" smooth="yes"/>
      <point x="180" y="1652" type="line" smooth="yes"/>
      <point x="180" y="1704"/>
      <point x="245" y="1765" type="qcurve" smooth="yes"/>
      <point x="311" y="1826" type="line" smooth="yes"/>
      <point x="442" y="1950"/>
      <point x="474" y="1950" type="qcurve" smooth="yes"/>
      <point x="511" y="1950"/>
      <point x="619" y="1838" type="qcurve" smooth="yes"/>
      <point x="673" y="1782" type="line" smooth="yes"/>
      <point x="700" y="1753"/>
      <point x="730" y="1753" type="qcurve" smooth="yes"/>
      <point x="755" y="1753"/>
      <point x="781" y="1782" type="qcurve" smooth="yes"/>
      <point x="831" y="1838" type="line" smooth="yes"/>
      <point x="932" y="1950"/>
      <point x="968" y="1950" type="qcurve" smooth="yes"/>
      <point x="1003" y="1950"/>
      <point x="1060" y="1888" type="qcurve" smooth="yes"/>
      <point x="1178" y="1763" type="line" smooth="yes"/>
      <point x="1213" y="1726"/>
      <point x="1249" y="1726" type="qcurve" smooth="yes"/>
      <point x="1275" y="1726"/>
      <point x="1300" y="1744" type="qcurve"/>
      <point x="1230" y="1577"/>
      <point x="1165" y="1577" type="qcurve" smooth="yes"/>
      <point x="1097" y="1577"/>
      <point x="1061" y="1616" type="qcurve" smooth="yes"/>
      <point x="983" y="1697" type="line" smooth="yes"/>
      <point x="943" y="1738"/>
      <point x="910" y="1738" type="qcurve" smooth="yes"/>
      <point x="867" y="1738"/>
      <point x="809" y="1658" type="qcurve" smooth="yes"/>
      <point x="750" y="1577"/>
      <point x="700" y="1577" type="qcurve" smooth="yes"/>
      <point x="628" y="1577"/>
      <point x="542" y="1658" type="qcurve" smooth="yes"/>
      <point x="498" y="1698" type="line" smooth="yes"/>
      <point x="455" y="1738"/>
      <point x="417" y="1738" type="qcurve" smooth="yes"/>
      <point x="374" y="1738"/>
      <point x="352" y="1701" type="qcurve" smooth="yes"/>
      <point x="330" y="1664"/>
      <point x="330" y="1628" type="qcurve" smooth="yes"/>
      <point x="330" y="1578"/>
      <point x="467" y="1508" type="qcurve"/>
      <point x="338" y="1417" type="line"/>
      <point x="180" y="1478"/>
    </contour>
  </outline>
</glyph>
<glyph name="uni17AA" format="1">
  <advance width="1450"/>
  <unicode hex="17AA"/>
  <outline>
    <contour>
      <point x="438" y="1025" type="qcurve"/>
      <point x="438" y="950" type="line"/>
      <point x="486" y="950"/>
      <point x="486" y="1000" type="qcurve" smooth="yes"/>
      <point x="486" y="1012"/>
      <point x="473" y="1019" type="qcurve" smooth="yes"/>
      <point x="461" y="1025"/>
    </contour>
    <contour>
      <point x="1012" y="1200" type="line" smooth="yes"/>
      <point x="1012" y="1258"/>
      <point x="934" y="1307" type="qcurve" smooth="yes"/>
      <point x="856" y="1356"/>
      <point x="750" y="1356" type="qcurve" smooth="yes"/>
      <point x="700" y="1356" type="line" smooth="yes"/>
      <point x="594" y="1356"/>
      <point x="516" y="1307" type="qcurve" smooth="yes"/>
      <point x="438" y="1258"/>
      <point x="438" y="1200" type="qcurve" smooth="yes"/>
      <point x="438" y="1125" type="line"/>
      <point x="512" y="1125"/>
      <point x="549" y="1094" type="qcurve" smooth="yes"/>
      <point x="586" y="1062"/>
      <point x="586" y="1000" type="qcurve" smooth="yes"/>
      <point x="586" y="850"/>
      <point x="438" y="850" type="qcurve" smooth="yes"/>
      <point x="250" y="850"/>
      <point x="250" y="950" type="qcurve" smooth="yes"/>
      <point x="250" y="1200" type="line" smooth="yes"/>
      <point x="250" y="1300"/>
      <point x="375" y="1400" type="qcurve" smooth="yes"/>
      <point x="500" y="1500"/>
      <point x="700" y="1500" type="qcurve" smooth="yes"/>
      <point x="750" y="1500" type="line" smooth="yes"/>
      <point x="950" y="1500"/>
      <point x="1075" y="1400" type="qcurve" smooth="yes"/>
      <point x="1200" y="1300"/>
      <point x="1200" y="1200" type="qcurve" smooth="yes"/>
      <point x="1200" y="1050" type="line" smooth="yes"/>
      <point x="1200" y="878"/>
      <point x="819" y="681" type="qcurve" smooth="yes"/>
      <point x="438" y="485" type="line"/>
      <point x="438" y="250" type="line" smooth="yes"/>
      <point x="438" y="197"/>
      <point x="462" y="171" type="qcurve" smooth="yes"/>
      <point x="486" y="144"/>
      <point x="527" y="144" type="qcurve" smooth="yes"/>
      <point x="586" y="144"/>
      <point x="637" y="186" type="qcurve" smooth="yes"/>
      <point x="788" y="312"/>
      <point x="861" y="356" type="qcurve" smooth="yes"/>
      <point x="935" y="400"/>
      <point x="1012" y="400" type="qcurve"/>
      <point x="1012" y="583" type="line"/>
      <point x="1200" y="673" type="line"/>
      <point x="1200" y="50" type="line" smooth="yes"/>
      <point x="1200" y="-100"/>
      <point x="1046" y="-100" type="qcurve" smooth="yes"/>
      <point x="942" y="-100"/>
      <point x="942" y="-28" type="qcurve"/>
      <point x="1012" y="4"/>
      <point x="1012" y="60" type="qcurve" smooth="yes"/>
      <point x="1012" y="266" type="line"/>
      <point x="964" y="266"/>
      <point x="917" y="235" type="qcurve" smooth="yes"/>
      <point x="870" y="203"/>
      <point x="743" y="102" type="qcurve" smooth="yes"/>
      <point x="616" y="0"/>
      <point x="527" y="0" type="qcurve" smooth="yes"/>
      <point x="398" y="0"/>
      <point x="324" y="58" type="qcurve" smooth="yes"/>
      <point x="250" y="117"/>
      <point x="250" y="250" type="qcurve" smooth="yes"/>
      <point x="250" y="550" type="line"/>
      <point x="726" y="795" type="line" smooth="yes"/>
      <point x="1012" y="943"/>
      <point x="1012" y="1050" type="qcurve" smooth="yes"/>
    </contour>
    <contour>
      <point x="180" y="1577" type="qcurve" smooth="yes"/>
      <point x="180" y="1652" type="line" smooth="yes"/>
      <point x="180" y="1704"/>
      <point x="311" y="1826" type="qcurve" smooth="yes"/>
      <point x="442" y="1950"/>
      <point x="474" y="1950" type="qcurve" smooth="yes"/>
      <point x="511" y="1950"/>
      <point x="619" y="1838" type="qcurve"/>
      <point x="730" y="1730"/>
      <point x="860" y="1730" type="qcurve" smooth="yes"/>
      <point x="962" y="1730"/>
      <point x="1066" y="1800"/>
      <point x="1066" y="1870" type="qcurve" smooth="yes"/>
      <point x="1066" y="1972"/>
      <point x="920" y="1972" type="qcurve" smooth="yes"/>
      <point x="820" y="1972"/>
      <point x="820" y="2065" type="qcurve" smooth="yes"/>
      <point x="820" y="2150"/>
      <point x="920" y="2150" type="qcurve" smooth="yes"/>
      <point x="1050" y="2150"/>
      <point x="1125" y="2069" type="qcurve" smooth="yes"/>
      <point x="1200" y="1988"/>
      <point x="1200" y="1870" type="qcurve" smooth="yes"/>
      <point x="1200" y="1728"/>
      <point x="1115" y="1652" type="qcurve" smooth="yes"/>
      <point x="1029" y="1576"/>
      <point x="860" y="1576" type="qcurve" smooth="yes"/>
      <point x="628" y="1576"/>
      <point x="542" y="1658" type="qcurve" smooth="yes"/>
      <point x="498" y="1698" type="line" smooth="yes"/>
      <point x="455" y="1738"/>
      <point x="427" y="1738" type="qcurve" smooth="yes"/>
      <point x="384" y="1738"/>
      <point x="330" y="1674"/>
      <point x="330" y="1628" type="qcurve" smooth="yes"/>
      <point x="330" y="1578"/>
      <point x="467" y="1508" type="qcurve"/>
      <point x="338" y="1417" type="line"/>
      <point x="180" y="1478"/>
    </contour>
  </outline>
</glyph>
<glyph name="uni17AC" format="1">
  <advance width="1475"/>
  <unicode hex="17AC"/>
  <outline>
    <contour>
      <point x="1225" y="-250" type="qcurve" smooth="yes"/>
      <point x="1225" y="-320"/>
      <point x="1190" y="-374" type="qcurve"/>
      <point x="1200" y="-412"/>
      <point x="1246" y="-432" type="qcurve" smooth="yes"/>
      <point x="1292" y="-451"/>
      <point x="1374" y="-451" type="qcurve"/>
      <point x="1374" y="-500"/>
      <point x="1334" y="-525" type="qcurve" smooth="yes"/>
      <point x="1293" y="-550"/>
      <point x="1212" y="-550" type="qcurve" smooth="yes"/>
      <point x="1154" y="-550"/>
      <point x="1111" y="-534" type="qcurve" smooth="yes"/>
      <point x="1069" y="-518"/>
      <point x="1043" y="-487" type="qcurve"/>
      <point x="966" y="-518"/>
      <point x="857" y="-534" type="qcurve" smooth="yes"/>
      <point x="748" y="-550"/>
      <point x="606" y="-550" type="qcurve" smooth="yes"/>
      <point x="452" y="-550"/>
      <point x="344" y="-518" type="qcurve" smooth="yes"/>
      <point x="236" y="-485"/>
      <point x="175" y="-420" type="qcurve"/>
      <point x="360" y="-450"/>
      <point x="608" y="-450" type="qcurve" smooth="yes"/>
      <point x="828" y="-450"/>
      <point x="939" y="-400" type="qcurve" smooth="yes"/>
      <point x="1049" y="-350"/>
      <point x="1049" y="-250" type="qcurve" smooth="yes"/>
      <point x="1049" y="-200"/>
      <point x="974" y="-200" type="qcurve"/>
      <point x="974" y="-150"/>
      <point x="1006" y="-125" type="qcurve" smooth="yes"/>
      <point x="1038" y="-100"/>
      <point x="1101" y="-100" type="qcurve" smooth="yes"/>
      <point x="1163" y="-100"/>
      <point x="1194" y="-138" type="qcurve" smooth="yes"/>
      <point x="1225" y="-175"/>
    </contour>
    <contour>
      <point x="1037" y="993" type="line"/>
      <point x="950" y="1046" type="line" smooth="yes"/>
      <point x="862" y="1099"/>
      <point x="862" y="1131" type="qcurve" smooth="yes"/>
      <point x="862" y="1162"/>
      <point x="918" y="1247" type="qcurve" smooth="yes"/>
      <point x="1086" y="1500" type="line"/>
      <point x="1194" y="1438" type="line"/>
      <point x="1248" y="1406" type="line" smooth="yes"/>
      <point x="1295" y="1379"/>
      <point x="1328" y="1379" type="qcurve" smooth="yes"/>
      <point x="1334" y="1379"/>
      <point x="1339" y="1380" type="qcurve" smooth="yes"/>
      <point x="1375" y="1385" type="line"/>
      <point x="1375" y="1350"/>
      <point x="1293" y="1222"/>
      <point x="1252" y="1216" type="qcurve" smooth="yes"/>
      <point x="1246" y="1215"/>
      <point x="1239" y="1215" type="qcurve" smooth="yes"/>
      <point x="1201" y="1215"/>
      <point x="1144" y="1249" type="qcurve" smooth="yes"/>
      <point x="1076" y="1288" type="line"/>
      <point x="1033" y="1213" type="line"/>
      <point x="1225" y="1100" type="line"/>
      <point x="1225" y="300" type="line" smooth="yes"/>
      <point x="1225" y="200"/>
      <point x="1100" y="100" type="qcurve" smooth="yes"/>
      <point x="975" y="0"/>
      <point x="775" y="0" type="qcurve" smooth="yes"/>
      <point x="725" y="0" type="line" smooth="yes"/>
      <point x="525" y="0"/>
      <point x="400" y="100" type="qcurve" smooth="yes"/>
      <point x="275" y="200"/>
      <point x="275" y="300" type="qcurve" smooth="yes"/>
      <point x="275" y="993" type="line"/>
      <point x="188" y="1046" type="line" smooth="yes"/>
      <point x="100" y="1099"/>
      <point x="100" y="1131" type="qcurve" smooth="yes"/>
      <point x="100" y="1162"/>
      <point x="156" y="1247" type="qcurve" smooth="yes"/>
      <point x="324" y="1500" type="line"/>
      <point x="432" y="1438" type="line"/>
      <point x="486" y="1406" type="line" smooth="yes"/>
      <point x="533" y="1379"/>
      <point x="566" y="1379" type="qcurve" smooth="yes"/>
      <point x="572" y="1379"/>
      <point x="577" y="1380" type="qcurve" smooth="yes"/>
      <point x="613" y="1385" type="line"/>
      <point x="613" y="1350"/>
      <point x="531" y="1222"/>
      <point x="490" y="1216" type="qcurve" smooth="yes"/>
      <point x="484" y="1215"/>
      <point x="477" y="1215" type="qcurve" smooth="yes"/>
      <point x="439" y="1215"/>
      <point x="382" y="1249" type="qcurve" smooth="yes"/>
      <point x="314" y="1288" type="line"/>
      <point x="271" y="1213" type="line"/>
      <point x="463" y="1100" type="line"/>
      <point x="463" y="300" type="line" smooth="yes"/>
      <point x="463" y="242"/>
      <point x="541" y="193" type="qcurve" smooth="yes"/>
      <point x="619" y="144"/>
      <point x="725" y="144" type="qcurve" smooth="yes"/>
      <point x="775" y="144" type="line" smooth="yes"/>
      <point x="881" y="144"/>
      <point x="959" y="193" type="qcurve" smooth="yes"/>
      <point x="1037" y="242"/>
      <point x="1037" y="300" type="qcurve" smooth="yes"/>
    </contour>
  </outline>
</glyph>
<glyph name="uni17AD" format="1">
  <advance width="1450"/>
  <unicode hex="17AD"/>
  <outline>
    <contour>
      <point x="438" y="222" type="line"/>
      <point x="536" y="312"/>
      <point x="536" y="389" type="qcurve" smooth="yes"/>
      <point x="536" y="429"/>
      <point x="509" y="448" type="qcurve" smooth="yes"/>
      <point x="482" y="466"/>
      <point x="438" y="466" type="qcurve"/>
    </contour>
    <contour>
      <point x="438" y="600" type="line"/>
      <point x="583" y="600"/>
      <point x="627" y="541" type="qcurve" smooth="yes"/>
      <point x="670" y="481"/>
      <point x="670" y="415" type="qcurve" smooth="yes"/>
      <point x="670" y="337"/>
      <point x="630" y="250" type="qcurve" smooth="yes"/>
      <point x="590" y="162"/>
      <point x="514" y="81" type="qcurve" smooth="yes"/>
      <point x="438" y="0" type="line"/>
      <point x="250" y="0" type="line"/>
      <point x="250" y="1062" type="line"/>
      <point x="150" y="1169"/>
      <point x="150" y="1212" type="qcurve" smooth="yes"/>
      <point x="150" y="1255"/>
      <point x="283" y="1378" type="qcurve" smooth="yes"/>
      <point x="415" y="1500"/>
      <point x="461" y="1500" type="qcurve" smooth="yes"/>
      <point x="509" y="1500"/>
      <point x="604" y="1412" type="qcurve" smooth="yes"/>
      <point x="678" y="1340" type="line" smooth="yes"/>
      <point x="684" y="1335"/>
      <point x="692" y="1335" type="qcurve" smooth="yes"/>
      <point x="712" y="1335"/>
      <point x="742" y="1367" type="qcurve" smooth="yes"/>
      <point x="783" y="1412" type="line" smooth="yes"/>
      <point x="866" y="1500"/>
      <point x="918" y="1500" type="qcurve" smooth="yes"/>
      <point x="955" y="1500"/>
      <point x="1016" y="1462" type="qcurve" smooth="yes"/>
      <point x="1078" y="1423" type="line" smooth="yes"/>
      <point x="1200" y="1346"/>
      <point x="1200" y="1169" type="qcurve" smooth="yes"/>
      <point x="1200" y="0" type="line"/>
      <point x="1012" y="0" type="line"/>
      <point x="1012" y="1169" type="line" smooth="yes"/>
      <point x="1012" y="1245"/>
      <point x="978" y="1266" type="qcurve" smooth="yes"/>
      <point x="910" y="1307" type="line" smooth="yes"/>
      <point x="899" y="1313"/>
      <point x="888" y="1313" type="qcurve" smooth="yes"/>
      <point x="864" y="1313"/>
      <point x="840" y="1285" type="qcurve" smooth="yes"/>
      <point x="785" y="1225" type="line" smooth="yes"/>
      <point x="729" y="1165"/>
      <point x="671" y="1165" type="qcurve" smooth="yes"/>
      <point x="592" y="1166"/>
      <point x="537" y="1215" type="qcurve" smooth="yes"/>
      <point x="464" y="1283" type="line" smooth="yes"/>
      <point x="439" y="1307"/>
      <point x="419" y="1307" type="qcurve" smooth="yes"/>
      <point x="406" y="1307"/>
      <point x="395" y="1298" type="qcurve" smooth="yes"/>
      <point x="351" y="1260" type="line" smooth="yes"/>
      <point x="345" y="1254"/>
      <point x="345" y="1245" type="qcurve" smooth="yes"/>
      <point x="345" y="1211"/>
      <point x="438" y="1134" type="qcurve"/>
    </contour>
    <contour>
      <point x="1200" y="-250" type="qcurve" smooth="yes"/>
      <point x="1200" y="-400"/>
      <point x="1045" y="-475" type="qcurve" smooth="yes"/>
      <point x="891" y="-550"/>
      <point x="582" y="-550" type="qcurve" smooth="yes"/>
      <point x="427" y="-550"/>
      <point x="319" y="-518" type="qcurve" smooth="yes"/>
      <point x="211" y="-485"/>
      <point x="150" y="-420" type="qcurve"/>
      <point x="336" y="-450"/>
      <point x="583" y="-450" type="qcurve" smooth="yes"/>
      <point x="804" y="-450"/>
      <point x="915" y="-400" type="qcurve" smooth="yes"/>
      <point x="1025" y="-350"/>
      <point x="1025" y="-250" type="qcurve" smooth="yes"/>
      <point x="1025" y="-225"/>
      <point x="1007" y="-212" type="qcurve" smooth="yes"/>
      <point x="988" y="-200"/>
      <point x="951" y="-200" type="qcurve"/>
      <point x="951" y="-150"/>
      <point x="982" y="-125" type="qcurve" smooth="yes"/>
      <point x="1013" y="-100"/>
      <point x="1075" y="-100" type="qcurve" smooth="yes"/>
      <point x="1138" y="-100"/>
      <point x="1169" y="-138" type="qcurve" smooth="yes"/>
      <point x="1200" y="-175"/>
    </contour>
  </outline>
</glyph>
<glyph name="uni17AE" format="1">
  <advance width="1450"/>
  <unicode hex="17AE"/>
  <outline>
    <contour>
      <point x="438" y="222" type="line"/>
      <point x="536" y="312"/>
      <point x="536" y="389" type="qcurve" smooth="yes"/>
      <point x="536" y="429"/>
      <point x="509" y="448" type="qcurve" smooth="yes"/>
      <point x="482" y="466"/>
      <point x="438" y="466" type="qcurve"/>
    </contour>
    <contour>
      <point x="438" y="600" type="line"/>
      <point x="583" y="600"/>
      <point x="627" y="541" type="qcurve" smooth="yes"/>
      <point x="670" y="481"/>
      <point x="670" y="415" type="qcurve" smooth="yes"/>
      <point x="670" y="337"/>
      <point x="630" y="250" type="qcurve" smooth="yes"/>
      <point x="590" y="162"/>
      <point x="514" y="81" type="qcurve" smooth="yes"/>
      <point x="438" y="0" type="line"/>
      <point x="250" y="0" type="line"/>
      <point x="250" y="1062" type="line"/>
      <point x="150" y="1169"/>
      <point x="150" y="1212" type="qcurve" smooth="yes"/>
      <point x="150" y="1255"/>
      <point x="283" y="1378" type="qcurve" smooth="yes"/>
      <point x="415" y="1500"/>
      <point x="461" y="1500" type="qcurve" smooth="yes"/>
      <point x="509" y="1500"/>
      <point x="604" y="1412" type="qcurve" smooth="yes"/>
      <point x="678" y="1340" type="line" smooth="yes"/>
      <point x="684" y="1335"/>
      <point x="692" y="1335" type="qcurve" smooth="yes"/>
      <point x="712" y="1335"/>
      <point x="742" y="1367" type="qcurve" smooth="yes"/>
      <point x="783" y="1412" type="line" smooth="yes"/>
      <point x="866" y="1500"/>
      <point x="918" y="1500" type="qcurve" smooth="yes"/>
      <point x="955" y="1500"/>
      <point x="1016" y="1462" type="qcurve" smooth="yes"/>
      <point x="1078" y="1423" type="line" smooth="yes"/>
      <point x="1200" y="1346"/>
      <point x="1200" y="1169" type="qcurve" smooth="yes"/>
      <point x="1200" y="0" type="line"/>
      <point x="1012" y="0" type="line"/>
      <point x="1012" y="1169" type="line" smooth="yes"/>
      <point x="1012" y="1245"/>
      <point x="978" y="1266" type="qcurve" smooth="yes"/>
      <point x="910" y="1307" type="line" smooth="yes"/>
      <point x="899" y="1313"/>
      <point x="888" y="1313" type="qcurve" smooth="yes"/>
      <point x="864" y="1313"/>
      <point x="840" y="1285" type="qcurve" smooth="yes"/>
      <point x="785" y="1225" type="line" smooth="yes"/>
      <point x="729" y="1165"/>
      <point x="671" y="1165" type="qcurve" smooth="yes"/>
      <point x="592" y="1166"/>
      <point x="537" y="1215" type="qcurve" smooth="yes"/>
      <point x="464" y="1283" type="line" smooth="yes"/>
      <point x="439" y="1307"/>
      <point x="419" y="1307" type="qcurve" smooth="yes"/>
      <point x="406" y="1307"/>
      <point x="395" y="1298" type="qcurve" smooth="yes"/>
      <point x="351" y="1260" type="line" smooth="yes"/>
      <point x="345" y="1254"/>
      <point x="345" y="1245" type="qcurve" smooth="yes"/>
      <point x="345" y="1211"/>
      <point x="438" y="1134" type="qcurve"/>
    </contour>
    <contour>
      <point x="1200" y="-250" type="qcurve" smooth="yes"/>
      <point x="1200" y="-320"/>
      <point x="1165" y="-374" type="qcurve"/>
      <point x="1175" y="-412"/>
      <point x="1221" y="-432" type="qcurve" smooth="yes"/>
      <point x="1267" y="-451"/>
      <point x="1349" y="-451" type="qcurve"/>
      <point x="1349" y="-500"/>
      <point x="1309" y="-525" type="qcurve" smooth="yes"/>
      <point x="1268" y="-550"/>
      <point x="1187" y="-550" type="qcurve" smooth="yes"/>
      <point x="1129" y="-550"/>
      <point x="1086" y="-534" type="qcurve" smooth="yes"/>
      <point x="1044" y="-518"/>
      <point x="1018" y="-487" type="qcurve"/>
      <point x="941" y="-518"/>
      <point x="832" y="-534" type="qcurve" smooth="yes"/>
      <point x="723" y="-550"/>
      <point x="581" y="-550" type="qcurve" smooth="yes"/>
      <point x="427" y="-550"/>
      <point x="319" y="-518" type="qcurve" smooth="yes"/>
      <point x="211" y="-485"/>
      <point x="150" y="-420" type="qcurve"/>
      <point x="335" y="-450"/>
      <point x="583" y="-450" type="qcurve" smooth="yes"/>
      <point x="803" y="-450"/>
      <point x="914" y="-400" type="qcurve" smooth="yes"/>
      <point x="1024" y="-350"/>
      <point x="1024" y="-250" type="qcurve" smooth="yes"/>
      <point x="1024" y="-200"/>
      <point x="949" y="-200" type="qcurve"/>
      <point x="949" y="-150"/>
      <point x="981" y="-125" type="qcurve" smooth="yes"/>
      <point x="1013" y="-100"/>
      <point x="1076" y="-100" type="qcurve" smooth="yes"/>
      <point x="1138" y="-100"/>
      <point x="1169" y="-138" type="qcurve" smooth="yes"/>
      <point x="1200" y="-175"/>
    </contour>
  </outline>
</glyph>
<glyph name="uni17AF" format="1">
  <advance width="1450"/>
  <unicode hex="17AF"/>
  <outline>
    <contour>
      <point x="250" y="739" type="qcurve"/>
      <point x="250" y="836" type="line"/>
      <point x="210" y="816"/>
      <point x="210" y="785" type="qcurve" smooth="yes"/>
      <point x="210" y="760"/>
      <point x="220" y="750" type="qcurve" smooth="yes"/>
      <point x="230" y="739"/>
    </contour>
    <contour>
      <point x="250" y="600" type="line"/>
      <point x="170" y="600"/>
      <point x="100" y="700"/>
      <point x="100" y="755" type="qcurve" smooth="yes"/>
      <point x="100" y="812"/>
      <point x="139" y="901"/>
      <point x="250" y="1000"/>
      <point x="344" y="1000" type="qcurve" smooth="yes"/>
      <point x="438" y="1000"/>
      <point x="438" y="900" type="qcurve" smooth="yes"/>
      <point x="438" y="186" type="line"/>
      <point x="725" y="423" type="line"/>
      <point x="1012" y="186" type="line"/>
      <point x="1012" y="1124" type="line"/>
      <point x="782" y="1285" type="line" smooth="yes"/>
      <point x="728" y="1322"/>
      <point x="694" y="1322" type="qcurve" smooth="yes"/>
      <point x="623" y="1322"/>
      <point x="506" y="1186" type="qcurve" smooth="yes"/>
      <point x="468" y="1143"/>
      <point x="426" y="1139" type="qcurve"/>
      <point x="417" y="1139" type="line" smooth="yes"/>
      <point x="380" y="1139"/>
      <point x="339" y="1169" type="qcurve" smooth="yes"/>
      <point x="250" y="1244"/>
      <point x="250" y="1360" type="qcurve" smooth="yes"/>
      <point x="250" y="1425"/>
      <point x="300" y="1560"/>
      <point x="300" y="1630" type="qcurve" smooth="yes"/>
      <point x="300" y="1700"/>
      <point x="200" y="1700" type="qcurve"/>
      <point x="200" y="1800"/>
      <point x="300" y="1800" type="qcurve" smooth="yes"/>
      <point x="488" y="1800"/>
      <point x="488" y="1630" type="qcurve" smooth="yes"/>
      <point x="488" y="1545"/>
      <point x="438" y="1430"/>
      <point x="438" y="1360" type="qcurve" smooth="yes"/>
      <point x="438" y="1317" type="line"/>
      <point x="491" y="1373" type="line" smooth="yes"/>
      <point x="612" y="1500"/>
      <point x="705" y="1500" type="qcurve" smooth="yes"/>
      <point x="800" y="1500"/>
      <point x="860" y="1459" type="qcurve" smooth="yes"/>
      <point x="1106" y="1287" type="line" smooth="yes"/>
      <point x="1200" y="1224"/>
      <point x="1200" y="1114" type="qcurve" smooth="yes"/>
      <point x="1200" y="0" type="line"/>
      <point x="1012" y="0" type="line"/>
      <point x="725" y="236" type="line"/>
      <point x="438" y="0" type="line"/>
      <point x="250" y="0" type="line"/>
    </contour>
  </outline>
</glyph>
<glyph name="uni17B0" format="1">
  <advance width="1450"/>
  <unicode hex="17B0"/>
  <outline>
    <contour>
      <point x="1012" y="-129" type="line"/>
      <point x="899" y="-247"/>
      <point x="767" y="-315" type="qcurve"/>
      <point x="866" y="-339" type="line" smooth="yes"/>
      <point x="894" y="-345"/>
      <point x="916" y="-345" type="qcurve" smooth="yes"/>
      <point x="959" y="-345"/>
      <point x="980" y="-323" type="qcurve" smooth="yes"/>
      <point x="1012" y="-290"/>
      <point x="1012" y="-186" type="qcurve" smooth="yes"/>
    </contour>
    <contour>
      <point x="619" y="-494" type="qcurve" smooth="yes"/>
      <point x="646" y="-468"/>
      <point x="646" y="-416" type="qcurve" smooth="yes"/>
      <point x="646" y="-367" type="line"/>
      <point x="531" y="-421"/>
      <point x="445" y="-440" type="qcurve"/>
      <point x="445" y="-470" type="line" smooth="yes"/>
      <point x="445" y="-495"/>
      <point x="479" y="-508" type="qcurve" smooth="yes"/>
      <point x="512" y="-520"/>
      <point x="549" y="-520" type="qcurve" smooth="yes"/>
      <point x="592" y="-520"/>
    </contour>
    <contour>
      <point x="438" y="222" type="line"/>
      <point x="536" y="312"/>
      <point x="536" y="389" type="qcurve" smooth="yes"/>
      <point x="536" y="429"/>
      <point x="509" y="448" type="qcurve" smooth="yes"/>
      <point x="482" y="466"/>
      <point x="438" y="466" type="qcurve"/>
    </contour>
    <contour>
      <point x="654" y="-218" type="qcurve" smooth="yes"/>
      <point x="811" y="-156"/>
      <point x="940" y="-33" type="qcurve"/>
      <point x="1012" y="49" type="line"/>
      <point x="1012" y="1169" type="line" smooth="yes"/>
      <point x="1012" y="1245"/>
      <point x="978" y="1266" type="qcurve" smooth="yes"/>
      <point x="910" y="1307" type="line" smooth="yes"/>
      <point x="899" y="1313"/>
      <point x="888" y="1313" type="qcurve" smooth="yes"/>
      <point x="864" y="1313"/>
      <point x="840" y="1285" type="qcurve" smooth="yes"/>
      <point x="785" y="1225" type="line" smooth="yes"/>
      <point x="729" y="1165"/>
      <point x="671" y="1165" type="qcurve" smooth="yes"/>
      <point x="592" y="1166"/>
      <point x="537" y="1215" type="qcurve" smooth="yes"/>
      <point x="464" y="1283" type="line" smooth="yes"/>
      <point x="439" y="1307"/>
      <point x="419" y="1307" type="qcurve" smooth="yes"/>
      <point x="406" y="1307"/>
      <point x="395" y="1298" type="qcurve" smooth="yes"/>
      <point x="351" y="1260" type="line" smooth="yes"/>
      <point x="345" y="1254"/>
      <point x="345" y="1245" type="qcurve" smooth="yes"/>
      <point x="345" y="1211"/>
      <point x="438" y="1134" type="qcurve"/>
      <point x="438" y="600" type="line"/>
      <point x="583" y="600"/>
      <point x="627" y="541" type="qcurve" smooth="yes"/>
      <point x="670" y="481"/>
      <point x="670" y="415" type="qcurve" smooth="yes"/>
      <point x="670" y="337"/>
      <point x="630" y="250" type="qcurve" smooth="yes"/>
      <point x="590" y="162"/>
      <point x="514" y="81" type="qcurve" smooth="yes"/>
      <point x="438" y="0" type="line"/>
      <point x="250" y="0" type="line"/>
      <point x="250" y="1062" type="line"/>
      <point x="150" y="1169"/>
      <point x="150" y="1212" type="qcurve" smooth="yes"/>
      <point x="150" y="1255"/>
      <point x="283" y="1378" type="qcurve" smooth="yes"/>
      <point x="415" y="1500"/>
      <point x="461" y="1500" type="qcurve" smooth="yes"/>
      <point x="509" y="1500"/>
      <point x="604" y="1412" type="qcurve" smooth="yes"/>
      <point x="678" y="1340" type="line" smooth="yes"/>
      <point x="684" y="1335"/>
      <point x="692" y="1335" type="qcurve" smooth="yes"/>
      <point x="712" y="1335"/>
      <point x="742" y="1367" type="qcurve" smooth="yes"/>
      <point x="783" y="1412" type="line" smooth="yes"/>
      <point x="866" y="1500"/>
      <point x="918" y="1500" type="qcurve" smooth="yes"/>
      <point x="955" y="1500"/>
      <point x="1016" y="1462" type="qcurve" smooth="yes"/>
      <point x="1078" y="1423" type="line" smooth="yes"/>
      <point x="1200" y="1346"/>
      <point x="1200" y="1169" type="qcurve" smooth="yes"/>
      <point x="1200" y="-186" type="line" smooth="yes"/>
      <point x="1200" y="-360"/>
      <point x="1116" y="-431" type="qcurve" smooth="yes"/>
      <point x="1060" y="-478"/>
      <point x="966" y="-478" type="qcurve" smooth="yes"/>
      <point x="920" y="-478"/>
      <point x="865" y="-467" type="qcurve" smooth="yes"/>
      <point x="784" y="-449" type="line"/>
      <point x="784" y="-550"/>
      <point x="728" y="-600" type="qcurve" smooth="yes"/>
      <point x="672" y="-650"/>
      <point x="559" y="-650" type="qcurve" smooth="yes"/>
      <point x="404" y="-650"/>
      <point x="327" y="-612" type="qcurve" smooth="yes"/>
      <point x="250" y="-575"/>
      <point x="250" y="-500" type="qcurve" smooth="yes"/>
      <point x="250" y="-356"/>
      <point x="309" y="-333" type="qcurve"/>
      <point x="496" y="-281"/>
    </contour>
  </outline>
</glyph>
<glyph name="uni17B1" format="1">
  <advance width="1450"/>
  <unicode hex="17B1"/>
  <outline>
    <contour>
      <point x="438" y="1025" type="qcurve"/>
      <point x="438" y="950" type="line"/>
      <point x="486" y="950"/>
      <point x="486" y="1000" type="qcurve" smooth="yes"/>
      <point x="486" y="1012"/>
      <point x="473" y="1019" type="qcurve" smooth="yes"/>
      <point x="461" y="1025"/>
    </contour>
    <contour>
      <point x="1012" y="1200" type="line" smooth="yes"/>
      <point x="1012" y="1258"/>
      <point x="934" y="1307" type="qcurve" smooth="yes"/>
      <point x="856" y="1356"/>
      <point x="750" y="1356" type="qcurve" smooth="yes"/>
      <point x="700" y="1356" type="line" smooth="yes"/>
      <point x="594" y="1356"/>
      <point x="516" y="1307" type="qcurve" smooth="yes"/>
      <point x="438" y="1258"/>
      <point x="438" y="1200" type="qcurve" smooth="yes"/>
      <point x="438" y="1125" type="line"/>
      <point x="512" y="1125"/>
      <point x="549" y="1094" type="qcurve" smooth="yes"/>
      <point x="586" y="1062"/>
      <point x="586" y="1000" type="qcurve" smooth="yes"/>
      <point x="586" y="850"/>
      <point x="438" y="850" type="qcurve" smooth="yes"/>
      <point x="250" y="850"/>
      <point x="250" y="950" type="qcurve" smooth="yes"/>
      <point x="250" y="1200" type="line" smooth="yes"/>
      <point x="250" y="1300"/>
      <point x="375" y="1400" type="qcurve" smooth="yes"/>
      <point x="500" y="1500"/>
      <point x="700" y="1500" type="qcurve" smooth="yes"/>
      <point x="750" y="1500" type="line" smooth="yes"/>
      <point x="950" y="1500"/>
      <point x="1075" y="1400" type="qcurve" smooth="yes"/>
      <point x="1200" y="1300"/>
      <point x="1200" y="1200" type="qcurve" smooth="yes"/>
      <point x="1200" y="1050" type="line" smooth="yes"/>
      <point x="1200" y="878"/>
      <point x="819" y="681" type="qcurve" smooth="yes"/>
      <point x="438" y="485" type="line"/>
      <point x="438" y="250" type="line" smooth="yes"/>
      <point x="438" y="197"/>
      <point x="462" y="171" type="qcurve" smooth="yes"/>
      <point x="486" y="144"/>
      <point x="527" y="144" type="qcurve" smooth="yes"/>
      <point x="586" y="144"/>
      <point x="637" y="186" type="qcurve" smooth="yes"/>
      <point x="788" y="312"/>
      <point x="861" y="356" type="qcurve" smooth="yes"/>
      <point x="935" y="400"/>
      <point x="1012" y="400" type="qcurve"/>
      <point x="1012" y="583" type="line"/>
      <point x="1200" y="673" type="line"/>
      <point x="1200" y="50" type="line" smooth="yes"/>
      <point x="1200" y="-100"/>
      <point x="1046" y="-100" type="qcurve" smooth="yes"/>
      <point x="942" y="-100"/>
      <point x="942" y="-28" type="qcurve"/>
      <point x="1012" y="4"/>
      <point x="1012" y="60" type="qcurve" smooth="yes"/>
      <point x="1012" y="266" type="line"/>
      <point x="964" y="266"/>
      <point x="917" y="235" type="qcurve" smooth="yes"/>
      <point x="870" y="203"/>
      <point x="743" y="102" type="qcurve" smooth="yes"/>
      <point x="616" y="0"/>
      <point x="527" y="0" type="qcurve" smooth="yes"/>
      <point x="398" y="0"/>
      <point x="324" y="58" type="qcurve" smooth="yes"/>
      <point x="250" y="117"/>
      <point x="250" y="250" type="qcurve" smooth="yes"/>
      <point x="250" y="550" type="line"/>
      <point x="726" y="795" type="line" smooth="yes"/>
      <point x="1012" y="943"/>
      <point x="1012" y="1050" type="qcurve" smooth="yes"/>
    </contour>
    <contour>
      <point x="180" y="1577" type="qcurve" smooth="yes"/>
      <point x="180" y="1652" type="line" smooth="yes"/>
      <point x="180" y="1704"/>
      <point x="245" y="1765" type="qcurve" smooth="yes"/>
      <point x="311" y="1826" type="line"/>
      <point x="452" y="1950"/>
      <point x="700" y="1950" type="qcurve" smooth="yes"/>
      <point x="998" y="1950"/>
      <point x="1178" y="1763" type="qcurve"/>
      <point x="1250" y="1701"/>
      <point x="1250" y="1604" type="qcurve" smooth="yes"/>
      <point x="1250" y="1507"/>
      <point x="1124" y="1435" type="qcurve"/>
      <point x="1127" y="1447"/>
      <point x="1127" y="1461" type="qcurve" smooth="yes"/>
      <point x="1127" y="1534"/>
      <point x="1042" y="1636" type="qcurve"/>
      <point x="910" y="1772"/>
      <point x="700" y="1772" type="qcurve" smooth="yes"/>
      <point x="394" y="1772"/>
      <point x="352" y="1701" type="qcurve" smooth="yes"/>
      <point x="330" y="1664"/>
      <point x="330" y="1628" type="qcurve" smooth="yes"/>
      <point x="330" y="1578"/>
      <point x="467" y="1508" type="qcurve"/>
      <point x="338" y="1417" type="line"/>
      <point x="180" y="1478"/>
    </contour>
  </outline>
</glyph>
<glyph name="uni17B7" format="1">
  <advance width="0"/>
  <unicode hex="17B7"/>
  <outline>
    <contour>
      <point x="-1144" y="1894" type="qcurve" smooth="yes"/>
      <point x="-1144" y="2150"/>
      <point x="-850" y="2150" type="qcurve" smooth="yes"/>
      <point x="-590" y="2150"/>
      <point x="-335" y="1925" type="qcurve" smooth="yes"/>
      <point x="-250" y="1850"/>
      <point x="-250" y="1800" type="qcurve" smooth="yes"/>
      <point x="-250" y="1750"/>
      <point x="-350" y="1750" type="qcurve" smooth="yes"/>
      <point x="-1000" y="1750" type="line" smooth="yes"/>
      <point x="-1144" y="1750"/>
    </contour>
    <contour>
      <point x="-1000" y="1894" type="qcurve"/>
      <point x="-500" y="1894" type="line"/>
      <point x="-597" y="1971"/>
      <point x="-759" y="2016"/>
      <point x="-850" y="2016" type="qcurve" smooth="yes"/>
      <point x="-1000" y="2016"/>
    </contour>
  </outline>
</glyph>
<glyph name="uni17B8" format="1">
  <advance width="0"/>
  <unicode hex="17B8"/>
  <outline>
    <contour>
      <point x="-1000" y="1894" type="qcurve"/>
      <point x="-500" y="1894" type="line"/>
      <point x="-597" y="1971"/>
      <point x="-759" y="2016"/>
      <point x="-850" y="2016" type="qcurve" smooth="yes"/>
      <point x="-1000" y="2016"/>
    </contour>
    <contour>
      <point x="-384" y="1966" type="qcurve"/>
      <point x="-384" y="2250" type="line"/>
      <point x="-250" y="2250" type="line"/>
      <point x="-250" y="1800" type="line" smooth="yes"/>
      <point x="-250" y="1750"/>
      <point x="-350" y="1750" type="qcurve" smooth="yes"/>
      <point x="-1000" y="1750" type="line" smooth="yes"/>
      <point x="-1144" y="1750"/>
      <point x="-1144" y="1894" type="qcurve" smooth="yes"/>
      <point x="-1144" y="2150"/>
      <point x="-850" y="2150" type="qcurve" smooth="yes"/>
      <point x="-614" y="2150"/>
    </contour>
  </outline>
</glyph>
<glyph name="uni17B9" format="1">
  <advance width="0"/>
  <unicode hex="17B9"/>
  <outline>
    <contour>
      <point x="-1050" y="1894" type="qcurve"/>
      <point x="-550" y="1894" type="line"/>
      <point x="-647" y="1971"/>
      <point x="-809" y="2016"/>
      <point x="-900" y="2016" type="qcurve" smooth="yes"/>
      <point x="-1050" y="2016"/>
    </contour>
    <contour>
      <point x="-529" y="2034" type="qcurve"/>
      <point x="-484" y="2006"/>
      <point x="-439" y="1970" type="qcurve"/>
      <point x="-370" y="1976"/>
      <point x="-370" y="2050" type="qcurve" smooth="yes"/>
      <point x="-370" y="2130"/>
      <point x="-450" y="2130" type="qcurve" smooth="yes"/>
      <point x="-530" y="2130"/>
      <point x="-530" y="2050" type="qcurve" smooth="yes"/>
      <point x="-530" y="2042"/>
    </contour>
    <contour>
      <point x="-334" y="1874" type="line"/>
      <point x="-300" y="1832"/>
      <point x="-300" y="1800" type="qcurve" smooth="yes"/>
      <point x="-300" y="1750"/>
      <point x="-400" y="1750" type="qcurve" smooth="yes"/>
      <point x="-1050" y="1750" type="line" smooth="yes"/>
      <point x="-1194" y="1750"/>
      <point x="-1194" y="1894" type="qcurve" smooth="yes"/>
      <point x="-1194" y="2150"/>
      <point x="-900" y="2150" type="qcurve" smooth="yes"/>
      <point x="-772" y="2150"/>
      <point x="-646" y="2096" type="qcurve"/>
      <point x="-646" y="2099" type="line"/>
      <point x="-635" y="2174"/>
      <point x="-586" y="2212" type="qcurve" smooth="yes"/>
      <point x="-536" y="2250"/>
      <point x="-450" y="2250" type="qcurve" smooth="yes"/>
      <point x="-350" y="2250"/>
      <point x="-300" y="2200" type="qcurve" smooth="yes"/>
      <point x="-250" y="2150"/>
      <point x="-250" y="2050" type="qcurve" smooth="yes"/>
      <point x="-250" y="1935"/>
      <point x="-316" y="1886" type="qcurve"/>
    </contour>
  </outline>
</glyph>
<glyph name="uni17BA" format="1">
  <advance width="0"/>
  <unicode hex="17BA"/>
  <outline>
    <contour>
      <point x="-1000" y="1894" type="qcurve"/>
      <point x="-500" y="1894" type="line"/>
      <point x="-597" y="1971"/>
      <point x="-759" y="2016"/>
      <point x="-850" y="2016" type="qcurve" smooth="yes"/>
      <point x="-1000" y="2016"/>
    </contour>
    <contour>
      <point x="-499" y="2047" type="line"/>
      <point x="-441" y="2012"/>
      <point x="-384" y="1966" type="qcurve"/>
      <point x="-384" y="2250" type="line"/>
      <point x="-250" y="2250" type="line"/>
      <point x="-250" y="1800" type="line" smooth="yes"/>
      <point x="-250" y="1750"/>
      <point x="-350" y="1750" type="qcurve" smooth="yes"/>
      <point x="-1000" y="1750" type="line" smooth="yes"/>
      <point x="-1144" y="1750"/>
      <point x="-1144" y="1894" type="qcurve" smooth="yes"/>
      <point x="-1144" y="2150"/>
      <point x="-850" y="2150" type="qcurve" smooth="yes"/>
      <point x="-741" y="2150"/>
      <point x="-634" y="2111" type="qcurve"/>
      <point x="-634" y="2300" type="line"/>
      <point x="-500" y="2300" type="line"/>
      <point x="-500" y="2200" type="line"/>
    </contour>
  </outline>
</glyph>
<glyph name="uni17BB" format="1">
  <advance width="0"/>
  <unicode hex="17BB"/>
  <outline>
    <contour>
      <point x="-250" y="-191" type="qcurve" smooth="yes"/>
      <point x="-250" y="-650" type="line"/>
      <point x="-400" y="-650" type="line"/>
      <point x="-400" y="-283" type="line"/>
      <point x="-480" y="-283"/>
      <point x="-480" y="-191" type="qcurve" smooth="yes"/>
      <point x="-480" y="-100"/>
      <point x="-360" y="-100" type="qcurve" smooth="yes"/>
      <point x="-250" y="-100"/>
    </contour>
  </outline>
</glyph>
<glyph name="uni17BC" format="1">
  <advance width="0"/>
  <unicode hex="17BC"/>
  <outline>
    <contour>
      <point x="-444" y="-650" type="qcurve" smooth="yes"/>
      <point x="-673" y="-650"/>
      <point x="-673" y="-494" type="qcurve" smooth="yes"/>
      <point x="-673" y="-450"/>
      <point x="-654" y="-393" type="qcurve" smooth="yes"/>
      <point x="-604" y="-267" type="line"/>
      <point x="-684" y="-267"/>
      <point x="-684" y="-183" type="qcurve" smooth="yes"/>
      <point x="-684" y="-100"/>
      <point x="-564" y="-100" type="qcurve" smooth="yes"/>
      <point x="-441" y="-100"/>
      <point x="-441" y="-205" type="qcurve" smooth="yes"/>
      <point x="-441" y="-248"/>
      <point x="-462" y="-309" type="qcurve" smooth="yes"/>
      <point x="-503" y="-417" type="line" smooth="yes"/>
      <point x="-514" y="-446"/>
      <point x="-514" y="-466" type="qcurve" smooth="yes"/>
      <point x="-514" y="-519"/>
      <point x="-444" y="-519" type="qcurve" smooth="yes"/>
      <point x="-347" y="-519"/>
      <point x="-284" y="-330" type="qcurve" smooth="yes"/>
      <point x="-212" y="-100"/>
      <point x="-158" y="-100" type="qcurve" smooth="yes"/>
      <point x="-133" y="-100"/>
      <point x="-133" y="-156" type="qcurve" smooth="yes"/>
      <point x="-133" y="-230"/>
      <point x="-171" y="-393" type="qcurve" smooth="yes"/>
      <point x="-229" y="-650"/>
    </contour>
  </outline>
</glyph>
<glyph name="uni17BD" format="1">
  <advance width="0"/>
  <unicode hex="17BD"/>
  <outline>
    <contour>
      <point x="-456" y="-541" type="qcurve"/>
      <point x="-548" y="-650"/>
      <point x="-633" y="-650" type="qcurve" smooth="yes"/>
      <point x="-779" y="-650"/>
      <point x="-779" y="-538" type="qcurve" smooth="yes"/>
      <point x="-779" y="-473"/>
      <point x="-721" y="-371" type="qcurve" smooth="yes"/>
      <point x="-659" y="-267" type="line"/>
      <point x="-743" y="-267"/>
      <point x="-743" y="-183" type="qcurve" smooth="yes"/>
      <point x="-743" y="-100"/>
      <point x="-623" y="-100" type="qcurve" smooth="yes"/>
      <point x="-523" y="-100"/>
      <point x="-493" y="-156" type="qcurve" smooth="yes"/>
      <point x="-483" y="-176"/>
      <point x="-483" y="-201" type="qcurve" smooth="yes"/>
      <point x="-483" y="-247"/>
      <point x="-519" y="-313" type="qcurve" smooth="yes"/>
      <point x="-579" y="-415" type="line" smooth="yes"/>
      <point x="-617" y="-483"/>
      <point x="-617" y="-513" type="qcurve" smooth="yes"/>
      <point x="-617" y="-537"/>
      <point x="-593" y="-537" type="qcurve" smooth="yes"/>
      <point x="-541" y="-537"/>
      <point x="-400" y="-374" type="qcurve"/>
      <point x="-379" y="-537"/>
      <point x="-343" y="-537" type="qcurve" smooth="yes"/>
      <point x="-310" y="-537"/>
      <point x="-286" y="-433" type="qcurve" smooth="yes"/>
      <point x="-211" y="-100"/>
      <point x="-172" y="-100" type="qcurve" smooth="yes"/>
      <point x="-133" y="-100"/>
      <point x="-133" y="-181" type="qcurve" smooth="yes"/>
      <point x="-133" y="-264"/>
      <point x="-150" y="-434" type="qcurve"/>
      <point x="-187" y="-650"/>
      <point x="-303" y="-650" type="qcurve" smooth="yes"/>
      <point x="-416" y="-650"/>
    </contour>
  </outline>
</glyph>
<glyph name="uni17BF" format="1">
  <advance width="688"/>
  <unicode hex="17BF"/>
  <outline>
    <contour>
      <point x="-424" y="1994" type="qcurve"/>
      <point x="76" y="1994" type="line"/>
      <point x="-21" y="2071"/>
      <point x="-183" y="2116"/>
      <point x="-274" y="2116" type="qcurve" smooth="yes"/>
      <point x="-424" y="2116"/>
    </contour>
    <contour>
      <point x="326" y="1947" type="line"/>
      <point x="438" y="1876"/>
      <point x="438" y="1700" type="qcurve" smooth="yes"/>
      <point x="438" y="-400" type="line" smooth="yes"/>
      <point x="438" y="-650"/>
      <point x="-12" y="-650" type="qcurve" smooth="yes"/>
      <point x="-462" y="-650"/>
      <point x="-462" y="-400" type="qcurve" smooth="yes"/>
      <point x="-462" y="-100" type="line"/>
      <point x="-274" y="-100" type="line"/>
      <point x="-274" y="-400" type="line" smooth="yes"/>
      <point x="-274" y="-506"/>
      <point x="-12" y="-506" type="qcurve" smooth="yes"/>
      <point x="250" y="-506"/>
      <point x="250" y="-400" type="qcurve" smooth="yes"/>
      <point x="250" y="1700" type="line" smooth="yes"/>
      <point x="250" y="1850"/>
      <point x="126" y="1850" type="qcurve" smooth="yes"/>
      <point x="-424" y="1850" type="line" smooth="yes"/>
      <point x="-568" y="1850"/>
      <point x="-568" y="1994" type="qcurve" smooth="yes"/>
      <point x="-568" y="2250"/>
      <point x="-274" y="2250" type="qcurve" smooth="yes"/>
      <point x="-165" y="2250"/>
      <point x="-58" y="2211" type="qcurve"/>
      <point x="-58" y="2400" type="line"/>
      <point x="76" y="2400" type="line"/>
      <point x="76" y="2147" type="line"/>
      <point x="135" y="2112"/>
      <point x="192" y="2066" type="qcurve"/>
      <point x="192" y="2350" type="line"/>
      <point x="326" y="2350" type="line"/>
    </contour>
  </outline>
</glyph>
<glyph name="uni17C0" format="1">
  <advance width="688"/>
  <unicode hex="17C0"/>
  <outline>
    <contour>
      <point x="-348" y="1800" type="qcurve"/>
      <point x="-357" y="1800" type="line" smooth="yes"/>
      <point x="-394" y="1800"/>
      <point x="-435" y="1830" type="qcurve" smooth="yes"/>
      <point x="-524" y="1905"/>
      <point x="-524" y="2021" type="qcurve" smooth="yes"/>
      <point x="-524" y="2086"/>
      <point x="-474" y="2221"/>
      <point x="-474" y="2291" type="qcurve" smooth="yes"/>
      <point x="-474" y="2361"/>
      <point x="-574" y="2361" type="qcurve"/>
      <point x="-574" y="2461"/>
      <point x="-474" y="2461" type="qcurve" smooth="yes"/>
      <point x="-286" y="2461"/>
      <point x="-286" y="2291" type="qcurve" smooth="yes"/>
      <point x="-286" y="2206"/>
      <point x="-336" y="2091"/>
      <point x="-336" y="2021" type="qcurve" smooth="yes"/>
      <point x="-336" y="1978" type="line"/>
      <point x="-204" y="2044"/>
      <point x="-24" y="2044" type="qcurve" smooth="yes"/>
      <point x="438" y="2044"/>
      <point x="438" y="1640" type="qcurve" smooth="yes"/>
      <point x="438" y="-400" type="line" smooth="yes"/>
      <point x="438" y="-650"/>
      <point x="-12" y="-650" type="qcurve" smooth="yes"/>
      <point x="-462" y="-650"/>
      <point x="-462" y="-400" type="qcurve" smooth="yes"/>
      <point x="-462" y="-100" type="line"/>
      <point x="-274" y="-100" type="line"/>
      <point x="-274" y="-400" type="line" smooth="yes"/>
      <point x="-274" y="-506"/>
      <point x="-12" y="-506" type="qcurve" smooth="yes"/>
      <point x="250" y="-506"/>
      <point x="250" y="-400" type="qcurve" smooth="yes"/>
      <point x="250" y="1640" type="line" smooth="yes"/>
      <point x="250" y="1900"/>
      <point x="-24" y="1900" type="qcurve" smooth="yes"/>
      <point x="-184" y="1900"/>
      <point x="-245" y="1852" type="qcurve" smooth="yes"/>
      <point x="-306" y="1804"/>
    </contour>
  </outline>
</glyph>
<glyph name="uni17C1" format="1">
  <advance width="713"/>
  <unicode hex="17C1"/>
  <outline>
    <contour>
      <point x="463" y="234" type="line"/>
      <point x="513" y="284"/>
      <point x="513" y="315" type="qcurve" smooth="yes"/>
      <point x="513" y="340"/>
      <point x="498" y="351" type="qcurve" smooth="yes"/>
      <point x="483" y="361"/>
      <point x="463" y="361" type="qcurve"/>
    </contour>
    <contour>
      <point x="275" y="993" type="line"/>
      <point x="188" y="1046" type="line" smooth="yes"/>
      <point x="100" y="1099"/>
      <point x="100" y="1131" type="qcurve" smooth="yes"/>
      <point x="100" y="1162"/>
      <point x="156" y="1247" type="qcurve" smooth="yes"/>
      <point x="324" y="1500" type="line"/>
      <point x="432" y="1438" type="line"/>
      <point x="486" y="1406" type="line" smooth="yes"/>
      <point x="533" y="1379"/>
      <point x="566" y="1379" type="qcurve" smooth="yes"/>
      <point x="572" y="1379"/>
      <point x="577" y="1380" type="qcurve" smooth="yes"/>
      <point x="613" y="1385" type="line"/>
      <point x="613" y="1350"/>
      <point x="531" y="1222"/>
      <point x="490" y="1216" type="qcurve" smooth="yes"/>
      <point x="484" y="1215"/>
      <point x="477" y="1215" type="qcurve" smooth="yes"/>
      <point x="439" y="1215"/>
      <point x="382" y="1249" type="qcurve" smooth="yes"/>
      <point x="314" y="1288" type="line"/>
      <point x="271" y="1213" type="line"/>
      <point x="463" y="1100" type="line"/>
      <point x="463" y="500" type="line"/>
      <point x="538" y="500"/>
      <point x="575" y="450" type="qcurve" smooth="yes"/>
      <point x="613" y="400"/>
      <point x="613" y="345" type="qcurve" smooth="yes"/>
      <point x="613" y="288"/>
      <point x="579" y="179"/>
      <point x="463" y="0" type="qcurve"/>
      <point x="275" y="0" type="line"/>
    </contour>
  </outline>
</glyph>
<glyph name="uni17C2" format="1">
  <advance width="713"/>
  <unicode hex="17C2"/>
  <outline>
    <contour>
      <point x="283" y="1800" type="qcurve"/>
      <point x="228" y="1800"/>
      <point x="228" y="1775" type="qcurve" smooth="yes"/>
      <point x="228" y="1750"/>
      <point x="313" y="1750" type="qcurve" smooth="yes"/>
      <point x="380" y="1750"/>
      <point x="422" y="1798" type="qcurve" smooth="yes"/>
      <point x="463" y="1845"/>
      <point x="463" y="1920" type="qcurve" smooth="yes"/>
      <point x="463" y="1975"/>
      <point x="433" y="2013" type="qcurve" smooth="yes"/>
      <point x="403" y="2050"/>
      <point x="353" y="2050" type="qcurve" smooth="yes"/>
      <point x="263" y="2050"/>
      <point x="263" y="2125" type="qcurve" smooth="yes"/>
      <point x="263" y="2200"/>
      <point x="353" y="2200" type="qcurve" smooth="yes"/>
      <point x="465" y="2200"/>
      <point x="539" y="2128" type="qcurve" smooth="yes"/>
      <point x="613" y="2055"/>
      <point x="613" y="1920" type="qcurve" smooth="yes"/>
      <point x="613" y="1815"/>
      <point x="541" y="1733" type="qcurve" smooth="yes"/>
      <point x="468" y="1650"/>
      <point x="313" y="1650" type="qcurve" smooth="yes"/>
      <point x="201" y="1650"/>
      <point x="132" y="1681" type="qcurve" smooth="yes"/>
      <point x="63" y="1712"/>
      <point x="63" y="1775" type="qcurve" smooth="yes"/>
      <point x="63" y="1838"/>
      <point x="91" y="1869" type="qcurve" smooth="yes"/>
      <point x="118" y="1900"/>
      <point x="173" y="1900" type="qcurve" smooth="yes"/>
      <point x="228" y="1900"/>
      <point x="255" y="1875" type="qcurve" smooth="yes"/>
      <point x="283" y="1850"/>
    </contour>
    <contour>
      <point x="463" y="234" type="line"/>
      <point x="513" y="284"/>
      <point x="513" y="315" type="qcurve" smooth="yes"/>
      <point x="513" y="340"/>
      <point x="498" y="351" type="qcurve" smooth="yes"/>
      <point x="483" y="361"/>
      <point x="463" y="361" type="qcurve"/>
    </contour>
    <contour>
      <point x="275" y="993" type="line"/>
      <point x="188" y="1046" type="line" smooth="yes"/>
      <point x="100" y="1099"/>
      <point x="100" y="1131" type="qcurve" smooth="yes"/>
      <point x="100" y="1162"/>
      <point x="156" y="1247" type="qcurve" smooth="yes"/>
      <point x="324" y="1500" type="line"/>
      <point x="432" y="1438" type="line"/>
      <point x="486" y="1406" type="line" smooth="yes"/>
      <point x="533" y="1379"/>
      <point x="566" y="1379" type="qcurve" smooth="yes"/>
      <point x="572" y="1379"/>
      <point x="577" y="1380" type="qcurve" smooth="yes"/>
      <point x="613" y="1385" type="line"/>
      <point x="613" y="1350"/>
      <point x="531" y="1222"/>
      <point x="490" y="1216" type="qcurve" smooth="yes"/>
      <point x="484" y="1215"/>
      <point x="477" y="1215" type="qcurve" smooth="yes"/>
      <point x="439" y="1215"/>
      <point x="382" y="1249" type="qcurve" smooth="yes"/>
      <point x="314" y="1288" type="line"/>
      <point x="271" y="1213" type="line"/>
      <point x="463" y="1100" type="line"/>
      <point x="463" y="500" type="line"/>
      <point x="538" y="500"/>
      <point x="575" y="450" type="qcurve" smooth="yes"/>
      <point x="613" y="400"/>
      <point x="613" y="345" type="qcurve" smooth="yes"/>
      <point x="613" y="288"/>
      <point x="579" y="179"/>
      <point x="463" y="0" type="qcurve"/>
      <point x="275" y="0" type="line"/>
    </contour>
  </outline>
</glyph>
<glyph name="uni17C3" format="1">
  <advance width="713"/>
  <unicode hex="17C3"/>
  <outline>
    <contour>
      <point x="238" y="1870" type="qcurve" smooth="yes"/>
      <point x="313" y="1870"/>
      <point x="313" y="1800" type="qcurve" smooth="yes"/>
      <point x="313" y="1750"/>
      <point x="363" y="1750" type="qcurve" smooth="yes"/>
      <point x="413" y="1750"/>
      <point x="463" y="1800"/>
      <point x="463" y="1850" type="qcurve" smooth="yes"/>
      <point x="463" y="1920"/>
      <point x="413" y="1970"/>
      <point x="363" y="1970" type="qcurve" smooth="yes"/>
      <point x="313" y="1970" type="line" smooth="yes"/>
      <point x="163" y="1970"/>
      <point x="163" y="2070" type="qcurve" smooth="yes"/>
      <point x="163" y="2150"/>
      <point x="63" y="2150" type="qcurve"/>
      <point x="63" y="2250"/>
      <point x="163" y="2250" type="qcurve" smooth="yes"/>
      <point x="241" y="2250"/>
      <point x="277" y="2205" type="qcurve" smooth="yes"/>
      <point x="313" y="2160"/>
      <point x="313" y="2070" type="qcurve"/>
      <point x="363" y="2070" type="line" smooth="yes"/>
      <point x="501" y="2070"/>
      <point x="557" y="2020" type="qcurve" smooth="yes"/>
      <point x="613" y="1970"/>
      <point x="613" y="1850" type="qcurve" smooth="yes"/>
      <point x="613" y="1750"/>
      <point x="557" y="1700" type="qcurve" smooth="yes"/>
      <point x="501" y="1650"/>
      <point x="363" y="1650" type="qcurve" smooth="yes"/>
      <point x="163" y="1650"/>
      <point x="163" y="1790" type="qcurve" smooth="yes"/>
      <point x="163" y="1870"/>
    </contour>
    <contour>
      <point x="463" y="234" type="line"/>
      <point x="513" y="284"/>
      <point x="513" y="315" type="qcurve" smooth="yes"/>
      <point x="513" y="340"/>
      <point x="498" y="351" type="qcurve" smooth="yes"/>
      <point x="483" y="361"/>
      <point x="463" y="361" type="qcurve"/>
    </contour>
    <contour>
      <point x="275" y="993" type="line"/>
      <point x="188" y="1046" type="line" smooth="yes"/>
      <point x="100" y="1099"/>
      <point x="100" y="1131" type="qcurve" smooth="yes"/>
      <point x="100" y="1162"/>
      <point x="156" y="1247" type="qcurve" smooth="yes"/>
      <point x="324" y="1500" type="line"/>
      <point x="432" y="1438" type="line"/>
      <point x="486" y="1406" type="line" smooth="yes"/>
      <point x="533" y="1379"/>
      <point x="566" y="1379" type="qcurve" smooth="yes"/>
      <point x="572" y="1379"/>
      <point x="577" y="1380" type="qcurve" smooth="yes"/>
      <point x="613" y="1385" type="line"/>
      <point x="613" y="1350"/>
      <point x="531" y="1222"/>
      <point x="490" y="1216" type="qcurve" smooth="yes"/>
      <point x="484" y="1215"/>
      <point x="477" y="1215" type="qcurve" smooth="yes"/>
      <point x="439" y="1215"/>
      <point x="382" y="1249" type="qcurve" smooth="yes"/>
      <point x="314" y="1288" type="line"/>
      <point x="271" y="1213" type="line"/>
      <point x="463" y="1100" type="line"/>
      <point x="463" y="500" type="line"/>
      <point x="538" y="500"/>
      <point x="575" y="450" type="qcurve" smooth="yes"/>
      <point x="613" y="400"/>
      <point x="613" y="345" type="qcurve" smooth="yes"/>
      <point x="613" y="288"/>
      <point x="579" y="179"/>
      <point x="463" y="0" type="qcurve"/>
      <point x="275" y="0" type="line"/>
    </contour>
  </outline>
</glyph>
<glyph name="uni17C4" format="1">
  <advance width="688"/>
  <unicode hex="17C4"/>
  <outline>
    <contour>
      <point x="-250" y="1359" type="qcurve" smooth="yes"/>
      <point x="-250" y="1396"/>
      <point x="-212" y="1422" type="qcurve" smooth="yes"/>
      <point x="-98" y="1500"/>
      <point x="-7" y="1500" type="qcurve" smooth="yes"/>
      <point x="82" y="1500"/>
      <point x="168" y="1433" type="qcurve" smooth="yes"/>
      <point x="360" y="1282" type="line" smooth="yes"/>
      <point x="438" y="1223"/>
      <point x="438" y="1128" type="qcurve" smooth="yes"/>
      <point x="438" y="0" type="line"/>
      <point x="250" y="0" type="line"/>
      <point x="250" y="1128" type="line"/>
      <point x="13" y="1319" type="line" smooth="yes"/>
      <point x="-23" y="1346"/>
      <point x="-51" y="1346" type="qcurve" smooth="yes"/>
      <point x="-68" y="1346"/>
      <point x="-82" y="1336" type="qcurve" smooth="yes"/>
      <point x="-201" y="1253" type="line"/>
      <point x="-250" y="1300"/>
    </contour>
  </outline>
</glyph>
<glyph name="uni17C5" format="1">
  <advance width="688"/>
  <unicode hex="17C5"/>
  <outline>
    <contour>
      <point x="425" y="1200" type="qcurve"/>
      <point x="438" y="1167"/>
      <point x="438" y="1128" type="qcurve" smooth="yes"/>
      <point x="438" y="0" type="line"/>
      <point x="250" y="0" type="line"/>
      <point x="250" y="1128" type="line"/>
      <point x="13" y="1319" type="line" smooth="yes"/>
      <point x="-23" y="1346"/>
      <point x="-51" y="1346" type="qcurve" smooth="yes"/>
      <point x="-68" y="1346"/>
      <point x="-82" y="1336" type="qcurve" smooth="yes"/>
      <point x="-201" y="1253" type="line"/>
      <point x="-250" y="1300"/>
      <point x="-250" y="1359" type="qcurve" smooth="yes"/>
      <point x="-250" y="1396"/>
      <point x="-212" y="1422" type="qcurve" smooth="yes"/>
      <point x="-98" y="1500"/>
      <point x="-7" y="1500" type="qcurve" smooth="yes"/>
      <point x="82" y="1500"/>
      <point x="168" y="1433" type="qcurve" smooth="yes"/>
      <point x="326" y="1309" type="line"/>
      <point x="326" y="1700" type="line" smooth="yes"/>
      <point x="326" y="1800"/>
      <point x="226" y="1800" type="qcurve"/>
      <point x="226" y="1900"/>
      <point x="351" y="1900" type="qcurve" smooth="yes"/>
      <point x="514" y="1900"/>
      <point x="514" y="1700" type="qcurve" smooth="yes"/>
      <point x="514" y="1400" type="line" smooth="yes"/>
      <point x="514" y="1326"/>
    </contour>
  </outline>
</glyph>
<glyph name="uni17C6" format="1">
  <advance width="0"/>
  <unicode hex="17C6"/>
  <outline>
    <contour>
      <point x="-805" y="1875" type="qcurve" smooth="yes"/>
      <point x="-805" y="1825"/>
      <point x="-765" y="1775"/>
      <point x="-725" y="1775" type="qcurve" smooth="yes"/>
      <point x="-685" y="1775"/>
      <point x="-645" y="1825"/>
      <point x="-645" y="1875" type="qcurve" smooth="yes"/>
      <point x="-645" y="1925"/>
      <point x="-685" y="1975"/>
      <point x="-725" y="1975" type="qcurve" smooth="yes"/>
      <point x="-765" y="1975"/>
      <point x="-805" y="1925"/>
    </contour>
    <contour>
      <point x="-500" y="1875" type="qcurve" smooth="yes"/>
      <point x="-500" y="1762"/>
      <point x="-556" y="1706" type="qcurve" smooth="yes"/>
      <point x="-612" y="1650"/>
      <point x="-725" y="1650" type="qcurve" smooth="yes"/>
      <point x="-838" y="1650"/>
      <point x="-894" y="1706" type="qcurve" smooth="yes"/>
      <point x="-950" y="1762"/>
      <point x="-950" y="1875" type="qcurve" smooth="yes"/>
      <point x="-950" y="1988"/>
      <point x="-894" y="2044" type="qcurve" smooth="yes"/>
      <point x="-838" y="2100"/>
      <point x="-725" y="2100" type="qcurve" smooth="yes"/>
      <point x="-612" y="2100"/>
      <point x="-556" y="2044" type="qcurve" smooth="yes"/>
      <point x="-500" y="1988"/>
    </contour>
  </outline>
</glyph>
<glyph name="uni17C8" format="1">
  <advance width="850"/>
  <unicode hex="17C8"/>
  <outline>
    <contour>
      <point x="375" y="150" type="qcurve" smooth="yes"/>
      <point x="312" y="150"/>
      <point x="281" y="181" type="qcurve" smooth="yes"/>
      <point x="250" y="212"/>
      <point x="250" y="275" type="qcurve" smooth="yes"/>
      <point x="250" y="338"/>
      <point x="281" y="369" type="qcurve" smooth="yes"/>
      <point x="312" y="400"/>
      <point x="375" y="400" type="qcurve" smooth="yes"/>
      <point x="438" y="400"/>
      <point x="469" y="368" type="qcurve" smooth="yes"/>
      <point x="500" y="337"/>
      <point x="500" y="274" type="qcurve" smooth="yes"/>
      <point x="500" y="244"/>
      <point x="525" y="244" type="qcurve" smooth="yes"/>
      <point x="550" y="244"/>
      <point x="600" y="274" type="qcurve"/>
      <point x="575" y="212"/>
      <point x="519" y="181" type="qcurve" smooth="yes"/>
      <point x="462" y="150"/>
    </contour>
    <contour>
      <point x="375" y="1098" type="qcurve" smooth="yes"/>
      <point x="312" y="1098"/>
      <point x="281" y="1129" type="qcurve" smooth="yes"/>
      <point x="250" y="1160"/>
      <point x="250" y="1223" type="qcurve" smooth="yes"/>
      <point x="250" y="1286"/>
      <point x="281" y="1317" type="qcurve" smooth="yes"/>
      <point x="312" y="1348"/>
      <point x="375" y="1348" type="qcurve" smooth="yes"/>
      <point x="438" y="1348"/>
      <point x="469" y="1316" type="qcurve" smooth="yes"/>
      <point x="500" y="1285"/>
      <point x="500" y="1222" type="qcurve" smooth="yes"/>
      <point x="500" y="1192"/>
      <point x="525" y="1192" type="qcurve" smooth="yes"/>
      <point x="550" y="1192"/>
      <point x="600" y="1222" type="qcurve"/>
      <point x="575" y="1160"/>
      <point x="519" y="1129" type="qcurve" smooth="yes"/>
      <point x="462" y="1098"/>
    </contour>
  </outline>
</glyph>
<glyph name="uni17C9" format="1">
  <advance width="0"/>
  <unicode hex="17C9"/>
  <outline>
    <contour>
      <point x="-805" y="2100" type="line"/>
      <point x="-805" y="1760" type="line" smooth="yes"/>
      <point x="-805" y="1680"/>
      <point x="-887" y="1650" type="qcurve"/>
      <point x="-970" y="1680"/>
      <point x="-970" y="1760" type="qcurve" smooth="yes"/>
      <point x="-970" y="2100" type="line"/>
    </contour>
    <contour>
      <point x="-480" y="2100" type="line"/>
      <point x="-480" y="1760" type="line" smooth="yes"/>
      <point x="-480" y="1680"/>
      <point x="-562" y="1650" type="qcurve"/>
      <point x="-645" y="1680"/>
      <point x="-645" y="1760" type="qcurve" smooth="yes"/>
      <point x="-645" y="2100" type="line"/>
    </contour>
  </outline>
</glyph>
<glyph name="uni17CA" format="1">
  <advance width="0"/>
  <unicode hex="17CA"/>
  <outline>
    <contour>
      <point x="-1181" y="1610" type="line"/>
      <point x="-1300" y="1650"/>
      <point x="-1300" y="1705" type="qcurve" smooth="yes"/>
      <point x="-1300" y="1742"/>
      <point x="-1235" y="1785" type="qcurve" smooth="yes"/>
      <point x="-1169" y="1828" type="line" smooth="yes"/>
      <point x="-1038" y="1916"/>
      <point x="-1006" y="1916" type="qcurve" smooth="yes"/>
      <point x="-972" y="1916"/>
      <point x="-861" y="1837" type="qcurve" smooth="yes"/>
      <point x="-805" y="1797" type="line" smooth="yes"/>
      <point x="-778" y="1777"/>
      <point x="-750" y="1777" type="qcurve" smooth="yes"/>
      <point x="-725" y="1777"/>
      <point x="-699" y="1797" type="qcurve" smooth="yes"/>
      <point x="-649" y="1837" type="line" smooth="yes"/>
      <point x="-548" y="1916"/>
      <point x="-512" y="1916" type="qcurve" smooth="yes"/>
      <point x="-477" y="1916"/>
      <point x="-420" y="1872" type="qcurve" smooth="yes"/>
      <point x="-306" y="1784" type="line" smooth="yes"/>
      <point x="-273" y="1758"/>
      <point x="-224" y="1758" type="qcurve" smooth="yes"/>
      <point x="-191" y="1758"/>
      <point x="-150" y="1770" type="qcurve"/>
      <point x="-250" y="1652"/>
      <point x="-315" y="1652" type="qcurve" smooth="yes"/>
      <point x="-381" y="1652"/>
      <point x="-417" y="1680" type="qcurve" smooth="yes"/>
      <point x="-490" y="1737" type="line" smooth="yes"/>
      <point x="-527" y="1766"/>
      <point x="-570" y="1766" type="qcurve" smooth="yes"/>
      <point x="-613" y="1766"/>
      <point x="-681" y="1709" type="qcurve" smooth="yes"/>
      <point x="-750" y="1652"/>
      <point x="-790" y="1652" type="qcurve" smooth="yes"/>
      <point x="-857" y="1652"/>
      <point x="-898" y="1680" type="qcurve" smooth="yes"/>
      <point x="-979" y="1737" type="line" smooth="yes"/>
      <point x="-1020" y="1766"/>
      <point x="-1063" y="1766" type="qcurve" smooth="yes"/>
      <point x="-1096" y="1766"/>
      <point x="-1123" y="1745" type="qcurve" smooth="yes"/>
      <point x="-1150" y="1724"/>
      <point x="-1150" y="1698" type="qcurve" smooth="yes"/>
      <point x="-1150" y="1674"/>
      <point x="-1076" y="1644" type="qcurve"/>
    </contour>
  </outline>
</glyph>
<glyph name="uni17CB" format="1">
  <advance width="0"/>
  <unicode hex="17CB"/>
  <outline>
    <contour>
      <point x="-630" y="2150" type="line"/>
      <point x="-630" y="1770" type="line" smooth="yes"/>
      <point x="-630" y="1680"/>
      <point x="-715" y="1650" type="qcurve"/>
      <point x="-800" y="1680"/>
      <point x="-800" y="1770" type="qcurve" smooth="yes"/>
      <point x="-800" y="2150" type="line"/>
    </contour>
  </outline>
</glyph>
<glyph name="uni17CC" format="1">
  <advance width="0"/>
  <unicode hex="17CC"/>
  <outline>
    <contour>
      <point x="-801" y="1766" type="qcurve" smooth="yes"/>
      <point x="-844" y="1747"/>
      <point x="-905" y="1699" type="qcurve" smooth="yes"/>
      <point x="-966" y="1650"/>
      <point x="-1004" y="1650" type="qcurve" smooth="yes"/>
      <point x="-1036" y="1650"/>
      <point x="-1056" y="1677" type="qcurve" smooth="yes"/>
      <point x="-1069" y="1696"/>
      <point x="-1069" y="1715" type="qcurve" smooth="yes"/>
      <point x="-1069" y="1776"/>
      <point x="-1005" y="1821" type="qcurve" smooth="yes"/>
      <point x="-911" y="1885" type="line" smooth="yes"/>
      <point x="-769" y="1982"/>
      <point x="-706" y="2132"/>
      <point x="-706" y="2175" type="qcurve" smooth="yes"/>
      <point x="-706" y="2275"/>
      <point x="-621" y="2275" type="qcurve" smooth="yes"/>
      <point x="-537" y="2275"/>
      <point x="-537" y="2175" type="qcurve" smooth="yes"/>
      <point x="-538" y="2102"/>
      <point x="-602" y="1986"/>
      <point x="-740" y="1876" type="qcurve"/>
      <point x="-671" y="1901"/>
      <point x="-609" y="1901" type="qcurve" smooth="yes"/>
      <point x="-578" y="1901"/>
      <point x="-549" y="1895" type="qcurve" smooth="yes"/>
      <point x="-462" y="1876"/>
      <point x="-401" y="1784" type="qcurve" smooth="yes"/>
      <point x="-381" y="1749"/>
      <point x="-381" y="1722" type="qcurve" smooth="yes"/>
      <point x="-381" y="1684"/>
      <point x="-419" y="1663" type="qcurve" smooth="yes"/>
      <point x="-440" y="1650"/>
      <point x="-460" y="1650" type="qcurve" smooth="yes"/>
      <point x="-498" y="1650"/>
      <point x="-528" y="1700" type="qcurve" smooth="yes"/>
      <point x="-572" y="1775"/>
      <point x="-640" y="1785" type="qcurve"/>
      <point x="-758" y="1785"/>
    </contour>
  </outline>
</glyph>
<glyph name="uni17CD" format="1">
  <advance width="0"/>
  <unicode hex="17CD"/>
  <outline>
    <contour>
      <point x="-835" y="1826" type="qcurve" smooth="yes"/>
      <point x="-835" y="1788"/>
      <point x="-823" y="1770" type="qcurve" smooth="yes"/>
      <point x="-810" y="1751"/>
      <point x="-775" y="1751" type="qcurve" smooth="yes"/>
      <point x="-725" y="1751"/>
      <point x="-725" y="1769" type="qcurve" smooth="yes"/>
      <point x="-725" y="1800"/>
      <point x="-655" y="1800" type="qcurve" smooth="yes"/>
      <point x="-585" y="1800"/>
      <point x="-585" y="1769" type="qcurve" smooth="yes"/>
      <point x="-585" y="1710"/>
      <point x="-629" y="1680" type="qcurve" smooth="yes"/>
      <point x="-673" y="1650"/>
      <point x="-770" y="1650" type="qcurve" smooth="yes"/>
      <point x="-897" y="1650"/>
      <point x="-941" y="1694" type="qcurve" smooth="yes"/>
      <point x="-985" y="1738"/>
      <point x="-985" y="1825" type="qcurve" smooth="yes"/>
      <point x="-985" y="1902"/>
      <point x="-940" y="1961" type="qcurve" smooth="yes"/>
      <point x="-895" y="2020"/>
      <point x="-765" y="2020" type="qcurve" smooth="yes"/>
      <point x="-638" y="2020"/>
      <point x="-590" y="1961" type="qcurve"/>
      <point x="-514" y="1986"/>
      <point x="-449" y="2030" type="qcurve" smooth="yes"/>
      <point x="-385" y="2073"/>
      <point x="-343" y="2145" type="qcurve"/>
      <point x="-332" y="2147" type="line" smooth="yes"/>
      <point x="-313" y="2147"/>
      <point x="-290" y="2118" type="qcurve" smooth="yes"/>
      <point x="-275" y="2098"/>
      <point x="-275" y="2084" type="qcurve" smooth="yes"/>
      <point x="-275" y="2070"/>
      <point x="-287" y="2060" type="qcurve" smooth="yes"/>
      <point x="-332" y="1997"/>
      <point x="-392" y="1947" type="qcurve" smooth="yes"/>
      <point x="-453" y="1898"/>
      <point x="-528" y="1861" type="qcurve"/>
      <point x="-564" y="1850"/>
      <point x="-598" y="1850" type="qcurve"/>
      <point x="-672" y="1920"/>
      <point x="-735" y="1920" type="qcurve" smooth="yes"/>
      <point x="-780" y="1920"/>
      <point x="-807" y="1892" type="qcurve" smooth="yes"/>
      <point x="-835" y="1863"/>
    </contour>
  </outline>
</glyph>
<glyph name="uni17CE" format="1">
  <advance width="0"/>
  <unicode hex="17CE"/>
  <outline>
    <contour>
      <point x="-785" y="1799" type="line"/>
      <point x="-935" y="1799" type="line"/>
      <point x="-935" y="1920" type="line"/>
      <point x="-785" y="1920" type="line"/>
      <point x="-785" y="2069" type="line"/>
      <point x="-665" y="2069" type="line"/>
      <point x="-665" y="1920" type="line"/>
      <point x="-515" y="1920" type="line"/>
      <point x="-515" y="1799" type="line"/>
      <point x="-665" y="1799" type="line"/>
      <point x="-665" y="1650" type="line"/>
      <point x="-785" y="1650" type="line"/>
    </contour>
  </outline>
</glyph>
<glyph name="uni17CF" format="1">
  <advance width="0"/>
  <unicode hex="17CF"/>
  <outline>
    <contour>
      <point x="-575" y="1650" type="qcurve" smooth="yes"/>
      <point x="-689" y="1650"/>
      <point x="-749" y="1738" type="qcurve"/>
      <point x="-828" y="1650"/>
      <point x="-900" y="1650" type="qcurve"/>
      <point x="-1075" y="1681"/>
      <point x="-1075" y="1877" type="qcurve"/>
      <point x="-944" y="2131"/>
      <point x="-725" y="2131" type="qcurve"/>
      <point x="-675" y="2190"/>
      <point x="-525" y="2254"/>
      <point x="-436" y="2254" type="qcurve" smooth="yes"/>
      <point x="-375" y="2254"/>
      <point x="-375" y="2202" type="qcurve" smooth="yes"/>
      <point x="-375" y="2140"/>
      <point x="-435" y="2140" type="qcurve" smooth="yes"/>
      <point x="-478" y="2140"/>
      <point x="-533" y="2125" type="qcurve" smooth="yes"/>
      <point x="-588" y="2109"/>
      <point x="-611" y="2060" type="qcurve" smooth="yes"/>
      <point x="-635" y="2011"/>
      <point x="-728" y="2011" type="qcurve" smooth="yes"/>
      <point x="-828" y="2011"/>
      <point x="-926" y="1865" type="qcurve"/>
      <point x="-917" y="1792"/>
      <point x="-887" y="1770" type="qcurve"/>
      <point x="-825" y="1771"/>
      <point x="-734" y="1903" type="qcurve"/>
      <point x="-654" y="1770"/>
      <point x="-575" y="1770" type="qcurve" smooth="yes"/>
      <point x="-548" y="1770"/>
      <point x="-548" y="1810" type="qcurve" smooth="yes"/>
      <point x="-548" y="1850"/>
      <point x="-596" y="1850" type="qcurve" smooth="yes"/>
      <point x="-625" y="1850"/>
      <point x="-625" y="1900" type="qcurve" smooth="yes"/>
      <point x="-625" y="1950"/>
      <point x="-578" y="1950" type="qcurve" smooth="yes"/>
      <point x="-426" y="1950"/>
      <point x="-426" y="1810" type="qcurve" smooth="yes"/>
      <point x="-426" y="1650"/>
    </contour>
  </outline>
</glyph>
<glyph name="uni17D0" format="1">
  <advance width="0"/>
  <unicode hex="17D0"/>
  <outline>
    <contour>
      <point x="-780" y="2000" type="qcurve" smooth="yes"/>
      <point x="-650" y="2000"/>
      <point x="-650" y="1895" type="qcurve" smooth="yes"/>
      <point x="-650" y="1800"/>
      <point x="-725" y="1800" type="qcurve" smooth="yes"/>
      <point x="-790" y="1800"/>
      <point x="-800" y="1850" type="qcurve"/>
      <point x="-800" y="1751"/>
      <point x="-700" y="1751" type="qcurve" smooth="yes"/>
      <point x="-525" y="1751"/>
      <point x="-462" y="1804" type="qcurve" smooth="yes"/>
      <point x="-400" y="1857"/>
      <point x="-400" y="1963" type="qcurve" smooth="yes"/>
      <point x="-400" y="2083"/>
      <point x="-450" y="2083" type="qcurve" smooth="yes"/>
      <point x="-500" y="2083"/>
      <point x="-500" y="2133" type="qcurve" smooth="yes"/>
      <point x="-500" y="2183"/>
      <point x="-450" y="2183" type="qcurve" smooth="yes"/>
      <point x="-375" y="2183"/>
      <point x="-312" y="2128" type="qcurve" smooth="yes"/>
      <point x="-250" y="2073"/>
      <point x="-250" y="1963" type="qcurve" smooth="yes"/>
      <point x="-250" y="1806"/>
      <point x="-362" y="1728" type="qcurve" smooth="yes"/>
      <point x="-475" y="1650"/>
      <point x="-700" y="1650" type="qcurve" smooth="yes"/>
      <point x="-825" y="1650"/>
      <point x="-888" y="1700" type="qcurve" smooth="yes"/>
      <point x="-950" y="1750"/>
      <point x="-950" y="1850" type="qcurve" smooth="yes"/>
      <point x="-950" y="2000"/>
    </contour>
  </outline>
</glyph>
<glyph name="uni17D1" format="1">
  <advance width="0"/>
  <unicode hex="17D1"/>
  <outline>
    <contour>
      <point x="-250" y="1800" type="line"/>
      <point x="-250" y="1650" type="line"/>
      <point x="-1200" y="1650" type="line"/>
      <point x="-1200" y="1800" type="line"/>
    </contour>
  </outline>
</glyph>
<glyph name="uni17D2" format="1">
  <advance width="0"/>
  <unicode hex="17D2"/>
  <outline>
    <contour>
      <point x="-525" y="-450" type="line"/>
      <point x="-675" y="-450" type="line"/>
      <point x="-675" y="-600" type="line"/>
      <point x="-775" y="-600" type="line"/>
      <point x="-775" y="-450" type="line"/>
      <point x="-925" y="-450" type="line"/>
      <point x="-925" y="-350" type="line"/>
      <point x="-775" y="-350" type="line"/>
      <point x="-775" y="-200" type="line"/>
      <point x="-675" y="-200" type="line"/>
      <point x="-675" y="-350" type="line"/>
      <point x="-525" y="-350" type="line"/>
    </contour>
  </outline>
</glyph>
<glyph name="uni17D3" format="1">
  <advance width="0"/>
  <unicode hex="17D3"/>
  <outline>
    <contour>
      <point x="-875" y="1850" type="qcurve" smooth="yes"/>
      <point x="-875" y="1800"/>
      <point x="-838" y="1775" type="qcurve" smooth="yes"/>
      <point x="-800" y="1750"/>
      <point x="-725" y="1750" type="qcurve" smooth="yes"/>
      <point x="-650" y="1750"/>
      <point x="-612" y="1775" type="qcurve" smooth="yes"/>
      <point x="-575" y="1800"/>
      <point x="-575" y="1850" type="qcurve" smooth="yes"/>
      <point x="-575" y="1900"/>
      <point x="-612" y="1925" type="qcurve" smooth="yes"/>
      <point x="-650" y="1950"/>
      <point x="-725" y="1950" type="qcurve" smooth="yes"/>
      <point x="-800" y="1950"/>
      <point x="-838" y="1925" type="qcurve" smooth="yes"/>
      <point x="-875" y="1900"/>
    </contour>
    <contour>
      <point x="-475" y="1850" type="qcurve" smooth="yes"/>
      <point x="-475" y="1750"/>
      <point x="-538" y="1700" type="qcurve" smooth="yes"/>
      <point x="-600" y="1650"/>
      <point x="-725" y="1650" type="qcurve" smooth="yes"/>
      <point x="-850" y="1650"/>
      <point x="-912" y="1700" type="qcurve" smooth="yes"/>
      <point x="-975" y="1750"/>
      <point x="-975" y="1850" type="qcurve" smooth="yes"/>
      <point x="-975" y="1950"/>
      <point x="-912" y="2000" type="qcurve" smooth="yes"/>
      <point x="-850" y="2050"/>
      <point x="-725" y="2050" type="qcurve" smooth="yes"/>
      <point x="-600" y="2050"/>
      <point x="-538" y="2000" type="qcurve" smooth="yes"/>
      <point x="-475" y="1950"/>
    </contour>
  </outline>
</glyph>
<glyph name="uni17D5" format="1">
  <advance width="1850"/>
  <unicode hex="17D5"/>
  <outline>
    <contour>
      <point x="1450" y="1500" type="line"/>
      <point x="1600" y="1500" type="line"/>
      <point x="1600" y="150" type="line" smooth="yes"/>
      <point x="1600" y="75"/>
      <point x="1538" y="38" type="qcurve" smooth="yes"/>
      <point x="1475" y="0"/>
      <point x="1350" y="0" type="qcurve"/>
      <point x="1400" y="25"/>
      <point x="1425" y="62" type="qcurve" smooth="yes"/>
      <point x="1450" y="100"/>
      <point x="1450" y="150" type="qcurve" smooth="yes"/>
    </contour>
    <contour>
      <point x="1100" y="1392" type="line"/>
      <point x="1100" y="1500" type="line"/>
      <point x="1288" y="1500" type="line"/>
      <point x="1288" y="205" type="line" smooth="yes"/>
      <point x="1288" y="88"/>
      <point x="1155" y="0"/>
      <point x="1060" y="0" type="qcurve" smooth="yes"/>
      <point x="1005" y="0"/>
      <point x="978" y="25" type="qcurve" smooth="yes"/>
      <point x="950" y="50"/>
      <point x="950" y="101" type="qcurve"/>
      <point x="1013" y="101"/>
      <point x="1100" y="138"/>
      <point x="1100" y="205" type="qcurve" smooth="yes"/>
      <point x="1100" y="1221" type="line"/>
      <point x="966" y="1151" type="line"/>
      <point x="692" y="1000"/>
      <point x="500" y="1000" type="qcurve" smooth="yes"/>
      <point x="250" y="1000"/>
      <point x="250" y="1250" type="qcurve" smooth="yes"/>
      <point x="250" y="1500"/>
      <point x="500" y="1500" type="qcurve" smooth="yes"/>
      <point x="600" y="1500"/>
      <point x="600" y="1425" type="qcurve" smooth="yes"/>
      <point x="600" y="1350"/>
      <point x="500" y="1350" type="qcurve" smooth="yes"/>
      <point x="438" y="1350"/>
      <point x="438" y="1250" type="qcurve" smooth="yes"/>
      <point x="438" y="1150"/>
      <point x="500" y="1150" type="qcurve" smooth="yes"/>
      <point x="648" y="1150"/>
      <point x="896" y="1283" type="qcurve" smooth="yes"/>
    </contour>
  </outline>
</glyph>
<glyph name="uni17D6" format="1">
  <advance width="1150"/>
  <unicode hex="17D6"/>
  <outline>
    <contour>
      <point x="475" y="1225" type="qcurve" smooth="yes"/>
      <point x="475" y="1175"/>
      <point x="500" y="1150" type="qcurve" smooth="yes"/>
      <point x="525" y="1125"/>
      <point x="575" y="1125" type="qcurve" smooth="yes"/>
      <point x="625" y="1125"/>
      <point x="650" y="1150" type="qcurve" smooth="yes"/>
      <point x="675" y="1175"/>
      <point x="675" y="1225" type="qcurve" smooth="yes"/>
      <point x="675" y="1275"/>
      <point x="650" y="1300" type="qcurve" smooth="yes"/>
      <point x="625" y="1325"/>
      <point x="575" y="1325" type="qcurve" smooth="yes"/>
      <point x="525" y="1325"/>
      <point x="500" y="1300" type="qcurve" smooth="yes"/>
      <point x="475" y="1275"/>
    </contour>
    <contour>
      <point x="800" y="1225" type="qcurve" smooth="yes"/>
      <point x="800" y="1112"/>
      <point x="744" y="1056" type="qcurve" smooth="yes"/>
      <point x="688" y="1000"/>
      <point x="575" y="1000" type="qcurve" smooth="yes"/>
      <point x="462" y="1000"/>
      <point x="406" y="1056" type="qcurve" smooth="yes"/>
      <point x="350" y="1112"/>
      <point x="350" y="1225" type="qcurve" smooth="yes"/>
      <point x="350" y="1338"/>
      <point x="406" y="1394" type="qcurve" smooth="yes"/>
      <point x="462" y="1450"/>
      <point x="575" y="1450" type="qcurve" smooth="yes"/>
      <point x="688" y="1450"/>
      <point x="744" y="1394" type="qcurve" smooth="yes"/>
      <point x="800" y="1338"/>
    </contour>
    <contour>
      <point x="475" y="275" type="qcurve" smooth="yes"/>
      <point x="475" y="225"/>
      <point x="500" y="200" type="qcurve" smooth="yes"/>
      <point x="525" y="175"/>
      <point x="575" y="175" type="qcurve" smooth="yes"/>
      <point x="625" y="175"/>
      <point x="650" y="200" type="qcurve" smooth="yes"/>
      <point x="675" y="225"/>
      <point x="675" y="275" type="qcurve" smooth="yes"/>
      <point x="675" y="325"/>
      <point x="650" y="350" type="qcurve" smooth="yes"/>
      <point x="625" y="375"/>
      <point x="575" y="375" type="qcurve" smooth="yes"/>
      <point x="525" y="375"/>
      <point x="500" y="350" type="qcurve" smooth="yes"/>
      <point x="475" y="325"/>
    </contour>
    <contour>
      <point x="800" y="275" type="qcurve" smooth="yes"/>
      <point x="800" y="162"/>
      <point x="744" y="106" type="qcurve" smooth="yes"/>
      <point x="688" y="50"/>
      <point x="575" y="50" type="qcurve" smooth="yes"/>
      <point x="462" y="50"/>
      <point x="406" y="106" type="qcurve" smooth="yes"/>
      <point x="350" y="162"/>
      <point x="350" y="275" type="qcurve" smooth="yes"/>
      <point x="350" y="388"/>
      <point x="406" y="444" type="qcurve" smooth="yes"/>
      <point x="462" y="500"/>
      <point x="575" y="500" type="qcurve" smooth="yes"/>
      <point x="688" y="500"/>
      <point x="744" y="444" type="qcurve" smooth="yes"/>
      <point x="800" y="388"/>
    </contour>
    <contour>
      <point x="900" y="825" type="line"/>
      <point x="900" y="674" type="line"/>
      <point x="250" y="674" type="line"/>
      <point x="250" y="825" type="line"/>
    </contour>
  </outline>
</glyph>
<glyph name="uni17D7" format="1">
  <advance width="1488"/>
  <unicode hex="17D7"/>
  <outline>
    <contour>
      <point x="528" y="1026" type="qcurve" smooth="yes"/>
      <point x="358" y="1026"/>
      <point x="304" y="1074" type="qcurve" smooth="yes"/>
      <point x="250" y="1122"/>
      <point x="250" y="1209" type="qcurve"/>
      <point x="281" y="1281"/>
      <point x="349" y="1354" type="qcurve" smooth="yes"/>
      <point x="417" y="1427"/>
      <point x="522" y="1500" type="qcurve"/>
      <point x="784" y="1290" type="line"/>
      <point x="1073" y="1499" type="line"/>
      <point x="1238" y="1499" type="line"/>
      <point x="1238" y="350" type="line" smooth="yes"/>
      <point x="1238" y="175"/>
      <point x="1115" y="88" type="qcurve" smooth="yes"/>
      <point x="992" y="0"/>
      <point x="784" y="0" type="qcurve" smooth="yes"/>
      <point x="577" y="0"/>
      <point x="473" y="44" type="qcurve" smooth="yes"/>
      <point x="369" y="87"/>
      <point x="369" y="175" type="qcurve" smooth="yes"/>
      <point x="369" y="233"/>
      <point x="428" y="291"/>
      <point x="488" y="291" type="qcurve"/>
      <point x="488" y="246"/>
      <point x="562" y="198" type="qcurve" smooth="yes"/>
      <point x="636" y="151"/>
      <point x="784" y="151" type="qcurve" smooth="yes"/>
      <point x="905" y="151"/>
      <point x="978" y="213" type="qcurve" smooth="yes"/>
      <point x="1050" y="275"/>
      <point x="1050" y="350" type="qcurve" smooth="yes"/>
      <point x="1050" y="1289" type="line"/>
      <point x="786" y="1115" type="line"/>
      <point x="562" y="1289" type="line"/>
      <point x="465" y="1209" type="line"/>
      <point x="465" y="1179"/>
      <point x="481" y="1165" type="qcurve" smooth="yes"/>
      <point x="496" y="1150"/>
      <point x="528" y="1150" type="qcurve" smooth="yes"/>
      <point x="557" y="1150"/>
      <point x="572" y="1163" type="qcurve" smooth="yes"/>
      <point x="587" y="1175"/>
      <point x="587" y="1200" type="qcurve"/>
      <point x="617" y="1200"/>
      <point x="631" y="1179" type="qcurve" smooth="yes"/>
      <point x="646" y="1157"/>
      <point x="646" y="1113" type="qcurve" smooth="yes"/>
      <point x="646" y="1069"/>
      <point x="617" y="1047" type="qcurve" smooth="yes"/>
      <point x="587" y="1026"/>
    </contour>
  </outline>
</glyph>
<glyph name="uni17D8" format="1">
  <advance width="5238"/>
  <unicode hex="17D8"/>
  <outline>
    <contour>
      <point x="1100" y="1392" type="line"/>
      <point x="1100" y="1500" type="line"/>
      <point x="1288" y="1500" type="line"/>
      <point x="1288" y="205" type="line" smooth="yes"/>
      <point x="1288" y="88"/>
      <point x="1155" y="0"/>
      <point x="1060" y="0" type="qcurve" smooth="yes"/>
      <point x="1005" y="0"/>
      <point x="978" y="25" type="qcurve" smooth="yes"/>
      <point x="950" y="50"/>
      <point x="950" y="101" type="qcurve"/>
      <point x="1013" y="101"/>
      <point x="1100" y="138"/>
      <point x="1100" y="205" type="qcurve" smooth="yes"/>
      <point x="1100" y="1221" type="line"/>
      <point x="966" y="1151" type="line"/>
      <point x="692" y="1000"/>
      <point x="500" y="1000" type="qcurve" smooth="yes"/>
      <point x="250" y="1000"/>
      <point x="250" y="1250" type="qcurve" smooth="yes"/>
      <point x="250" y="1500"/>
      <point x="500" y="1500" type="qcurve" smooth="yes"/>
      <point x="600" y="1500"/>
      <point x="600" y="1425" type="qcurve" smooth="yes"/>
      <point x="600" y="1350"/>
      <point x="500" y="1350" type="qcurve" smooth="yes"/>
      <point x="438" y="1350"/>
      <point x="438" y="1250" type="qcurve" smooth="yes"/>
      <point x="438" y="1150"/>
      <point x="500" y="1150" type="qcurve" smooth="yes"/>
      <point x="648" y="1150"/>
      <point x="896" y="1283" type="qcurve" smooth="yes"/>
    </contour>
    <contour>
      <point x="1976" y="222" type="line"/>
      <point x="2074" y="312"/>
      <point x="2074" y="389" type="qcurve" smooth="yes"/>
      <point x="2074" y="429"/>
      <point x="2047" y="448" type="qcurve" smooth="yes"/>
      <point x="2020" y="466"/>
      <point x="1976" y="466" type="qcurve"/>
    </contour>
    <contour>
      <point x="1976" y="600" type="line"/>
      <point x="2121" y="600"/>
      <point x="2165" y="541" type="qcurve" smooth="yes"/>
      <point x="2208" y="481"/>
      <point x="2208" y="415" type="qcurve" smooth="yes"/>
      <point x="2208" y="337"/>
      <point x="2168" y="250" type="qcurve" smooth="yes"/>
      <point x="2128" y="162"/>
      <point x="2052" y="81" type="qcurve" smooth="yes"/>
      <point x="1976" y="0"/>
      <point x="1912" y="0" type="qcurve" smooth="yes"/>
      <point x="1788" y="0"/>
      <point x="1788" y="100" type="qcurve" smooth="yes"/>
      <point x="1788" y="1008" type="line"/>
      <point x="1726" y="1046" type="line" smooth="yes"/>
      <point x="1678" y="1075"/>
      <point x="1678" y="1140" type="qcurve" smooth="yes"/>
      <point x="1678" y="1205"/>
      <point x="1778" y="1279" type="qcurve" smooth="yes"/>
      <point x="1915" y="1381" type="line" smooth="yes"/>
      <point x="2076" y="1500"/>
      <point x="2178" y="1500" type="qcurve" smooth="yes"/>
      <point x="2336" y="1500"/>
      <point x="2416" y="1447" type="qcurve" smooth="yes"/>
      <point x="2630" y="1297" type="line" smooth="yes"/>
      <point x="2738" y="1225"/>
      <point x="2738" y="1050" type="qcurve" smooth="yes"/>
      <point x="2738" y="300" type="line" smooth="yes"/>
      <point x="2738" y="242"/>
      <point x="2816" y="193" type="qcurve" smooth="yes"/>
      <point x="2894" y="144"/>
      <point x="3000" y="144" type="qcurve" smooth="yes"/>
      <point x="3106" y="144"/>
      <point x="3184" y="193" type="qcurve" smooth="yes"/>
      <point x="3262" y="242"/>
      <point x="3262" y="300" type="qcurve" smooth="yes"/>
      <point x="3262" y="993" type="line"/>
      <point x="3175" y="1046" type="line" smooth="yes"/>
      <point x="3087" y="1099"/>
      <point x="3087" y="1131" type="qcurve" smooth="yes"/>
      <point x="3087" y="1162"/>
      <point x="3143" y="1247" type="qcurve" smooth="yes"/>
      <point x="3311" y="1500" type="line"/>
      <point x="3419" y="1438" type="line"/>
      <point x="3473" y="1406" type="line" smooth="yes"/>
      <point x="3520" y="1379"/>
      <point x="3553" y="1379" type="qcurve" smooth="yes"/>
      <point x="3559" y="1379"/>
      <point x="3564" y="1380" type="qcurve" smooth="yes"/>
      <point x="3600" y="1385" type="line"/>
      <point x="3600" y="1350"/>
      <point x="3518" y="1222"/>
      <point x="3477" y="1216" type="qcurve" smooth="yes"/>
      <point x="3471" y="1215"/>
      <point x="3464" y="1215" type="qcurve" smooth="yes"/>
      <point x="3426" y="1215"/>
      <point x="3369" y="1249" type="qcurve" smooth="yes"/>
      <point x="3301" y="1288" type="line"/>
      <point x="3258" y="1213" type="line"/>
      <point x="3450" y="1100" type="line"/>
      <point x="3450" y="300" type="line" smooth="yes"/>
      <point x="3450" y="200"/>
      <point x="3325" y="100" type="qcurve" smooth="yes"/>
      <point x="3200" y="0"/>
      <point x="3000" y="0" type="qcurve" smooth="yes"/>
      <point x="2800" y="0"/>
      <point x="2675" y="100" type="qcurve" smooth="yes"/>
      <point x="2550" y="200"/>
      <point x="2550" y="300" type="qcurve" smooth="yes"/>
      <point x="2550" y="1050" type="line" smooth="yes"/>
      <point x="2550" y="1126"/>
      <point x="2511" y="1154" type="qcurve" smooth="yes"/>
      <point x="2304" y="1296" type="line" smooth="yes"/>
      <point x="2267" y="1322"/>
      <point x="2178" y="1322" type="qcurve" smooth="yes"/>
      <point x="2074" y="1322"/>
      <point x="2006" y="1271" type="qcurve" smooth="yes"/>
      <point x="1877" y="1173" type="line"/>
      <point x="1915" y="1148" type="line" smooth="yes"/>
      <point x="1976" y="1110"/>
      <point x="1976" y="1050" type="qcurve" smooth="yes"/>
    </contour>
    <contour>
      <point x="4800" y="1392" type="line"/>
      <point x="4800" y="1500" type="line"/>
      <point x="4988" y="1500" type="line"/>
      <point x="4988" y="205" type="line" smooth="yes"/>
      <point x="4988" y="88"/>
      <point x="4855" y="0"/>
      <point x="4760" y="0" type="qcurve" smooth="yes"/>
      <point x="4705" y="0"/>
      <point x="4678" y="25" type="qcurve" smooth="yes"/>
      <point x="4650" y="50"/>
      <point x="4650" y="101" type="qcurve"/>
      <point x="4713" y="101"/>
      <point x="4800" y="138"/>
      <point x="4800" y="205" type="qcurve" smooth="yes"/>
      <point x="4800" y="1221" type="line"/>
      <point x="4666" y="1151" type="line"/>
      <point x="4392" y="1000"/>
      <point x="4200" y="1000" type="qcurve" smooth="yes"/>
      <point x="3950" y="1000"/>
      <point x="3950" y="1250" type="qcurve" smooth="yes"/>
      <point x="3950" y="1500"/>
      <point x="4200" y="1500" type="qcurve" smooth="yes"/>
      <point x="4300" y="1500"/>
      <point x="4300" y="1425" type="qcurve" smooth="yes"/>
      <point x="4300" y="1350"/>
      <point x="4200" y="1350" type="qcurve" smooth="yes"/>
      <point x="4138" y="1350"/>
      <point x="4138" y="1250" type="qcurve" smooth="yes"/>
      <point x="4138" y="1150"/>
      <point x="4200" y="1150" type="qcurve" smooth="yes"/>
      <point x="4348" y="1150"/>
      <point x="4596" y="1283" type="qcurve" smooth="yes"/>
    </contour>
  </outline>
</glyph>
<glyph name="uni17D9" format="1">
  <advance width="1550"/>
  <unicode hex="17D9"/>
  <outline>
    <contour>
      <point x="775" y="0" type="qcurve" smooth="yes"/>
      <point x="538" y="0"/>
      <point x="419" y="175" type="qcurve" smooth="yes"/>
      <point x="300" y="350"/>
      <point x="300" y="700" type="qcurve" smooth="yes"/>
      <point x="300" y="1050"/>
      <point x="419" y="1225" type="qcurve" smooth="yes"/>
      <point x="538" y="1400"/>
      <point x="775" y="1400" type="qcurve" smooth="yes"/>
      <point x="1012" y="1400"/>
      <point x="1131" y="1225" type="qcurve" smooth="yes"/>
      <point x="1250" y="1050"/>
      <point x="1250" y="700" type="qcurve" smooth="yes"/>
      <point x="1250" y="350"/>
      <point x="1131" y="175" type="qcurve" smooth="yes"/>
      <point x="1012" y="0"/>
    </contour>
    <contour>
      <point x="775" y="1283" type="qcurve" smooth="yes"/>
      <point x="597" y="1283"/>
      <point x="508" y="1138" type="qcurve" smooth="yes"/>
      <point x="419" y="992"/>
      <point x="419" y="700" type="qcurve" smooth="yes"/>
      <point x="419" y="408"/>
      <point x="508" y="262" type="qcurve" smooth="yes"/>
      <point x="597" y="117"/>
      <point x="775" y="117" type="qcurve" smooth="yes"/>
      <point x="953" y="117"/>
      <point x="1042" y="262" type="qcurve" smooth="yes"/>
      <point x="1131" y="408"/>
      <point x="1131" y="700" type="qcurve" smooth="yes"/>
      <point x="1131" y="992"/>
      <point x="1042" y="1138" type="qcurve" smooth="yes"/>
      <point x="953" y="1283"/>
    </contour>
    <contour>
      <point x="775" y="233" type="qcurve" smooth="yes"/>
      <point x="656" y="233"/>
      <point x="597" y="350" type="qcurve" smooth="yes"/>
      <point x="538" y="467"/>
      <point x="538" y="700" type="qcurve" smooth="yes"/>
      <point x="538" y="933"/>
      <point x="597" y="1050" type="qcurve" smooth="yes"/>
      <point x="656" y="1167"/>
      <point x="775" y="1167" type="qcurve" smooth="yes"/>
      <point x="894" y="1167"/>
      <point x="953" y="1050" type="qcurve" smooth="yes"/>
      <point x="1012" y="933"/>
      <point x="1012" y="700" type="qcurve" smooth="yes"/>
      <point x="1012" y="467"/>
      <point x="953" y="350" type="qcurve" smooth="yes"/>
      <point x="894" y="233"/>
    </contour>
    <contour>
      <point x="775" y="1050" type="qcurve" smooth="yes"/>
      <point x="716" y="1050"/>
      <point x="686" y="963" type="qcurve" smooth="yes"/>
      <point x="656" y="875"/>
      <point x="656" y="700" type="qcurve" smooth="yes"/>
      <point x="656" y="525"/>
      <point x="686" y="438" type="qcurve" smooth="yes"/>
      <point x="716" y="350"/>
      <point x="775" y="350" type="qcurve" smooth="yes"/>
      <point x="834" y="350"/>
      <point x="864" y="438" type="qcurve" smooth="yes"/>
      <point x="894" y="525"/>
      <point x="894" y="700" type="qcurve" smooth="yes"/>
      <point x="894" y="875"/>
      <point x="864" y="963" type="qcurve" smooth="yes"/>
      <point x="834" y="1050"/>
    </contour>
  </outline>
</glyph>
<glyph name="uni17DA" format="1">
  <advance width="3920"/>
  <unicode hex="17DA"/>
  <outline>
    <contour>
      <point x="2921" y="538" type="qcurve"/>
      <point x="2905" y="521"/>
      <point x="2905" y="512" type="qcurve" smooth="yes"/>
      <point x="2905" y="509"/>
      <point x="2906" y="507" type="qcurve" smooth="yes"/>
      <point x="2911" y="499"/>
      <point x="2918" y="499" type="qcurve" smooth="yes"/>
      <point x="2924" y="499"/>
      <point x="2931" y="505" type="qcurve" smooth="yes"/>
      <point x="2932" y="506"/>
      <point x="2932" y="509" type="qcurve" smooth="yes"/>
      <point x="2932" y="516"/>
    </contour>
    <contour>
      <point x="1593" y="979" type="qcurve"/>
      <point x="1654" y="1073"/>
      <point x="1654" y="1111" type="qcurve" smooth="yes"/>
      <point x="1654" y="1124"/>
      <point x="1647" y="1131" type="qcurve" smooth="yes"/>
      <point x="1623" y="1155"/>
      <point x="1600" y="1155" type="qcurve" smooth="yes"/>
      <point x="1572" y="1155"/>
      <point x="1546" y="1120" type="qcurve" smooth="yes"/>
      <point x="1539" y="1111"/>
      <point x="1539" y="1097" type="qcurve" smooth="yes"/>
      <point x="1539" y="1062"/>
      <point x="1581" y="997" type="qcurve" smooth="yes"/>
      <point x="1586" y="988"/>
    </contour>
    <contour>
      <point x="1871" y="439" type="qcurve"/>
      <point x="1827" y="383"/>
      <point x="1827" y="358" type="qcurve" smooth="yes"/>
      <point x="1827" y="351"/>
      <point x="1831" y="347" type="qcurve" smooth="yes"/>
      <point x="1850" y="325"/>
      <point x="1872" y="325" type="qcurve" smooth="yes"/>
      <point x="1890" y="325"/>
      <point x="1909" y="340" type="qcurve" smooth="yes"/>
      <point x="1915" y="344"/>
      <point x="1915" y="353" type="qcurve" smooth="yes"/>
      <point x="1915" y="379"/>
    </contour>
    <contour>
      <point x="2211" y="1018" type="qcurve"/>
      <point x="2251" y="1068"/>
      <point x="2251" y="1087" type="qcurve" smooth="yes"/>
      <point x="2251" y="1091"/>
      <point x="2249" y="1094" type="qcurve" smooth="yes"/>
      <point x="2234" y="1114"/>
      <point x="2216" y="1114" type="qcurve" smooth="yes"/>
      <point x="2202" y="1114"/>
      <point x="2186" y="1102" type="qcurve" smooth="yes"/>
      <point x="2181" y="1098"/>
      <point x="2181" y="1089" type="qcurve" smooth="yes"/>
      <point x="2181" y="1068"/>
    </contour>
    <contour>
      <point x="2438" y="468" type="qcurve"/>
      <point x="2417" y="446"/>
      <point x="2417" y="439" type="qcurve" smooth="yes"/>
      <point x="2417" y="438"/>
      <point x="2418" y="437" type="qcurve" smooth="yes"/>
      <point x="2425" y="429"/>
      <point x="2434" y="429" type="qcurve" smooth="yes"/>
      <point x="2442" y="429"/>
      <point x="2450" y="434" type="qcurve" smooth="yes"/>
      <point x="2452" y="435"/>
      <point x="2452" y="438" type="qcurve" smooth="yes"/>
      <point x="2452" y="446"/>
    </contour>
    <contour>
      <point x="2782" y="979" type="qcurve"/>
      <point x="2807" y="1004"/>
      <point x="2807" y="1010" type="qcurve" smooth="yes"/>
      <point x="2807" y="1011"/>
      <point x="2806" y="1011" type="qcurve" smooth="yes"/>
      <point x="2801" y="1016"/>
      <point x="2795" y="1016" type="qcurve" smooth="yes"/>
      <point x="2786" y="1016"/>
      <point x="2776" y="1007" type="qcurve" smooth="yes"/>
      <point x="2774" y="1005"/>
      <point x="2774" y="1002" type="qcurve" smooth="yes"/>
      <point x="2774" y="994"/>
    </contour>
    <contour>
      <point x="2914" y="794" type="qcurve" smooth="yes"/>
      <point x="2937" y="765"/>
      <point x="2956" y="738" type="qcurve"/>
      <point x="2997" y="756"/>
      <point x="3043" y="768" type="qcurve" smooth="yes"/>
      <point x="3158" y="800"/>
      <point x="3311" y="800" type="qcurve" smooth="yes"/>
      <point x="3575" y="800" type="line" smooth="yes"/>
      <point x="3670" y="800"/>
      <point x="3670" y="725" type="qcurve" smooth="yes"/>
      <point x="3670" y="650"/>
      <point x="3571" y="650" type="qcurve" smooth="yes"/>
      <point x="3311" y="650" type="line" smooth="yes"/>
      <point x="3095" y="650"/>
      <point x="3029" y="617" type="qcurve"/>
      <point x="3049" y="576"/>
      <point x="3058" y="541" type="qcurve" smooth="yes"/>
      <point x="3065" y="512"/>
      <point x="3065" y="488" type="qcurve" smooth="yes"/>
      <point x="3065" y="426"/>
      <point x="3018" y="390" type="qcurve" smooth="yes"/>
      <point x="2961" y="347"/>
      <point x="2910" y="347" type="qcurve" smooth="yes"/>
      <point x="2902" y="347"/>
      <point x="2894" y="348" type="qcurve" smooth="yes"/>
      <point x="2835" y="355"/>
      <point x="2784" y="419" type="qcurve" smooth="yes"/>
      <point x="2745" y="468"/>
      <point x="2745" y="518" type="qcurve" smooth="yes"/>
      <point x="2745" y="532"/>
      <point x="2748" y="547" type="qcurve" smooth="yes"/>
      <point x="2763" y="607"/>
      <point x="2837" y="667" type="qcurve"/>
      <point x="2822" y="689"/>
      <point x="2805" y="713" type="qcurve" smooth="yes"/>
      <point x="2787" y="735"/>
      <point x="2772" y="756" type="qcurve"/>
      <point x="2726" y="714"/>
      <point x="2670" y="669" type="qcurve" smooth="yes"/>
      <point x="2592" y="605"/>
      <point x="2537" y="559" type="qcurve"/>
      <point x="2557" y="521"/>
      <point x="2569" y="488" type="qcurve" smooth="yes"/>
      <point x="2585" y="442"/>
      <point x="2585" y="406" type="qcurve" smooth="yes"/>
      <point x="2585" y="349"/>
      <point x="2543" y="317" type="qcurve" smooth="yes"/>
      <point x="2485" y="274"/>
      <point x="2433" y="274" type="qcurve" smooth="yes"/>
      <point x="2424" y="274"/>
      <point x="2415" y="275" type="qcurve" smooth="yes"/>
      <point x="2354" y="284"/>
      <point x="2302" y="351" type="qcurve" smooth="yes"/>
      <point x="2279" y="381"/>
      <point x="2279" y="420" type="qcurve" smooth="yes"/>
      <point x="2279" y="467"/>
      <point x="2314" y="528" type="qcurve" smooth="yes"/>
      <point x="2331" y="556"/>
      <point x="2355" y="587" type="qcurve"/>
      <point x="2319" y="636"/>
      <point x="2269" y="700" type="qcurve" smooth="yes"/>
      <point x="2200" y="786" type="line"/>
      <point x="2151" y="730"/>
      <point x="2088" y="667" type="qcurve" smooth="yes"/>
      <point x="2013" y="595"/>
      <point x="1959" y="539" type="qcurve"/>
      <point x="2003" y="474"/>
      <point x="2026" y="420" type="qcurve" smooth="yes"/>
      <point x="2049" y="365"/>
      <point x="2049" y="323" type="qcurve" smooth="yes"/>
      <point x="2049" y="263"/>
      <point x="2003" y="228" type="qcurve" smooth="yes"/>
      <point x="1931" y="173"/>
      <point x="1866" y="173" type="qcurve" smooth="yes"/>
      <point x="1859" y="173"/>
      <point x="1853" y="174" type="qcurve" smooth="yes"/>
      <point x="1782" y="180"/>
      <point x="1719" y="254" type="qcurve" smooth="yes"/>
      <point x="1688" y="291"/>
      <point x="1688" y="341" type="qcurve" smooth="yes"/>
      <point x="1688" y="392"/>
      <point x="1720" y="458" type="qcurve" smooth="yes"/>
      <point x="1742" y="503"/>
      <point x="1778" y="554" type="qcurve"/>
      <point x="1735" y="602"/>
      <point x="1679" y="662" type="qcurve" smooth="yes"/>
      <point x="1640" y="703"/>
      <point x="1606" y="742" type="qcurve"/>
      <point x="1539" y="646"/>
      <point x="1446" y="534" type="qcurve" smooth="yes"/>
      <point x="1223" y="267"/>
      <point x="1028" y="134" type="qcurve" smooth="yes"/>
      <point x="832" y="0"/>
      <point x="665" y="0" type="qcurve" smooth="yes"/>
      <point x="458" y="0"/>
      <point x="354" y="187" type="qcurve" smooth="yes"/>
      <point x="250" y="375"/>
      <point x="250" y="750" type="qcurve" smooth="yes"/>
      <point x="250" y="1125"/>
      <point x="369" y="1312" type="qcurve" smooth="yes"/>
      <point x="488" y="1500"/>
      <point x="725" y="1500" type="qcurve" smooth="yes"/>
      <point x="963" y="1500"/>
      <point x="1082" y="1401" type="qcurve" smooth="yes"/>
      <point x="1200" y="1302"/>
      <point x="1200" y="1104" type="qcurve" smooth="yes"/>
      <point x="1200" y="901"/>
      <point x="1114" y="778" type="qcurve" smooth="yes"/>
      <point x="1027" y="654"/>
      <point x="854" y="610" type="qcurve" smooth="yes"/>
      <point x="833" y="604"/>
      <point x="816" y="604" type="qcurve" smooth="yes"/>
      <point x="765" y="604"/>
      <point x="750" y="658" type="qcurve" smooth="yes"/>
      <point x="746" y="672"/>
      <point x="746" y="684" type="qcurve" smooth="yes"/>
      <point x="746" y="735"/>
      <point x="815" y="754" type="qcurve" smooth="yes"/>
      <point x="932" y="784"/>
      <point x="991" y="870" type="qcurve" smooth="yes"/>
      <point x="1050" y="956"/>
      <point x="1050" y="1097" type="qcurve" smooth="yes"/>
      <point x="1050" y="1223"/>
      <point x="969" y="1286" type="qcurve" smooth="yes"/>
      <point x="887" y="1350"/>
      <point x="725" y="1350" type="qcurve" smooth="yes"/>
      <point x="563" y="1350"/>
      <point x="482" y="1200" type="qcurve" smooth="yes"/>
      <point x="401" y="1052"/>
      <point x="401" y="757" type="qcurve" smooth="yes"/>
      <point x="401" y="750" type="line" smooth="yes"/>
      <point x="401" y="450"/>
      <point x="467" y="300" type="qcurve" smooth="yes"/>
      <point x="533" y="150"/>
      <point x="666" y="150" type="qcurve" smooth="yes"/>
      <point x="798" y="150"/>
      <point x="960" y="266" type="qcurve" smooth="yes"/>
      <point x="1122" y="382"/>
      <point x="1315" y="614" type="qcurve" smooth="yes"/>
      <point x="1435" y="758"/>
      <point x="1512" y="863" type="qcurve"/>
      <point x="1458" y="940"/>
      <point x="1432" y="1005" type="qcurve" smooth="yes"/>
      <point x="1407" y="1067"/>
      <point x="1407" y="1119" type="qcurve" smooth="yes"/>
      <point x="1407" y="1185"/>
      <point x="1449" y="1233" type="qcurve" smooth="yes"/>
      <point x="1523" y="1318"/>
      <point x="1597" y="1319" type="qcurve" smooth="yes"/>
      <point x="1599" y="1319" type="line" smooth="yes"/>
      <point x="1671" y="1319"/>
      <point x="1744" y="1236" type="qcurve" smooth="yes"/>
      <point x="1781" y="1194"/>
      <point x="1781" y="1130" type="qcurve" smooth="yes"/>
      <point x="1781" y="1065"/>
      <point x="1743" y="977" type="qcurve" smooth="yes"/>
      <point x="1720" y="924"/>
      <point x="1684" y="863" type="qcurve"/>
      <point x="1726" y="814"/>
      <point x="1779" y="758" type="qcurve" smooth="yes"/>
      <point x="1826" y="708"/>
      <point x="1865" y="662" type="qcurve"/>
      <point x="1914" y="717"/>
      <point x="1976" y="778" type="qcurve" smooth="yes"/>
      <point x="2057" y="854"/>
      <point x="2114" y="913" type="qcurve"/>
      <point x="2082" y="972"/>
      <point x="2060" y="1038" type="qcurve" smooth="yes"/>
      <point x="2044" y="1086"/>
      <point x="2044" y="1124" type="qcurve" smooth="yes"/>
      <point x="2044" y="1191"/>
      <point x="2093" y="1228" type="qcurve" smooth="yes"/>
      <point x="2161" y="1279"/>
      <point x="2220" y="1279" type="qcurve" smooth="yes"/>
      <point x="2228" y="1279"/>
      <point x="2236" y="1278" type="qcurve" smooth="yes"/>
      <point x="2303" y="1270"/>
      <point x="2360" y="1197" type="qcurve" smooth="yes"/>
      <point x="2386" y="1164"/>
      <point x="2386" y="1118" type="qcurve" smooth="yes"/>
      <point x="2386" y="1064"/>
      <point x="2349" y="992" type="qcurve" smooth="yes"/>
      <point x="2327" y="950"/>
      <point x="2293" y="901" type="qcurve"/>
      <point x="2328" y="855"/>
      <point x="2374" y="798" type="qcurve" smooth="yes"/>
      <point x="2418" y="743"/>
      <point x="2453" y="693" type="qcurve"/>
      <point x="2499" y="738"/>
      <point x="2558" y="787" type="qcurve" smooth="yes"/>
      <point x="2632" y="847"/>
      <point x="2683" y="891" type="qcurve"/>
      <point x="2660" y="936"/>
      <point x="2649" y="974" type="qcurve" smooth="yes"/>
      <point x="2640" y="1006"/>
      <point x="2640" y="1033" type="qcurve" smooth="yes"/>
      <point x="2640" y="1092"/>
      <point x="2686" y="1127" type="qcurve" smooth="yes"/>
      <point x="2742" y="1169"/>
      <point x="2794" y="1169" type="qcurve" smooth="yes"/>
      <point x="2803" y="1169"/>
      <point x="2812" y="1168" type="qcurve" smooth="yes"/>
      <point x="2872" y="1160"/>
      <point x="2926" y="1093" type="qcurve" smooth="yes"/>
      <point x="2950" y="1063"/>
      <point x="2950" y="1024" type="qcurve" smooth="yes"/>
      <point x="2950" y="978"/>
      <point x="2915" y="920" type="qcurve" smooth="yes"/>
      <point x="2896" y="889"/>
      <point x="2867" y="854" type="qcurve"/>
      <point x="2888" y="827"/>
    </contour>
  </outline>
</glyph>
<glyph name="uni17DC" format="1">
  <advance width="1550"/>
  <unicode hex="17DC"/>
  <outline>
    <contour>
      <point x="420" y="1022" type="qcurve" smooth="yes"/>
      <point x="420" y="890"/>
      <point x="509" y="824" type="qcurve" smooth="yes"/>
      <point x="597" y="758"/>
      <point x="775" y="758" type="qcurve" smooth="yes"/>
      <point x="1012" y="758"/>
      <point x="1131" y="664" type="qcurve" smooth="yes"/>
      <point x="1250" y="569"/>
      <point x="1250" y="379" type="qcurve" smooth="yes"/>
      <point x="1250" y="190"/>
      <point x="1131" y="95" type="qcurve" smooth="yes"/>
      <point x="1012" y="0"/>
      <point x="775" y="0" type="qcurve" smooth="yes"/>
      <point x="538" y="0"/>
      <point x="419" y="73" type="qcurve" smooth="yes"/>
      <point x="300" y="146"/>
      <point x="300" y="293" type="qcurve" smooth="yes"/>
      <point x="300" y="380"/>
      <point x="345" y="424" type="qcurve" smooth="yes"/>
      <point x="390" y="467"/>
      <point x="479" y="468" type="qcurve" smooth="yes"/>
      <point x="509" y="468"/>
      <point x="524" y="453" type="qcurve" smooth="yes"/>
      <point x="539" y="438"/>
      <point x="539" y="408" type="qcurve" smooth="yes"/>
      <point x="539" y="379"/>
      <point x="524" y="365" type="qcurve" smooth="yes"/>
      <point x="509" y="350"/>
      <point x="479" y="350" type="qcurve" smooth="yes"/>
      <point x="450" y="350"/>
      <point x="435" y="335" type="qcurve" smooth="yes"/>
      <point x="420" y="321"/>
      <point x="420" y="292" type="qcurve" smooth="yes"/>
      <point x="420" y="205"/>
      <point x="509" y="161" type="qcurve" smooth="yes"/>
      <point x="597" y="118"/>
      <point x="775" y="118" type="qcurve" smooth="yes"/>
      <point x="953" y="118"/>
      <point x="1042" y="183" type="qcurve" smooth="yes"/>
      <point x="1131" y="249"/>
      <point x="1131" y="380" type="qcurve" smooth="yes"/>
      <point x="1131" y="512"/>
      <point x="1042" y="577" type="qcurve" smooth="yes"/>
      <point x="953" y="643"/>
      <point x="775" y="643" type="qcurve" smooth="yes"/>
      <point x="538" y="643"/>
      <point x="419" y="738" type="qcurve" smooth="yes"/>
      <point x="301" y="832"/>
      <point x="300" y="1022" type="qcurve" smooth="yes"/>
      <point x="300" y="1211"/>
      <point x="419" y="1306" type="qcurve" smooth="yes"/>
      <point x="538" y="1400"/>
      <point x="775" y="1400" type="qcurve" smooth="yes"/>
      <point x="1012" y="1400"/>
      <point x="1131" y="1327" type="qcurve" smooth="yes"/>
      <point x="1250" y="1255"/>
      <point x="1250" y="1110" type="qcurve" smooth="yes"/>
      <point x="1250" y="1022"/>
      <point x="1205" y="978" type="qcurve" smooth="yes"/>
      <point x="1161" y="934"/>
      <point x="1072" y="934" type="qcurve" smooth="yes"/>
      <point x="1042" y="934"/>
      <point x="1027" y="949" type="qcurve" smooth="yes"/>
      <point x="1012" y="964"/>
      <point x="1012" y="993" type="qcurve" smooth="yes"/>
      <point x="1012" y="1022"/>
      <point x="1027" y="1037" type="qcurve" smooth="yes"/>
      <point x="1042" y="1051"/>
      <point x="1072" y="1051" type="qcurve" smooth="yes"/>
      <point x="1102" y="1051"/>
      <point x="1116" y="1066" type="qcurve" smooth="yes"/>
      <point x="1131" y="1080"/>
      <point x="1131" y="1110" type="qcurve" smooth="yes"/>
      <point x="1131" y="1197"/>
      <point x="1042" y="1241" type="qcurve" smooth="yes"/>
      <point x="953" y="1284"/>
      <point x="775" y="1284" type="qcurve" smooth="yes"/>
      <point x="597" y="1284"/>
      <point x="509" y="1219" type="qcurve" smooth="yes"/>
      <point x="420" y="1153"/>
    </contour>
  </outline>
</glyph>
<glyph name="uni17E0" format="1">
  <advance width="1550"/>
  <unicode hex="17E0"/>
  <outline>
    <contour>
      <point x="250" y="600" type="qcurve" smooth="yes"/>
      <point x="250" y="900" type="line" smooth="yes"/>
      <point x="250" y="1125"/>
      <point x="369" y="1313" type="qcurve" smooth="yes"/>
      <point x="488" y="1500"/>
      <point x="776" y="1500" type="qcurve" smooth="yes"/>
      <point x="1063" y="1500"/>
      <point x="1181" y="1313" type="qcurve" smooth="yes"/>
      <point x="1300" y="1125"/>
      <point x="1300" y="900" type="qcurve" smooth="yes"/>
      <point x="1300" y="600" type="line" smooth="yes"/>
      <point x="1300" y="375"/>
      <point x="1181" y="188" type="qcurve" smooth="yes"/>
      <point x="1063" y="0"/>
      <point x="776" y="0" type="qcurve" smooth="yes"/>
      <point x="488" y="0"/>
      <point x="369" y="188" type="qcurve" smooth="yes"/>
      <point x="250" y="375"/>
    </contour>
    <contour>
      <point x="438" y="900" type="qcurve" smooth="yes"/>
      <point x="438" y="600" type="line" smooth="yes"/>
      <point x="438" y="447"/>
      <point x="510" y="296" type="qcurve" smooth="yes"/>
      <point x="582" y="144"/>
      <point x="776" y="144" type="qcurve" smooth="yes"/>
      <point x="969" y="144"/>
      <point x="1040" y="296" type="qcurve" smooth="yes"/>
      <point x="1112" y="447"/>
      <point x="1112" y="600" type="qcurve" smooth="yes"/>
      <point x="1112" y="900" type="line" smooth="yes"/>
      <point x="1112" y="1053"/>
      <point x="1040" y="1205" type="qcurve" smooth="yes"/>
      <point x="969" y="1356"/>
      <point x="776" y="1356" type="qcurve" smooth="yes"/>
      <point x="582" y="1356"/>
      <point x="510" y="1205" type="qcurve" smooth="yes"/>
      <point x="438" y="1053"/>
    </contour>
  </outline>
</glyph>
<glyph name="uni17E1" format="1">
  <advance width="1550"/>
  <unicode hex="17E1"/>
  <outline>
    <contour>
      <point x="1122" y="233" type="qcurve" smooth="yes"/>
      <point x="943" y="0"/>
      <point x="600" y="0" type="qcurve" smooth="yes"/>
      <point x="500" y="0" type="line"/>
      <point x="500" y="144" type="line"/>
      <point x="600" y="144" type="line" smooth="yes"/>
      <point x="889" y="144"/>
      <point x="1001" y="336" type="qcurve" smooth="yes"/>
      <point x="1112" y="527"/>
      <point x="1112" y="900" type="qcurve" smooth="yes"/>
      <point x="1112" y="1173"/>
      <point x="1011" y="1265" type="qcurve" smooth="yes"/>
      <point x="909" y="1356"/>
      <point x="756" y="1356" type="qcurve" smooth="yes"/>
      <point x="602" y="1356"/>
      <point x="520" y="1270" type="qcurve" smooth="yes"/>
      <point x="438" y="1183"/>
      <point x="438" y="1030" type="qcurve" smooth="yes"/>
      <point x="438" y="905"/>
      <point x="487" y="843" type="qcurve" smooth="yes"/>
      <point x="535" y="780"/>
      <point x="632" y="780" type="qcurve" smooth="yes"/>
      <point x="703" y="780"/>
      <point x="731" y="850" type="qcurve"/>
      <point x="650" y="864"/>
      <point x="650" y="940" type="qcurve" smooth="yes"/>
      <point x="650" y="1070"/>
      <point x="775" y="1070" type="qcurve" smooth="yes"/>
      <point x="900" y="1070"/>
      <point x="900" y="940" type="qcurve" smooth="yes"/>
      <point x="900" y="803"/>
      <point x="831" y="725" type="qcurve" smooth="yes"/>
      <point x="761" y="646"/>
      <point x="632" y="646" type="qcurve" smooth="yes"/>
      <point x="451" y="646"/>
      <point x="351" y="755" type="qcurve" smooth="yes"/>
      <point x="250" y="863"/>
      <point x="250" y="1030" type="qcurve" smooth="yes"/>
      <point x="250" y="1225"/>
      <point x="379" y="1363" type="qcurve" smooth="yes"/>
      <point x="508" y="1500"/>
      <point x="756" y="1500" type="qcurve" smooth="yes"/>
      <point x="1003" y="1500"/>
      <point x="1152" y="1358" type="qcurve" smooth="yes"/>
      <point x="1300" y="1215"/>
      <point x="1300" y="900" type="qcurve" smooth="yes"/>
      <point x="1300" y="465"/>
    </contour>
  </outline>
</glyph>
<glyph name="uni17E2" format="1">
  <advance width="1650"/>
  <unicode hex="17E2"/>
  <outline>
    <contour>
      <point x="788" y="875" type="qcurve"/>
      <point x="788" y="800" type="line"/>
      <point x="836" y="800"/>
      <point x="836" y="850" type="qcurve" smooth="yes"/>
      <point x="836" y="862"/>
      <point x="823" y="869" type="qcurve" smooth="yes"/>
      <point x="811" y="875"/>
    </contour>
    <contour>
      <point x="800" y="0" type="line" smooth="yes"/>
      <point x="530" y="0"/>
      <point x="390" y="115" type="qcurve" smooth="yes"/>
      <point x="250" y="230"/>
      <point x="250" y="400" type="qcurve" smooth="yes"/>
      <point x="250" y="1450" type="line" smooth="yes"/>
      <point x="250" y="1566"/>
      <point x="100" y="1566" type="qcurve"/>
      <point x="100" y="1700"/>
      <point x="230" y="1700" type="qcurve" smooth="yes"/>
      <point x="438" y="1700"/>
      <point x="438" y="1450" type="qcurve" smooth="yes"/>
      <point x="438" y="400" type="line" smooth="yes"/>
      <point x="438" y="272"/>
      <point x="531" y="208" type="qcurve" smooth="yes"/>
      <point x="624" y="144"/>
      <point x="800" y="144" type="qcurve" smooth="yes"/>
      <point x="850" y="144" type="line" smooth="yes"/>
      <point x="1026" y="144"/>
      <point x="1119" y="208" type="qcurve" smooth="yes"/>
      <point x="1212" y="272"/>
      <point x="1212" y="400" type="qcurve" smooth="yes"/>
      <point x="1212" y="1200" type="line" smooth="yes"/>
      <point x="1212" y="1264"/>
      <point x="1152" y="1316" type="qcurve" smooth="yes"/>
      <point x="1150" y="1317"/>
      <point x="1148" y="1317" type="qcurve" smooth="yes"/>
      <point x="1122" y="1317"/>
      <point x="1001" y="1150" type="qcurve"/>
      <point x="882" y="1317"/>
      <point x="853" y="1317" type="qcurve" smooth="yes"/>
      <point x="850" y="1317"/>
      <point x="848" y="1316" type="qcurve" smooth="yes"/>
      <point x="788" y="1264"/>
      <point x="788" y="1200" type="qcurve" smooth="yes"/>
      <point x="788" y="975" type="line"/>
      <point x="862" y="975"/>
      <point x="899" y="944" type="qcurve" smooth="yes"/>
      <point x="936" y="912"/>
      <point x="936" y="850" type="qcurve" smooth="yes"/>
      <point x="936" y="700"/>
      <point x="788" y="700" type="qcurve" smooth="yes"/>
      <point x="600" y="700"/>
      <point x="600" y="800" type="qcurve" smooth="yes"/>
      <point x="600" y="1200" type="line" smooth="yes"/>
      <point x="600" y="1322"/>
      <point x="709" y="1411" type="qcurve" smooth="yes"/>
      <point x="818" y="1500"/>
      <point x="848" y="1500" type="qcurve" smooth="yes"/>
      <point x="878" y="1500"/>
      <point x="1001" y="1366" type="qcurve"/>
      <point x="1124" y="1500"/>
      <point x="1153" y="1500" type="qcurve" smooth="yes"/>
      <point x="1183" y="1500"/>
      <point x="1291" y="1411" type="qcurve" smooth="yes"/>
      <point x="1400" y="1322"/>
      <point x="1400" y="1200" type="qcurve" smooth="yes"/>
      <point x="1400" y="400" type="line" smooth="yes"/>
      <point x="1400" y="230"/>
      <point x="1260" y="115" type="qcurve" smooth="yes"/>
      <point x="1120" y="0"/>
      <point x="850" y="0" type="qcurve" smooth="yes"/>
    </contour>
  </outline>
</glyph>
<glyph name="uni17E3" format="1">
  <advance width="1812"/>
  <unicode hex="17E3"/>
  <outline>
    <contour>
      <point x="438" y="175" type="qcurve"/>
      <point x="438" y="100" type="line"/>
      <point x="486" y="100"/>
      <point x="486" y="150" type="qcurve" smooth="yes"/>
      <point x="486" y="162"/>
      <point x="473" y="169" type="qcurve" smooth="yes"/>
      <point x="461" y="175"/>
    </contour>
    <contour>
      <point x="812" y="1150" type="line" smooth="yes"/>
      <point x="812" y="1366"/>
      <point x="625" y="1366" type="qcurve" smooth="yes"/>
      <point x="438" y="1366"/>
      <point x="438" y="1150" type="qcurve" smooth="yes"/>
      <point x="438" y="275" type="line"/>
      <point x="512" y="275"/>
      <point x="549" y="244" type="qcurve" smooth="yes"/>
      <point x="586" y="212"/>
      <point x="586" y="150" type="qcurve" smooth="yes"/>
      <point x="586" y="0"/>
      <point x="438" y="0" type="qcurve" smooth="yes"/>
      <point x="250" y="0"/>
      <point x="250" y="100" type="qcurve" smooth="yes"/>
      <point x="250" y="1150" type="line" smooth="yes"/>
      <point x="250" y="1500"/>
      <point x="625" y="1500" type="qcurve" smooth="yes"/>
      <point x="812" y="1500"/>
      <point x="906" y="1413" type="qcurve"/>
      <point x="1000" y="1500"/>
      <point x="1187" y="1500" type="qcurve" smooth="yes"/>
      <point x="1562" y="1500"/>
      <point x="1562" y="1150" type="qcurve" smooth="yes"/>
      <point x="1562" y="0" type="line"/>
      <point x="1374" y="0" type="line"/>
      <point x="1374" y="1150" type="line" smooth="yes"/>
      <point x="1374" y="1366"/>
      <point x="1187" y="1366" type="qcurve" smooth="yes"/>
      <point x="1000" y="1366"/>
      <point x="1000" y="1150" type="qcurve" smooth="yes"/>
      <point x="1000" y="0" type="line"/>
      <point x="812" y="0" type="line"/>
    </contour>
  </outline>
</glyph>
<glyph name="uni17E4" format="1">
  <advance width="1550"/>
  <unicode hex="17E4"/>
  <outline>
    <contour>
      <point x="1180" y="700" type="qcurve" smooth="yes"/>
      <point x="1190" y="710"/>
      <point x="1190" y="735" type="qcurve" smooth="yes"/>
      <point x="1190" y="766"/>
      <point x="1150" y="786" type="qcurve"/>
      <point x="1150" y="689" type="line"/>
      <point x="1170" y="689"/>
    </contour>
    <contour>
      <point x="250" y="800" type="line" smooth="yes"/>
      <point x="250" y="1144"/>
      <point x="615" y="1254" type="qcurve"/>
      <point x="898" y="1345" type="line" smooth="yes"/>
      <point x="1112" y="1413"/>
      <point x="1112" y="1530" type="qcurve" smooth="yes"/>
      <point x="1112" y="1600"/>
      <point x="1012" y="1600" type="qcurve"/>
      <point x="1012" y="1700"/>
      <point x="1112" y="1700" type="qcurve" smooth="yes"/>
      <point x="1300" y="1700"/>
      <point x="1300" y="1530" type="qcurve" smooth="yes"/>
      <point x="1300" y="1320"/>
      <point x="958" y="1212" type="qcurve" smooth="yes"/>
      <point x="654" y="1117" type="line" smooth="yes"/>
      <point x="438" y="1047"/>
      <point x="438" y="800" type="qcurve" smooth="yes"/>
      <point x="438" y="300" type="line" smooth="yes"/>
      <point x="438" y="242"/>
      <point x="516" y="193" type="qcurve" smooth="yes"/>
      <point x="594" y="144"/>
      <point x="700" y="144" type="qcurve" smooth="yes"/>
      <point x="1112" y="144" type="line"/>
      <point x="962" y="371"/>
      <point x="962" y="450" type="qcurve" smooth="yes"/>
      <point x="962" y="700" type="line" smooth="yes"/>
      <point x="962" y="900"/>
      <point x="1096" y="900" type="qcurve" smooth="yes"/>
      <point x="1170" y="900"/>
      <point x="1261" y="851"/>
      <point x="1300" y="762"/>
      <point x="1300" y="705" type="qcurve" smooth="yes"/>
      <point x="1300" y="650"/>
      <point x="1230" y="550"/>
      <point x="1150" y="550" type="qcurve"/>
      <point x="1150" y="450" type="line" smooth="yes"/>
      <point x="1150" y="349"/>
      <point x="1225" y="237" type="qcurve" smooth="yes"/>
      <point x="1300" y="125" type="line"/>
      <point x="1300" y="0" type="line"/>
      <point x="700" y="0" type="line" smooth="yes"/>
      <point x="500" y="0"/>
      <point x="375" y="100" type="qcurve" smooth="yes"/>
      <point x="250" y="200"/>
      <point x="250" y="300" type="qcurve" smooth="yes"/>
    </contour>
  </outline>
</glyph>
<glyph name="uni17E5" format="1">
  <advance width="1550"/>
  <unicode hex="17E5"/>
  <outline>
    <contour>
      <point x="672" y="1212" type="qcurve"/>
      <point x="706" y="1246"/>
      <point x="706" y="1278" type="qcurve" smooth="yes"/>
      <point x="706" y="1366"/>
      <point x="628" y="1366" type="qcurve" smooth="yes"/>
      <point x="550" y="1366"/>
      <point x="550" y="1278" type="qcurve" smooth="yes"/>
      <point x="550" y="1234"/>
    </contour>
    <contour>
      <point x="1180" y="600" type="qcurve" smooth="yes"/>
      <point x="1190" y="610"/>
      <point x="1190" y="635" type="qcurve" smooth="yes"/>
      <point x="1190" y="666"/>
      <point x="1150" y="686" type="qcurve"/>
      <point x="1150" y="589" type="line"/>
      <point x="1170" y="589"/>
    </contour>
    <contour>
      <point x="815" y="1187" type="qcurve"/>
      <point x="1016" y="1161" type="line" smooth="yes"/>
      <point x="1025" y="1159"/>
      <point x="1034" y="1159" type="qcurve" smooth="yes"/>
      <point x="1112" y="1159"/>
      <point x="1112" y="1300" type="qcurve" smooth="yes"/>
      <point x="1112" y="1530" type="line" smooth="yes"/>
      <point x="1112" y="1700"/>
      <point x="1300" y="1700" type="qcurve" smooth="yes"/>
      <point x="1400" y="1700"/>
      <point x="1400" y="1600" type="qcurve"/>
      <point x="1300" y="1600"/>
      <point x="1300" y="1530" type="qcurve" smooth="yes"/>
      <point x="1300" y="1300" type="line" smooth="yes"/>
      <point x="1300" y="1000"/>
      <point x="1075" y="1000" type="qcurve"/>
      <point x="689" y="1065" type="line"/>
      <point x="658" y="1045"/>
      <point x="620" y="1025" type="qcurve"/>
      <point x="438" y="956"/>
      <point x="438" y="710" type="qcurve" smooth="yes"/>
      <point x="438" y="300" type="line" smooth="yes"/>
      <point x="438" y="242"/>
      <point x="516" y="193" type="qcurve" smooth="yes"/>
      <point x="594" y="144"/>
      <point x="700" y="144" type="qcurve" smooth="yes"/>
      <point x="1112" y="144" type="line"/>
      <point x="962" y="321"/>
      <point x="962" y="400" type="qcurve" smooth="yes"/>
      <point x="962" y="600" type="line" smooth="yes"/>
      <point x="962" y="800"/>
      <point x="1096" y="800" type="qcurve" smooth="yes"/>
      <point x="1170" y="800"/>
      <point x="1261" y="751"/>
      <point x="1300" y="662"/>
      <point x="1300" y="605" type="qcurve" smooth="yes"/>
      <point x="1300" y="550"/>
      <point x="1230" y="450"/>
      <point x="1150" y="450" type="qcurve"/>
      <point x="1150" y="400" type="line" smooth="yes"/>
      <point x="1150" y="299"/>
      <point x="1300" y="125" type="qcurve"/>
      <point x="1300" y="0" type="line"/>
      <point x="700" y="0" type="line" smooth="yes"/>
      <point x="500" y="0"/>
      <point x="375" y="100" type="qcurve" smooth="yes"/>
      <point x="250" y="200"/>
      <point x="250" y="300" type="qcurve" smooth="yes"/>
      <point x="250" y="710" type="line" smooth="yes"/>
      <point x="250" y="990"/>
      <point x="516" y="1117" type="qcurve"/>
      <point x="416" y="1172"/>
      <point x="416" y="1278" type="qcurve" smooth="yes"/>
      <point x="416" y="1500"/>
      <point x="628" y="1500" type="qcurve" smooth="yes"/>
      <point x="840" y="1500"/>
      <point x="840" y="1278" type="qcurve" smooth="yes"/>
      <point x="840" y="1231"/>
    </contour>
  </outline>
</glyph>
<glyph name="uni17E6" format="1">
  <advance width="1550"/>
  <unicode hex="17E6"/>
  <outline>
    <contour>
      <point x="438" y="1365" type="line"/>
      <point x="568" y="1500"/>
      <point x="781" y="1500" type="qcurve" smooth="yes"/>
      <point x="1033" y="1500"/>
      <point x="1300" y="1185"/>
      <point x="1300" y="800" type="qcurve" smooth="yes"/>
      <point x="1300" y="600" type="line" smooth="yes"/>
      <point x="1300" y="315"/>
      <point x="1033" y="0"/>
      <point x="776" y="0" type="qcurve" smooth="yes"/>
      <point x="488" y="0"/>
      <point x="369" y="142" type="qcurve" smooth="yes"/>
      <point x="250" y="285"/>
      <point x="250" y="470" type="qcurve" smooth="yes"/>
      <point x="250" y="623"/>
      <point x="341" y="711" type="qcurve" smooth="yes"/>
      <point x="431" y="800"/>
      <point x="592" y="800" type="qcurve" smooth="yes"/>
      <point x="721" y="800"/>
      <point x="850" y="683"/>
      <point x="850" y="546" type="qcurve" smooth="yes"/>
      <point x="850" y="446"/>
      <point x="750" y="446" type="qcurve" smooth="yes"/>
      <point x="650" y="446"/>
      <point x="650" y="546" type="qcurve" smooth="yes"/>
      <point x="650" y="602"/>
      <point x="681" y="626" type="qcurve"/>
      <point x="653" y="666"/>
      <point x="592" y="666" type="qcurve" smooth="yes"/>
      <point x="438" y="666"/>
      <point x="438" y="470" type="qcurve" smooth="yes"/>
      <point x="438" y="327"/>
      <point x="510" y="235" type="qcurve" smooth="yes"/>
      <point x="582" y="144"/>
      <point x="776" y="144" type="qcurve" smooth="yes"/>
      <point x="939" y="144"/>
      <point x="1112" y="357"/>
      <point x="1112" y="600" type="qcurve" smooth="yes"/>
      <point x="1112" y="800" type="line" smooth="yes"/>
      <point x="1112" y="1143"/>
      <point x="939" y="1356"/>
      <point x="781" y="1356" type="qcurve" smooth="yes"/>
      <point x="552" y="1356"/>
      <point x="438" y="1100" type="qcurve"/>
      <point x="438" y="1000"/>
      <point x="344" y="1000" type="qcurve" smooth="yes"/>
      <point x="250" y="1000"/>
      <point x="250" y="1100" type="qcurve" smooth="yes"/>
      <point x="250" y="1500" type="line" smooth="yes"/>
      <point x="250" y="1616"/>
      <point x="100" y="1616" type="qcurve"/>
      <point x="100" y="1750"/>
      <point x="230" y="1750" type="qcurve" smooth="yes"/>
      <point x="438" y="1750"/>
      <point x="438" y="1500" type="qcurve" smooth="yes"/>
    </contour>
  </outline>
</glyph>
<glyph name="uni17E7" format="1">
  <advance width="1788"/>
  <unicode hex="17E7"/>
  <outline>
    <contour>
      <point x="438" y="222" type="line"/>
      <point x="536" y="312"/>
      <point x="536" y="389" type="qcurve" smooth="yes"/>
      <point x="536" y="429"/>
      <point x="509" y="448" type="qcurve" smooth="yes"/>
      <point x="482" y="466"/>
      <point x="438" y="466" type="qcurve"/>
    </contour>
    <contour>
      <point x="1275" y="144" type="qcurve" smooth="yes"/>
      <point x="1350" y="144"/>
      <point x="1350" y="200" type="qcurve" smooth="yes"/>
      <point x="1350" y="1450" type="line" smooth="yes"/>
      <point x="1350" y="1566"/>
      <point x="1200" y="1566" type="qcurve"/>
      <point x="1200" y="1700"/>
      <point x="1330" y="1700" type="qcurve" smooth="yes"/>
      <point x="1538" y="1700"/>
      <point x="1538" y="1450" type="qcurve" smooth="yes"/>
      <point x="1538" y="200" type="line" smooth="yes"/>
      <point x="1538" y="0"/>
      <point x="1275" y="0" type="qcurve" smooth="yes"/>
      <point x="1012" y="0"/>
      <point x="1012" y="200" type="qcurve" smooth="yes"/>
      <point x="1012" y="1200" type="line" smooth="yes"/>
      <point x="1012" y="1264"/>
      <point x="937" y="1316" type="qcurve" smooth="yes"/>
      <point x="919" y="1329"/>
      <point x="898" y="1329" type="qcurve" smooth="yes"/>
      <point x="830" y="1329"/>
      <point x="726" y="1199" type="qcurve"/>
      <point x="621" y="1329"/>
      <point x="552" y="1329" type="qcurve" smooth="yes"/>
      <point x="531" y="1329"/>
      <point x="513" y="1316" type="qcurve" smooth="yes"/>
      <point x="438" y="1264"/>
      <point x="438" y="1200" type="qcurve" smooth="yes"/>
      <point x="438" y="600" type="line"/>
      <point x="583" y="600"/>
      <point x="627" y="541" type="qcurve" smooth="yes"/>
      <point x="670" y="481"/>
      <point x="670" y="415" type="qcurve" smooth="yes"/>
      <point x="670" y="337"/>
      <point x="630" y="250" type="qcurve" smooth="yes"/>
      <point x="590" y="162"/>
      <point x="514" y="81" type="qcurve" smooth="yes"/>
      <point x="438" y="0" type="line"/>
      <point x="250" y="0" type="line"/>
      <point x="250" y="1200" type="line" smooth="yes"/>
      <point x="250" y="1322"/>
      <point x="366" y="1411" type="qcurve" smooth="yes"/>
      <point x="482" y="1500"/>
      <point x="545" y="1500" type="qcurve" smooth="yes"/>
      <point x="597" y="1500"/>
      <point x="726" y="1366" type="qcurve"/>
      <point x="854" y="1500"/>
      <point x="907" y="1500" type="qcurve" smooth="yes"/>
      <point x="969" y="1500"/>
      <point x="1084" y="1411" type="qcurve" smooth="yes"/>
      <point x="1200" y="1322"/>
      <point x="1200" y="1200" type="qcurve" smooth="yes"/>
      <point x="1200" y="200" type="line" smooth="yes"/>
      <point x="1200" y="144"/>
    </contour>
  </outline>
</glyph>
